<mxfile host="65bd71144e">
    <diagram id="r50S7jpmDSx90G3VB2UG" name="Page-1">
        <mxGraphModel dx="454" dy="-406" grid="1" gridSize="10" guides="1" tooltips="1" connect="1" arrows="1" fold="1" page="1" pageScale="1" pageWidth="850" pageHeight="1100" math="0" shadow="0">
            <root>
                <mxCell id="0"/>
                <mxCell id="1" parent="0"/>
                <UserObject label="" mermaidData="{&#xa;  &quot;data&quot;: &quot;classDiagram\n    class Servidor {\n        -usuarios: List&lt;Usuario&gt;\n        -agencias: List&lt;Agencia&gt;\n        +buscarNoticias()\n        +remitirNoticia()\n        +suscribirUsuario()\n        +eliminarUsuario()\n    }\n\n    class Agencia {\n        -noticias: List&lt;Noticia&gt;\n        +agregarNoticia()\n        +eliminarNoticia()\n        +buscarNoticia()\n    }\n\n    class Noticia {\n        -titulo: String\n        -clasificaciones: List&lt;String&gt;\n        -cuerpo: Cuerpo\n        +editarNoticia()\n        +getTitulo()\n        +getClasificaciones()\n        +getCuerpo()\n        +setTitulo()\n        +setClasificaciones()\n        +setCuerpo()\n    }\n\n    class Contenido {\n        &lt;&lt;interface&gt;&gt;\n        +contarPalabras(): int\n        +contienePalabra(palabra: String): boolean\n    }\n\n    class Texto {\n+contarCantPalabras()\n\n    }\n\n    class Cuerpo {\n        -listContenido: List&lt;Contenido&gt;\n        +contarPalabras(): int\n        +contienePalabra(palabra: String): boolean\n    }\n\n  class Usuario {\n        -nombre: String\n        -preferencias: List&lt;Filtro&gt;\n        -listaNoticiasRemitidas: List&lt;Noticia&gt;\n        +agregarPreferencia(f: Filtro)\n        +recibirNoticia(n: Noticia)\n        +getPreferencias(): List&lt;Filtro&gt;\n    }\n\n    class Filtro {\n        &lt;&lt;interface&gt;&gt;\n        +cumpleCon(n: Noticia): boolean\n    }\n\n    class FiltroPorTitulo {\n    }\n\n    class FiltroPorPalabra {\n    }\n\n    class FiltroPorCantPalabrasMax {\n    }\n\n    class FiltroCategoria {\n    }\n\n    class FiltrosAnd {\n        -f1: Filtro\n        -f2: Filtro\n        +cumpleCon(n: Noticia): boolean\n    }\n\n\n    Servidor *-- Agencia\n    Servidor *-- Usuario\n    Agencia --&gt; Noticia\n    Noticia --&gt; Cuerpo\n    Cuerpo --&gt; Contenido\n    Texto --|&gt; Contenido\n    FiltroPorTitulo --|&gt; Filtro\n    FiltroPorPalabra --|&gt; Filtro\n    FiltroPorCantPalabrasMax --|&gt; Filtro\n    FiltroCategoria --|&gt; Filtro\n    FiltrosAnd --|&gt; Filtro\n    Usuario --&gt; Noticia : preferencias\n&quot;&#xa;}" id="3">
                    <mxCell style="shape=image;noLabel=1;verticalAlign=top;imageAspect=1;image=data:image/svg+xml,PHN2ZyBhcmlhLXJvbGVkZXNjcmlwdGlvbj0iY2xhc3MiIHJvbGU9ImdyYXBoaWNzLWRvY3VtZW50IGRvY3VtZW50IiB2aWV3Qm94PSIwIDAgMTU3Mi43NTAzNjYyMTA5Mzc1IDEzOTYuMjQ3NDM2NTIzNDM3NSIgc3R5bGU9Im1heC13aWR0aDogMTU3Mi43NTAzNjYyMTA5Mzc1cHg7IiBjbGFzcz0iY2xhc3NEaWFncmFtIiB4bWxucz0iaHR0cDovL3d3dy53My5vcmcvMjAwMC9zdmciIHdpZHRoPSIxMDAlIiBpZD0iZ2VNZXJtYWlkT3V0cHV0LTE3NDY1OTEyMTA1MDgiPjxzdHlsZT4jZ2VNZXJtYWlkT3V0cHV0LTE3NDY1OTEyMTA1MDh7Zm9udC1mYW1pbHk6InRyZWJ1Y2hldCBtcyIsdmVyZGFuYSxhcmlhbCxzYW5zLXNlcmlmO2ZvbnQtc2l6ZToxNnB4O2ZpbGw6IzAwMDAwMDt9I2dlTWVybWFpZE91dHB1dC0xNzQ2NTkxMjEwNTA4IC5lcnJvci1pY29ue2ZpbGw6IzU1MjIyMjt9I2dlTWVybWFpZE91dHB1dC0xNzQ2NTkxMjEwNTA4IC5lcnJvci10ZXh0e2ZpbGw6IzU1MjIyMjtzdHJva2U6IzU1MjIyMjt9I2dlTWVybWFpZE91dHB1dC0xNzQ2NTkxMjEwNTA4IC5lZGdlLXRoaWNrbmVzcy1ub3JtYWx7c3Ryb2tlLXdpZHRoOjFweDt9I2dlTWVybWFpZE91dHB1dC0xNzQ2NTkxMjEwNTA4IC5lZGdlLXRoaWNrbmVzcy10aGlja3tzdHJva2Utd2lkdGg6My41cHg7fSNnZU1lcm1haWRPdXRwdXQtMTc0NjU5MTIxMDUwOCAuZWRnZS1wYXR0ZXJuLXNvbGlke3N0cm9rZS1kYXNoYXJyYXk6MDt9I2dlTWVybWFpZE91dHB1dC0xNzQ2NTkxMjEwNTA4IC5lZGdlLXRoaWNrbmVzcy1pbnZpc2libGV7c3Ryb2tlLXdpZHRoOjA7ZmlsbDpub25lO30jZ2VNZXJtYWlkT3V0cHV0LTE3NDY1OTEyMTA1MDggLmVkZ2UtcGF0dGVybi1kYXNoZWR7c3Ryb2tlLWRhc2hhcnJheTozO30jZ2VNZXJtYWlkT3V0cHV0LTE3NDY1OTEyMTA1MDggLmVkZ2UtcGF0dGVybi1kb3R0ZWR7c3Ryb2tlLWRhc2hhcnJheToyO30jZ2VNZXJtYWlkT3V0cHV0LTE3NDY1OTEyMTA1MDggLm1hcmtlcntmaWxsOiM2NjY7c3Ryb2tlOiM2NjY7fSNnZU1lcm1haWRPdXRwdXQtMTc0NjU5MTIxMDUwOCAubWFya2VyLmNyb3Nze3N0cm9rZTojNjY2O30jZ2VNZXJtYWlkT3V0cHV0LTE3NDY1OTEyMTA1MDggc3Zne2ZvbnQtZmFtaWx5OiJ0cmVidWNoZXQgbXMiLHZlcmRhbmEsYXJpYWwsc2Fucy1zZXJpZjtmb250LXNpemU6MTZweDt9I2dlTWVybWFpZE91dHB1dC0xNzQ2NTkxMjEwNTA4IHB7bWFyZ2luOjA7fSNnZU1lcm1haWRPdXRwdXQtMTc0NjU5MTIxMDUwOCBnLmNsYXNzR3JvdXAgdGV4dHtmaWxsOiM5OTk7c3Ryb2tlOm5vbmU7Zm9udC1mYW1pbHk6InRyZWJ1Y2hldCBtcyIsdmVyZGFuYSxhcmlhbCxzYW5zLXNlcmlmO2ZvbnQtc2l6ZToxMHB4O30jZ2VNZXJtYWlkT3V0cHV0LTE3NDY1OTEyMTA1MDggZy5jbGFzc0dyb3VwIHRleHQgLnRpdGxle2ZvbnQtd2VpZ2h0OmJvbGRlcjt9I2dlTWVybWFpZE91dHB1dC0xNzQ2NTkxMjEwNTA4IC5ub2RlTGFiZWwsI2dlTWVybWFpZE91dHB1dC0xNzQ2NTkxMjEwNTA4IC5lZGdlTGFiZWx7Y29sb3I6IzExMTExMTt9I2dlTWVybWFpZE91dHB1dC0xNzQ2NTkxMjEwNTA4IC5lZGdlTGFiZWwgLmxhYmVsIHJlY3R7ZmlsbDojZWVlO30jZ2VNZXJtYWlkT3V0cHV0LTE3NDY1OTEyMTA1MDggLmxhYmVsIHRleHR7ZmlsbDojMTExMTExO30jZ2VNZXJtYWlkT3V0cHV0LTE3NDY1OTEyMTA1MDggLmxhYmVsQmtne2JhY2tncm91bmQ6I2VlZTt9I2dlTWVybWFpZE91dHB1dC0xNzQ2NTkxMjEwNTA4IC5lZGdlTGFiZWwgLmxhYmVsIHNwYW57YmFja2dyb3VuZDojZWVlO30jZ2VNZXJtYWlkT3V0cHV0LTE3NDY1OTEyMTA1MDggLmNsYXNzVGl0bGV7Zm9udC13ZWlnaHQ6Ym9sZGVyO30jZ2VNZXJtYWlkT3V0cHV0LTE3NDY1OTEyMTA1MDggLm5vZGUgcmVjdCwjZ2VNZXJtYWlkT3V0cHV0LTE3NDY1OTEyMTA1MDggLm5vZGUgY2lyY2xlLCNnZU1lcm1haWRPdXRwdXQtMTc0NjU5MTIxMDUwOCAubm9kZSBlbGxpcHNlLCNnZU1lcm1haWRPdXRwdXQtMTc0NjU5MTIxMDUwOCAubm9kZSBwb2x5Z29uLCNnZU1lcm1haWRPdXRwdXQtMTc0NjU5MTIxMDUwOCAubm9kZSBwYXRoe2ZpbGw6I2VlZTtzdHJva2U6Izk5OTtzdHJva2Utd2lkdGg6MXB4O30jZ2VNZXJtYWlkT3V0cHV0LTE3NDY1OTEyMTA1MDggLmRpdmlkZXJ7c3Ryb2tlOiM5OTk7c3Ryb2tlLXdpZHRoOjE7fSNnZU1lcm1haWRPdXRwdXQtMTc0NjU5MTIxMDUwOCBnLmNsaWNrYWJsZXtjdXJzb3I6cG9pbnRlcjt9I2dlTWVybWFpZE91dHB1dC0xNzQ2NTkxMjEwNTA4IGcuY2xhc3NHcm91cCByZWN0e2ZpbGw6I2VlZTtzdHJva2U6Izk5OTt9I2dlTWVybWFpZE91dHB1dC0xNzQ2NTkxMjEwNTA4IGcuY2xhc3NHcm91cCBsaW5le3N0cm9rZTojOTk5O3N0cm9rZS13aWR0aDoxO30jZ2VNZXJtYWlkT3V0cHV0LTE3NDY1OTEyMTA1MDggLmNsYXNzTGFiZWwgLmJveHtzdHJva2U6bm9uZTtzdHJva2Utd2lkdGg6MDtmaWxsOiNlZWU7b3BhY2l0eTowLjU7fSNnZU1lcm1haWRPdXRwdXQtMTc0NjU5MTIxMDUwOCAuY2xhc3NMYWJlbCAubGFiZWx7ZmlsbDojOTk5O2ZvbnQtc2l6ZToxMHB4O30jZ2VNZXJtYWlkT3V0cHV0LTE3NDY1OTEyMTA1MDggLnJlbGF0aW9ue3N0cm9rZTojNjY2O3N0cm9rZS13aWR0aDoxO2ZpbGw6bm9uZTt9I2dlTWVybWFpZE91dHB1dC0xNzQ2NTkxMjEwNTA4IC5kYXNoZWQtbGluZXtzdHJva2UtZGFzaGFycmF5OjM7fSNnZU1lcm1haWRPdXRwdXQtMTc0NjU5MTIxMDUwOCAuZG90dGVkLWxpbmV7c3Ryb2tlLWRhc2hhcnJheToxIDI7fSNnZU1lcm1haWRPdXRwdXQtMTc0NjU5MTIxMDUwOCAjY29tcG9zaXRpb25TdGFydCwjZ2VNZXJtYWlkT3V0cHV0LTE3NDY1OTEyMTA1MDggLmNvbXBvc2l0aW9ue2ZpbGw6IzY2NiFpbXBvcnRhbnQ7c3Ryb2tlOiM2NjYhaW1wb3J0YW50O3N0cm9rZS13aWR0aDoxO30jZ2VNZXJtYWlkT3V0cHV0LTE3NDY1OTEyMTA1MDggI2NvbXBvc2l0aW9uRW5kLCNnZU1lcm1haWRPdXRwdXQtMTc0NjU5MTIxMDUwOCAuY29tcG9zaXRpb257ZmlsbDojNjY2IWltcG9ydGFudDtzdHJva2U6IzY2NiFpbXBvcnRhbnQ7c3Ryb2tlLXdpZHRoOjE7fSNnZU1lcm1haWRPdXRwdXQtMTc0NjU5MTIxMDUwOCAjZGVwZW5kZW5jeVN0YXJ0LCNnZU1lcm1haWRPdXRwdXQtMTc0NjU5MTIxMDUwOCAuZGVwZW5kZW5jeXtmaWxsOiM2NjYhaW1wb3J0YW50O3N0cm9rZTojNjY2IWltcG9ydGFudDtzdHJva2Utd2lkdGg6MTt9I2dlTWVybWFpZE91dHB1dC0xNzQ2NTkxMjEwNTA4ICNkZXBlbmRlbmN5U3RhcnQsI2dlTWVybWFpZE91dHB1dC0xNzQ2NTkxMjEwNTA4IC5kZXBlbmRlbmN5e2ZpbGw6IzY2NiFpbXBvcnRhbnQ7c3Ryb2tlOiM2NjYhaW1wb3J0YW50O3N0cm9rZS13aWR0aDoxO30jZ2VNZXJtYWlkT3V0cHV0LTE3NDY1OTEyMTA1MDggI2V4dGVuc2lvblN0YXJ0LCNnZU1lcm1haWRPdXRwdXQtMTc0NjU5MTIxMDUwOCAuZXh0ZW5zaW9ue2ZpbGw6dHJhbnNwYXJlbnQhaW1wb3J0YW50O3N0cm9rZTojNjY2IWltcG9ydGFudDtzdHJva2Utd2lkdGg6MTt9I2dlTWVybWFpZE91dHB1dC0xNzQ2NTkxMjEwNTA4ICNleHRlbnNpb25FbmQsI2dlTWVybWFpZE91dHB1dC0xNzQ2NTkxMjEwNTA4IC5leHRlbnNpb257ZmlsbDp0cmFuc3BhcmVudCFpbXBvcnRhbnQ7c3Ryb2tlOiM2NjYhaW1wb3J0YW50O3N0cm9rZS13aWR0aDoxO30jZ2VNZXJtYWlkT3V0cHV0LTE3NDY1OTEyMTA1MDggI2FnZ3JlZ2F0aW9uU3RhcnQsI2dlTWVybWFpZE91dHB1dC0xNzQ2NTkxMjEwNTA4IC5hZ2dyZWdhdGlvbntmaWxsOnRyYW5zcGFyZW50IWltcG9ydGFudDtzdHJva2U6IzY2NiFpbXBvcnRhbnQ7c3Ryb2tlLXdpZHRoOjE7fSNnZU1lcm1haWRPdXRwdXQtMTc0NjU5MTIxMDUwOCAjYWdncmVnYXRpb25FbmQsI2dlTWVybWFpZE91dHB1dC0xNzQ2NTkxMjEwNTA4IC5hZ2dyZWdhdGlvbntmaWxsOnRyYW5zcGFyZW50IWltcG9ydGFudDtzdHJva2U6IzY2NiFpbXBvcnRhbnQ7c3Ryb2tlLXdpZHRoOjE7fSNnZU1lcm1haWRPdXRwdXQtMTc0NjU5MTIxMDUwOCAjbG9sbGlwb3BTdGFydCwjZ2VNZXJtYWlkT3V0cHV0LTE3NDY1OTEyMTA1MDggLmxvbGxpcG9we2ZpbGw6I2VlZSFpbXBvcnRhbnQ7c3Ryb2tlOiM2NjYhaW1wb3J0YW50O3N0cm9rZS13aWR0aDoxO30jZ2VNZXJtYWlkT3V0cHV0LTE3NDY1OTEyMTA1MDggI2xvbGxpcG9wRW5kLCNnZU1lcm1haWRPdXRwdXQtMTc0NjU5MTIxMDUwOCAubG9sbGlwb3B7ZmlsbDojZWVlIWltcG9ydGFudDtzdHJva2U6IzY2NiFpbXBvcnRhbnQ7c3Ryb2tlLXdpZHRoOjE7fSNnZU1lcm1haWRPdXRwdXQtMTc0NjU5MTIxMDUwOCAuZWRnZVRlcm1pbmFsc3tmb250LXNpemU6MTFweDtsaW5lLWhlaWdodDppbml0aWFsO30jZ2VNZXJtYWlkT3V0cHV0LTE3NDY1OTEyMTA1MDggLmNsYXNzVGl0bGVUZXh0e3RleHQtYW5jaG9yOm1pZGRsZTtmb250LXNpemU6MThweDtmaWxsOiMwMDAwMDA7fSNnZU1lcm1haWRPdXRwdXQtMTc0NjU5MTIxMDUwOCA6cm9vdHstLW1lcm1haWQtZm9udC1mYW1pbHk6InRyZWJ1Y2hldCBtcyIsdmVyZGFuYSxhcmlhbCxzYW5zLXNlcmlmO308L3N0eWxlPjxnPjxkZWZzPjxtYXJrZXIgb3JpZW50PSJhdXRvIiBtYXJrZXJIZWlnaHQ9IjI0MCIgbWFya2VyV2lkdGg9IjE5MCIgcmVmWT0iNyIgcmVmWD0iMTgiIGNsYXNzPSJtYXJrZXIgYWdncmVnYXRpb24gY2xhc3MiIGlkPSJnZU1lcm1haWRPdXRwdXQtMTc0NjU5MTIxMDUwOF9jbGFzcy1hZ2dyZWdhdGlvblN0YXJ0Ij48cGF0aCBkPSJNIDE4LDcgTDksMTMgTDEsNyBMOSwxIFoiPjwvcGF0aD48L21hcmtlcj48L2RlZnM+PGRlZnM+PG1hcmtlciBvcmllbnQ9ImF1dG8iIG1hcmtlckhlaWdodD0iMjgiIG1hcmtlcldpZHRoPSIyMCIgcmVmWT0iNyIgcmVmWD0iMSIgY2xhc3M9Im1hcmtlciBhZ2dyZWdhdGlvbiBjbGFzcyIgaWQ9ImdlTWVybWFpZE91dHB1dC0xNzQ2NTkxMjEwNTA4X2NsYXNzLWFnZ3JlZ2F0aW9uRW5kIj48cGF0aCBkPSJNIDE4LDcgTDksMTMgTDEsNyBMOSwxIFoiPjwvcGF0aD48L21hcmtlcj48L2RlZnM+PGRlZnM+PG1hcmtlciBvcmllbnQ9ImF1dG8iIG1hcmtlckhlaWdodD0iMjQwIiBtYXJrZXJXaWR0aD0iMTkwIiByZWZZPSI3IiByZWZYPSIxOCIgY2xhc3M9Im1hcmtlciBleHRlbnNpb24gY2xhc3MiIGlkPSJnZU1lcm1haWRPdXRwdXQtMTc0NjU5MTIxMDUwOF9jbGFzcy1leHRlbnNpb25TdGFydCI+PHBhdGggZD0iTSAxLDcgTDE4LDEzIFYgMSBaIj48L3BhdGg+PC9tYXJrZXI+PC9kZWZzPjxkZWZzPjxtYXJrZXIgb3JpZW50PSJhdXRvIiBtYXJrZXJIZWlnaHQ9IjI4IiBtYXJrZXJXaWR0aD0iMjAiIHJlZlk9IjciIHJlZlg9IjEiIGNsYXNzPSJtYXJrZXIgZXh0ZW5zaW9uIGNsYXNzIiBpZD0iZ2VNZXJtYWlkT3V0cHV0LTE3NDY1OTEyMTA1MDhfY2xhc3MtZXh0ZW5zaW9uRW5kIj48cGF0aCBkPSJNIDEsMSBWIDEzIEwxOCw3IFoiPjwvcGF0aD48L21hcmtlcj48L2RlZnM+PGRlZnM+PG1hcmtlciBvcmllbnQ9ImF1dG8iIG1hcmtlckhlaWdodD0iMjQwIiBtYXJrZXJXaWR0aD0iMTkwIiByZWZZPSI3IiByZWZYPSIxOCIgY2xhc3M9Im1hcmtlciBjb21wb3NpdGlvbiBjbGFzcyIgaWQ9ImdlTWVybWFpZE91dHB1dC0xNzQ2NTkxMjEwNTA4X2NsYXNzLWNvbXBvc2l0aW9uU3RhcnQiPjxwYXRoIGQ9Ik0gMTgsNyBMOSwxMyBMMSw3IEw5LDEgWiI+PC9wYXRoPjwvbWFya2VyPjwvZGVmcz48ZGVmcz48bWFya2VyIG9yaWVudD0iYXV0byIgbWFya2VySGVpZ2h0PSIyOCIgbWFya2VyV2lkdGg9IjIwIiByZWZZPSI3IiByZWZYPSIxIiBjbGFzcz0ibWFya2VyIGNvbXBvc2l0aW9uIGNsYXNzIiBpZD0iZ2VNZXJtYWlkT3V0cHV0LTE3NDY1OTEyMTA1MDhfY2xhc3MtY29tcG9zaXRpb25FbmQiPjxwYXRoIGQ9Ik0gMTgsNyBMOSwxMyBMMSw3IEw5LDEgWiI+PC9wYXRoPjwvbWFya2VyPjwvZGVmcz48ZGVmcz48bWFya2VyIG9yaWVudD0iYXV0byIgbWFya2VySGVpZ2h0PSIyNDAiIG1hcmtlcldpZHRoPSIxOTAiIHJlZlk9IjciIHJlZlg9IjYiIGNsYXNzPSJtYXJrZXIgZGVwZW5kZW5jeSBjbGFzcyIgaWQ9ImdlTWVybWFpZE91dHB1dC0xNzQ2NTkxMjEwNTA4X2NsYXNzLWRlcGVuZGVuY3lTdGFydCI+PHBhdGggZD0iTSA1LDcgTDksMTMgTDEsNyBMOSwxIFoiPjwvcGF0aD48L21hcmtlcj48L2RlZnM+PGRlZnM+PG1hcmtlciBvcmllbnQ9ImF1dG8iIG1hcmtlckhlaWdodD0iMjgiIG1hcmtlcldpZHRoPSIyMCIgcmVmWT0iNyIgcmVmWD0iMTMiIGNsYXNzPSJtYXJrZXIgZGVwZW5kZW5jeSBjbGFzcyIgaWQ9ImdlTWVybWFpZE91dHB1dC0xNzQ2NTkxMjEwNTA4X2NsYXNzLWRlcGVuZGVuY3lFbmQiPjxwYXRoIGQ9Ik0gMTgsNyBMOSwxMyBMMTQsNyBMOSwxIFoiPjwvcGF0aD48L21hcmtlcj48L2RlZnM+PGRlZnM+PG1hcmtlciBvcmllbnQ9ImF1dG8iIG1hcmtlckhlaWdodD0iMjQwIiBtYXJrZXJXaWR0aD0iMTkwIiByZWZZPSI3IiByZWZYPSIxMyIgY2xhc3M9Im1hcmtlciBsb2xsaXBvcCBjbGFzcyIgaWQ9ImdlTWVybWFpZE91dHB1dC0xNzQ2NTkxMjEwNTA4X2NsYXNzLWxvbGxpcG9wU3RhcnQiPjxjaXJjbGUgcj0iNiIgY3k9IjciIGN4PSI3IiBmaWxsPSJ0cmFuc3BhcmVudCIgc3Ryb2tlPSJibGFjayI+PC9jaXJjbGU+PC9tYXJrZXI+PC9kZWZzPjxkZWZzPjxtYXJrZXIgb3JpZW50PSJhdXRvIiBtYXJrZXJIZWlnaHQ9IjI0MCIgbWFya2VyV2lkdGg9IjE5MCIgcmVmWT0iNyIgcmVmWD0iMSIgY2xhc3M9Im1hcmtlciBsb2xsaXBvcCBjbGFzcyIgaWQ9ImdlTWVybWFpZE91dHB1dC0xNzQ2NTkxMjEwNTA4X2NsYXNzLWxvbGxpcG9wRW5kIj48Y2lyY2xlIHI9IjYiIGN5PSI3IiBjeD0iNyIgZmlsbD0idHJhbnNwYXJlbnQiIHN0cm9rZT0iYmxhY2siPjwvY2lyY2xlPjwvbWFya2VyPjwvZGVmcz48ZyBjbGFzcz0icm9vdCI+PGcgY2xhc3M9ImNsdXN0ZXJzIj48L2c+PGcgY2xhc3M9ImVkZ2VQYXRocyI+PHBhdGggbWFya2VyLXN0YXJ0PSJ1cmwoI2dlTWVybWFpZE91dHB1dC0xNzQ2NTkxMjEwNTA4X2NsYXNzLWNvbXBvc2l0aW9uU3RhcnQpIiBzdHlsZT0iOyIgY2xhc3M9ImVkZ2UtdGhpY2tuZXNzLW5vcm1hbCBlZGdlLXBhdHRlcm4tc29saWQgcmVsYXRpb24iIGlkPSJpZF9TZXJ2aWRvcl9BZ2VuY2lhXzEiIGQ9Ik0xMjkuNDMyLDI0MS4zMThMMTI0LjQ1MiwyNDYuNTk1QzExOS40NzMsMjUxLjg3MiwxMDkuNTEzLDI2Mi40MjcsMTA0LjUzNCwyNzUuODcxQzk5LjU1NCwyODkuMzE0LDk5LjU1NCwzMDUuNjQ3LDk5LjU1NCwzMTMuODEzTDk5LjU1NCwzMjEuOTc5Ij48L3BhdGg+PHBhdGggbWFya2VyLXN0YXJ0PSJ1cmwoI2dlTWVybWFpZE91dHB1dC0xNzQ2NTkxMjEwNTA4X2NsYXNzLWNvbXBvc2l0aW9uU3RhcnQpIiBzdHlsZT0iOyIgY2xhc3M9ImVkZ2UtdGhpY2tuZXNzLW5vcm1hbCBlZGdlLXBhdHRlcm4tc29saWQgcmVsYXRpb24iIGlkPSJpZF9TZXJ2aWRvcl9Vc3VhcmlvXzIiIGQ9Ik0zNDMuMzAyLDI0MS4zMThMMzQ4LjI4MSwyNDYuNTk1QzM1My4yNjEsMjUxLjg3MiwzNjMuMjIsMjYyLjQyNywzNjguMiwyNzEuODcxQzM3My4xOCwyODEuMzE1LDM3My4xOCwyODkuNjQ4LDM3My4xOCwyOTMuODE1TDM3My4xOCwyOTcuOTgyIj48L3BhdGg+PHBhdGggbWFya2VyLWVuZD0idXJsKCNnZU1lcm1haWRPdXRwdXQtMTc0NjU5MTIxMDUwOF9jbGFzcy1kZXBlbmRlbmN5RW5kKSIgc3R5bGU9IjsiIGNsYXNzPSJlZGdlLXRoaWNrbmVzcy1ub3JtYWwgZWRnZS1wYXR0ZXJuLXNvbGlkIHJlbGF0aW9uIiBpZD0iaWRfQWdlbmNpYV9Ob3RpY2lhXzMiIGQ9Ik05OS41NTQsNTEzLjk2Nkw5OS41NTQsNTIzLjk5M0M5OS41NTQsNTM0LjAyMSw5OS41NTQsNTU0LjA3NiwxMDUuMjE4LDU3Mi41NTVDMTEwLjg4Myw1OTEuMDM1LDEyMi4yMTEsNjA3LjkzOSwxMjcuODc1LDYxNi4zOTFMMTMzLjU0LDYyNC44NDQiPjwvcGF0aD48cGF0aCBtYXJrZXItZW5kPSJ1cmwoI2dlTWVybWFpZE91dHB1dC0xNzQ2NTkxMjEwNTA4X2NsYXNzLWRlcGVuZGVuY3lFbmQpIiBzdHlsZT0iOyIgY2xhc3M9ImVkZ2UtdGhpY2tuZXNzLW5vcm1hbCBlZGdlLXBhdHRlcm4tc29saWQgcmVsYXRpb24iIGlkPSJpZF9Ob3RpY2lhX0N1ZXJwb180IiBkPSJNMjM2LjM2Nyw5NDYuMjY4TDIzNi4zNjcsOTUwLjQzNUMyMzYuMzY3LDk1NC42MDIsMjM2LjM2Nyw5NjIuOTM1LDIzNi4zNjcsOTcwLjI2OEMyMzYuMzY3LDk3Ny42MDIsMjM2LjM2Nyw5ODMuOTM1LDIzNi4zNjcsOTg3LjEwMkwyMzYuMzY3LDk5MC4yNjgiPjwvcGF0aD48cGF0aCBtYXJrZXItZW5kPSJ1cmwoI2dlTWVybWFpZE91dHB1dC0xNzQ2NTkxMjEwNTA4X2NsYXNzLWRlcGVuZGVuY3lFbmQpIiBzdHlsZT0iOyIgY2xhc3M9ImVkZ2UtdGhpY2tuZXNzLW5vcm1hbCBlZGdlLXBhdHRlcm4tc29saWQgcmVsYXRpb24iIGlkPSJpZF9DdWVycG9fQ29udGVuaWRvXzUiIGQ9Ik0yMzYuMzY3LDExNjQuMjU4TDIzNi4zNjcsMTE2OC40MjRDMjM2LjM2NywxMTcyLjU5MSwyMzYuMzY3LDExODAuOTI0LDI0MS44NTMsMTE4OC43MDdDMjQ3LjMzOSwxMTk2LjQ5LDI1OC4zMTEsMTIwMy43MjMsMjYzLjc5NywxMjA3LjMzOUwyNjkuMjgzLDEyMTAuOTU2Ij48L3BhdGg+PHBhdGggbWFya2VyLWVuZD0idXJsKCNnZU1lcm1haWRPdXRwdXQtMTc0NjU5MTIxMDUwOF9jbGFzcy1leHRlbnNpb25FbmQpIiBzdHlsZT0iOyIgY2xhc3M9ImVkZ2UtdGhpY2tuZXNzLW5vcm1hbCBlZGdlLXBhdHRlcm4tc29saWQgcmVsYXRpb24iIGlkPSJpZF9UZXh0b19Db250ZW5pZG9fNiIgZD0iTTU3Ni4xNjgsMTE0My4yNkw1NzYuMTY4LDExNTAuOTI3QzU3Ni4xNjgsMTE1OC41OTMsNTc2LjE2OCwxMTczLjkyNSw1NzIuMzUxLDExODQuMTA3QzU2OC41MzUsMTE5NC4yODksNTYwLjkwMywxMTk5LjMyLDU1Ny4wODcsMTIwMS44MzZMNTUzLjI3LDEyMDQuMzUxIj48L3BhdGg+PHBhdGggbWFya2VyLWVuZD0idXJsKCNnZU1lcm1haWRPdXRwdXQtMTc0NjU5MTIxMDUwOF9jbGFzcy1leHRlbnNpb25FbmQpIiBzdHlsZT0iOyIgY2xhc3M9ImVkZ2UtdGhpY2tuZXNzLW5vcm1hbCBlZGdlLXBhdHRlcm4tc29saWQgcmVsYXRpb24iIGlkPSJpZF9GaWx0cm9Qb3JUaXR1bG9fRmlsdHJvXzciIGQ9Ik00ODguNzU2LDE2OS45OUw0ODguNzU2LDE4Ny4xNTVDNDg4Ljc1NiwyMDQuMzIsNDg4Ljc1NiwyMzguNjUxLDUyOS4xMjgsMjY5LjgyMkM1NjkuNTAxLDMwMC45OTIsNjUwLjI0NiwzMjkuMDAzLDY5MC42MTksMzQzLjAwOEw3MzAuOTkyLDM1Ny4wMTQiPjwvcGF0aD48cGF0aCBtYXJrZXItZW5kPSJ1cmwoI2dlTWVybWFpZE91dHB1dC0xNzQ2NTkxMjEwNTA4X2NsYXNzLWV4dGVuc2lvbkVuZCkiIHN0eWxlPSI7IiBjbGFzcz0iZWRnZS10aGlja25lc3Mtbm9ybWFsIGVkZ2UtcGF0dGVybi1zb2xpZCByZWxhdGlvbiIgaWQ9ImlkX0ZpbHRyb1BvclBhbGFicmFfRmlsdHJvXzgiIGQ9Ik02NzcuNDEsMTY5Ljk5TDY3Ny40MSwxODcuMTU1QzY3Ny40MSwyMDQuMzIsNjc3LjQxLDIzOC42NTEsNjkzLjMyNSwyNjUuODc5QzcwOS4yMzksMjkzLjEwNyw3NDEuMDY3LDMxMy4yMzIsNzU2Ljk4MSwzMjMuMjk0TDc3Mi44OTUsMzMzLjM1NyI+PC9wYXRoPjxwYXRoIG1hcmtlci1lbmQ9InVybCgjZ2VNZXJtYWlkT3V0cHV0LTE3NDY1OTEyMTA1MDhfY2xhc3MtZXh0ZW5zaW9uRW5kKSIgc3R5bGU9IjsiIGNsYXNzPSJlZGdlLXRoaWNrbmVzcy1ub3JtYWwgZWRnZS1wYXR0ZXJuLXNvbGlkIHJlbGF0aW9uIiBpZD0iaWRfRmlsdHJvUG9yQ2FudFBhbGFicmFzTWF4X0ZpbHRyb185IiBkPSJNOTA2LjcxNiwxNjkuOTlMOTA2LjcxNiwxODcuMTU1QzkwNi43MTYsMjA0LjMyLDkwNi43MTYsMjM4LjY1MSw5MDYuNzE2LDI2NC40ODJDOTA2LjcxNiwyOTAuMzEzLDkwNi43MTYsMzA3LjY0NSw5MDYuNzE2LDMxNi4zMTFMOTA2LjcxNiwzMjQuOTc3Ij48L3BhdGg+PHBhdGggbWFya2VyLWVuZD0idXJsKCNnZU1lcm1haWRPdXRwdXQtMTc0NjU5MTIxMDUwOF9jbGFzcy1leHRlbnNpb25FbmQpIiBzdHlsZT0iOyIgY2xhc3M9ImVkZ2UtdGhpY2tuZXNzLW5vcm1hbCBlZGdlLXBhdHRlcm4tc29saWQgcmVsYXRpb24iIGlkPSJpZF9GaWx0cm9DYXRlZ29yaWFfRmlsdHJvXzEwIiBkPSJNMTEzMi4wMDYsMTY5Ljk5TDExMzIuMDA2LDE4Ny4xNTVDMTEzMi4wMDYsMjA0LjMyLDExMzIuMDA2LDIzOC42NTEsMTExNi40MDIsMjY1Ljg1OUMxMTAwLjc5OCwyOTMuMDY2LDEwNjkuNTksMzEzLjE1MSwxMDUzLjk4NywzMjMuMTkzTDEwMzguMzgzLDMzMy4yMzUiPjwvcGF0aD48cGF0aCBtYXJrZXItZW5kPSJ1cmwoI2dlTWVybWFpZE91dHB1dC0xNzQ2NTkxMjEwNTA4X2NsYXNzLWV4dGVuc2lvbkVuZCkiIHN0eWxlPSI7IiBjbGFzcz0iZWRnZS10aGlja25lc3Mtbm9ybWFsIGVkZ2UtcGF0dGVybi1zb2xpZCByZWxhdGlvbiIgaWQ9ImlkX0ZpbHRyb3NBbmRfRmlsdHJvXzExIiBkPSJNMTQwNy40MTIsMjExLjk4NkwxNDA3LjQxMiwyMjIuMTUyQzE0MDcuNDEyLDIzMi4zMTgsMTQwNy40MTIsMjUyLjY1LDEzNTMuMjk3LDI3OC40ODZDMTI5OS4xODMsMzA0LjMyMywxMTkwLjk1NCwzMzUuNjYzLDExMzYuODM5LDM1MS4zMzRMMTA4Mi43MjUsMzY3LjAwNCI+PC9wYXRoPjxwYXRoIG1hcmtlci1lbmQ9InVybCgjZ2VNZXJtYWlkT3V0cHV0LTE3NDY1OTEyMTA1MDhfY2xhc3MtZGVwZW5kZW5jeUVuZCkiIHN0eWxlPSI7IiBjbGFzcz0iZWRnZS10aGlja25lc3Mtbm9ybWFsIGVkZ2UtcGF0dGVybi1zb2xpZCByZWxhdGlvbiIgaWQ9ImlkX1VzdWFyaW9fTm90aWNpYV8xMiIgZD0iTTM3My4xOCw1MzcuOTY0TDM3My4xOCw1NDMuOTkxQzM3My4xOCw1NTAuMDE5LDM3My4xOCw1NjIuMDc1LDM2Ny41MTUsNTc2LjU1NUMzNjEuODUxLDU5MS4wMzUsMzUwLjUyMyw2MDcuOTM5LDM0NC44NTgsNjE2LjM5MUwzMzkuMTk0LDYyNC44NDQiPjwvcGF0aD48L2c+PGcgY2xhc3M9ImVkZ2VMYWJlbHMiPjxnPjxyZWN0IHN0eWxlPSJzdHJva2U6IG5vbmUiIGNsYXNzPSJiYWNrZ3JvdW5kIj48L3JlY3Q+PC9nPjxnPjxyZWN0IHN0eWxlPSJzdHJva2U6IG5vbmUiIGNsYXNzPSJiYWNrZ3JvdW5kIj48L3JlY3Q+PC9nPjxnPjxyZWN0IHN0eWxlPSJzdHJva2U6IG5vbmUiIGNsYXNzPSJiYWNrZ3JvdW5kIj48L3JlY3Q+PC9nPjxnPjxyZWN0IHN0eWxlPSJzdHJva2U6IG5vbmUiIGNsYXNzPSJiYWNrZ3JvdW5kIj48L3JlY3Q+PC9nPjxnPjxyZWN0IHN0eWxlPSJzdHJva2U6IG5vbmUiIGNsYXNzPSJiYWNrZ3JvdW5kIj48L3JlY3Q+PC9nPjxnPjxyZWN0IHN0eWxlPSJzdHJva2U6IG5vbmUiIGNsYXNzPSJiYWNrZ3JvdW5kIj48L3JlY3Q+PC9nPjxnPjxyZWN0IHN0eWxlPSJzdHJva2U6IG5vbmUiIGNsYXNzPSJiYWNrZ3JvdW5kIj48L3JlY3Q+PC9nPjxnPjxyZWN0IHN0eWxlPSJzdHJva2U6IG5vbmUiIGNsYXNzPSJiYWNrZ3JvdW5kIj48L3JlY3Q+PC9nPjxnPjxyZWN0IHN0eWxlPSJzdHJva2U6IG5vbmUiIGNsYXNzPSJiYWNrZ3JvdW5kIj48L3JlY3Q+PC9nPjxnPjxyZWN0IHN0eWxlPSJzdHJva2U6IG5vbmUiIGNsYXNzPSJiYWNrZ3JvdW5kIj48L3JlY3Q+PC9nPjxnPjxyZWN0IHN0eWxlPSJzdHJva2U6IG5vbmUiIGNsYXNzPSJiYWNrZ3JvdW5kIj48L3JlY3Q+PC9nPjxnIGNsYXNzPSJlZGdlTGFiZWwiPjxnIHRyYW5zZm9ybT0idHJhbnNsYXRlKDAsIDApIiBjbGFzcz0ibGFiZWwiPjx0ZXh0IHk9Ii0xMC4xIj48dHNwYW4gZHk9IjEuMWVtIiB5PSItMC4xZW0iIHg9IjAiIGNsYXNzPSJ0ZXh0LW91dGVyLXRzcGFuIj48L3RzcGFuPjwvdGV4dD48L2c+PC9nPjxnIGNsYXNzPSJlZGdlTGFiZWwiPjxnIHRyYW5zZm9ybT0idHJhbnNsYXRlKDAsIDApIiBjbGFzcz0ibGFiZWwiPjx0ZXh0IHk9Ii0xMC4xIj48dHNwYW4gZHk9IjEuMWVtIiB5PSItMC4xZW0iIHg9IjAiIGNsYXNzPSJ0ZXh0LW91dGVyLXRzcGFuIj48L3RzcGFuPjwvdGV4dD48L2c+PC9nPjxnIGNsYXNzPSJlZGdlTGFiZWwiPjxnIHRyYW5zZm9ybT0idHJhbnNsYXRlKDAsIDApIiBjbGFzcz0ibGFiZWwiPjx0ZXh0IHk9Ii0xMC4xIj48dHNwYW4gZHk9IjEuMWVtIiB5PSItMC4xZW0iIHg9IjAiIGNsYXNzPSJ0ZXh0LW91dGVyLXRzcGFuIj48L3RzcGFuPjwvdGV4dD48L2c+PC9nPjxnIGNsYXNzPSJlZGdlTGFiZWwiPjxnIHRyYW5zZm9ybT0idHJhbnNsYXRlKDAsIDApIiBjbGFzcz0ibGFiZWwiPjx0ZXh0IHk9Ii0xMC4xIj48dHNwYW4gZHk9IjEuMWVtIiB5PSItMC4xZW0iIHg9IjAiIGNsYXNzPSJ0ZXh0LW91dGVyLXRzcGFuIj48L3RzcGFuPjwvdGV4dD48L2c+PC9nPjxnIGNsYXNzPSJlZGdlTGFiZWwiPjxnIHRyYW5zZm9ybT0idHJhbnNsYXRlKDAsIDApIiBjbGFzcz0ibGFiZWwiPjx0ZXh0IHk9Ii0xMC4xIj48dHNwYW4gZHk9IjEuMWVtIiB5PSItMC4xZW0iIHg9IjAiIGNsYXNzPSJ0ZXh0LW91dGVyLXRzcGFuIj48L3RzcGFuPjwvdGV4dD48L2c+PC9nPjxnIGNsYXNzPSJlZGdlTGFiZWwiPjxnIHRyYW5zZm9ybT0idHJhbnNsYXRlKDAsIDApIiBjbGFzcz0ibGFiZWwiPjx0ZXh0IHk9Ii0xMC4xIj48dHNwYW4gZHk9IjEuMWVtIiB5PSItMC4xZW0iIHg9IjAiIGNsYXNzPSJ0ZXh0LW91dGVyLXRzcGFuIj48L3RzcGFuPjwvdGV4dD48L2c+PC9nPjxnIGNsYXNzPSJlZGdlTGFiZWwiPjxnIHRyYW5zZm9ybT0idHJhbnNsYXRlKDAsIDApIiBjbGFzcz0ibGFiZWwiPjx0ZXh0IHk9Ii0xMC4xIj48dHNwYW4gZHk9IjEuMWVtIiB5PSItMC4xZW0iIHg9IjAiIGNsYXNzPSJ0ZXh0LW91dGVyLXRzcGFuIj48L3RzcGFuPjwvdGV4dD48L2c+PC9nPjxnIGNsYXNzPSJlZGdlTGFiZWwiPjxnIHRyYW5zZm9ybT0idHJhbnNsYXRlKDAsIDApIiBjbGFzcz0ibGFiZWwiPjx0ZXh0IHk9Ii0xMC4xIj48dHNwYW4gZHk9IjEuMWVtIiB5PSItMC4xZW0iIHg9IjAiIGNsYXNzPSJ0ZXh0LW91dGVyLXRzcGFuIj48L3RzcGFuPjwvdGV4dD48L2c+PC9nPjxnIGNsYXNzPSJlZGdlTGFiZWwiPjxnIHRyYW5zZm9ybT0idHJhbnNsYXRlKDAsIDApIiBjbGFzcz0ibGFiZWwiPjx0ZXh0IHk9Ii0xMC4xIj48dHNwYW4gZHk9IjEuMWVtIiB5PSItMC4xZW0iIHg9IjAiIGNsYXNzPSJ0ZXh0LW91dGVyLXRzcGFuIj48L3RzcGFuPjwvdGV4dD48L2c+PC9nPjxnIGNsYXNzPSJlZGdlTGFiZWwiPjxnIHRyYW5zZm9ybT0idHJhbnNsYXRlKDAsIDApIiBjbGFzcz0ibGFiZWwiPjx0ZXh0IHk9Ii0xMC4xIj48dHNwYW4gZHk9IjEuMWVtIiB5PSItMC4xZW0iIHg9IjAiIGNsYXNzPSJ0ZXh0LW91dGVyLXRzcGFuIj48L3RzcGFuPjwvdGV4dD48L2c+PC9nPjxnIGNsYXNzPSJlZGdlTGFiZWwiPjxnIHRyYW5zZm9ybT0idHJhbnNsYXRlKDAsIDApIiBjbGFzcz0ibGFiZWwiPjx0ZXh0IHk9Ii0xMC4xIj48dHNwYW4gZHk9IjEuMWVtIiB5PSItMC4xZW0iIHg9IjAiIGNsYXNzPSJ0ZXh0LW91dGVyLXRzcGFuIj48L3RzcGFuPjwvdGV4dD48L2c+PC9nPjxnIHRyYW5zZm9ybT0idHJhbnNsYXRlKDM3My4xNzk3MDI3NTg3ODkwNiwgNTc0LjEzMDE5NzUyNTAyNDQpIiBjbGFzcz0iZWRnZUxhYmVsIj48ZyB0cmFuc2Zvcm09InRyYW5zbGF0ZSgtNDYuODcyMzUyNjAwMDk3NjU2LCAtMTEuMTY2NjY2MDMwODgzNzg5KSIgY2xhc3M9ImxhYmVsIj48Zz48cmVjdCBoZWlnaHQ9IjIyLjMzMzMzMjA2MTc2NzU3OCIgd2lkdGg9IjkzLjc0NDcwNTIwMDE5NTMxIiB5PSItMC45OTk5OTk0MDM5NTM1NTIyIiB4PSItMiIgc3R5bGU9IjtkaXNwbGF5OiBpbmxpbmUtYmxvY2siIGNsYXNzPSJiYWNrZ3JvdW5kIj48L3JlY3Q+PHRleHQgc3R5bGU9IjtkaXNwbGF5OiBpbmxpbmUtYmxvY2siIHk9Ii0xMC4xIj48dHNwYW4gZHk9IjEuMWVtIiB5PSItMC4xZW0iIHg9IjAiIGNsYXNzPSJ0ZXh0LW91dGVyLXRzcGFuIj48dHNwYW4gZm9udC13ZWlnaHQ9Im5vcm1hbCIgY2xhc3M9InRleHQtaW5uZXItdHNwYW4iIGZvbnQtc3R5bGU9Im5vcm1hbCI+cHJlZmVyZW5jaWFzPC90c3Bhbj48L3RzcGFuPjwvdGV4dD48L2c+PC9nPjwvZz48L2c+PGcgY2xhc3M9Im5vZGVzIj48ZyB0cmFuc2Zvcm09InRyYW5zbGF0ZSgyMzYuMzY2ODcwODgwMTI2OTUsIDEyNy45OTA4ODI4NzM1MzUxNikiIGlkPSJjbGFzc0lkLVNlcnZpZG9yLTY4IiBjbGFzcz0ibm9kZSBkZWZhdWx0Ij48ZyBjbGFzcz0iYmFzaWMgbGFiZWwtY29udGFpbmVyIj48cGF0aCBzdHlsZT0iIiBmaWxsPSIjZWVlIiBzdHJva2Utd2lkdGg9IjAiIHN0cm9rZT0ibm9uZSIgZD0iTS05NC41ODEzNzUxMjIwNzAzMSAtMTE5Ljk5MDg4Mjg3MzUzNTE2IEw5NC41ODEzNzUxMjIwNzAzMSAtMTE5Ljk5MDg4Mjg3MzUzNTE2IEw5NC41ODEzNzUxMjIwNzAzMSAxMTkuOTkwODgyODczNTM1MTYgTC05NC41ODEzNzUxMjIwNzAzMSAxMTkuOTkwODgyODczNTM1MTYiPjwvcGF0aD48cGF0aCBzdHlsZT0iIiBmaWxsPSJub25lIiBzdHJva2Utd2lkdGg9IjEuMyIgc3Ryb2tlPSIjOTk5IiBkPSJNLTk0LjU4MTM3NTEyMjA3MDMxIC0xMTkuOTkwODgyODczNTM1MTYgQy0zNS43OTI2NDEyNjY3NTExNiAtMTE5Ljk5MDg4Mjg3MzUzNTE2LCAyMi45OTYwOTI1ODg1Njc5OSAtMTE5Ljk5MDg4Mjg3MzUzNTE2LCA5NC41ODEzNzUxMjIwNzAzMSAtMTE5Ljk5MDg4Mjg3MzUzNTE2IE0tOTQuNTgxMzc1MTIyMDcwMzEgLTExOS45OTA4ODI4NzM1MzUxNiBDLTU1Ljc1Njk4MjczNTU1MzAzIC0xMTkuOTkwODgyODczNTM1MTYsIC0xNi45MzI1OTAzNDkwMzU3NSAtMTE5Ljk5MDg4Mjg3MzUzNTE2LCA5NC41ODEzNzUxMjIwNzAzMSAtMTE5Ljk5MDg4Mjg3MzUzNTE2IE05NC41ODEzNzUxMjIwNzAzMSAtMTE5Ljk5MDg4Mjg3MzUzNTE2IEM5NC41ODEzNzUxMjIwNzAzMSAtNTkuMDU2MTMxNjg5ODM5NjYsIDk0LjU4MTM3NTEyMjA3MDMxIDEuODc4NjE5NDkzODU1ODM2NywgOTQuNTgxMzc1MTIyMDcwMzEgMTE5Ljk5MDg4Mjg3MzUzNTE2IE05NC41ODEzNzUxMjIwNzAzMSAtMTE5Ljk5MDg4Mjg3MzUzNTE2IEM5NC41ODEzNzUxMjIwNzAzMSAtNTMuMjc2MDYxMjI4Mzg0NzIsIDk0LjU4MTM3NTEyMjA3MDMxIDEzLjQzODc2MDQxNjc2NTcxNywgOTQuNTgxMzc1MTIyMDcwMzEgMTE5Ljk5MDg4Mjg3MzUzNTE2IE05NC41ODEzNzUxMjIwNzAzMSAxMTkuOTkwODgyODczNTM1MTYgQzMxLjYxOTMyMjIzMjEyNzc4IDExOS45OTA4ODI4NzM1MzUxNiwgLTMxLjM0MjczMDY1NzgxNDc1NSAxMTkuOTkwODgyODczNTM1MTYsIC05NC41ODEzNzUxMjIwNzAzMSAxMTkuOTkwODgyODczNTM1MTYgTTk0LjU4MTM3NTEyMjA3MDMxIDExOS45OTA4ODI4NzM1MzUxNiBDNTYuMTQyNDYxNzIwODY5ODggMTE5Ljk5MDg4Mjg3MzUzNTE2LCAxNy43MDM1NDgzMTk2Njk0NSAxMTkuOTkwODgyODczNTM1MTYsIC05NC41ODEzNzUxMjIwNzAzMSAxMTkuOTkwODgyODczNTM1MTYgTS05NC41ODEzNzUxMjIwNzAzMSAxMTkuOTkwODgyODczNTM1MTYgQy05NC41ODEzNzUxMjIwNzAzMSAzNS4xMjMyNjcxMjI3NDI3NDYsIC05NC41ODEzNzUxMjIwNzAzMSAtNDkuNzQ0MzQ4NjI4MDQ5NjY0LCAtOTQuNTgxMzc1MTIyMDcwMzEgLTExOS45OTA4ODI4NzM1MzUxNiBNLTk0LjU4MTM3NTEyMjA3MDMxIDExOS45OTA4ODI4NzM1MzUxNiBDLTk0LjU4MTM3NTEyMjA3MDMxIDQwLjA5MjY4MDA0MTAyNzY1LCAtOTQuNTgxMzc1MTIyMDcwMzEgLTM5LjgwNTUyMjc5MTQ3OTg2LCAtOTQuNTgxMzc1MTIyMDcwMzEgLTExOS45OTA4ODI4NzM1MzUxNiI+PC9wYXRoPjwvZz48ZyB0cmFuc2Zvcm09InRyYW5zbGF0ZSgwLCAtOTUuOTkwODgyODczNTM1MTYpIiBjbGFzcz0iYW5ub3RhdGlvbi1ncm91cCB0ZXh0Ij48L2c+PGcgdHJhbnNmb3JtPSJ0cmFuc2xhdGUoLTMxLjU1NTk4ODMxMTc2NzU3OCwgLTk1Ljk5MDg4Mjg3MzUzNTE2KSIgY2xhc3M9ImxhYmVsLWdyb3VwIHRleHQiPjxnIHRyYW5zZm9ybT0idHJhbnNsYXRlKDAsLTExLjk5ODY5NzI4MDg4Mzc4OSkiIHN0eWxlPSJmb250LXdlaWdodDogYm9sZGVyIiBjbGFzcz0ibGFiZWwiPjxmb3JlaWduT2JqZWN0IGhlaWdodD0iMjMuOTk3Mzk0NTYxNzY3NTc4IiB3aWR0aD0iNjMuMTExOTc2NjIzNTM1MTU2Ij48ZGl2IHN0eWxlPSJkaXNwbGF5OiB0YWJsZS1jZWxsOyB3aGl0ZS1zcGFjZTogbm93cmFwOyBsaW5lLWhlaWdodDogMS41OyBtYXgtd2lkdGg6IDEwOXB4OyB0ZXh0LWFsaWduOiBjZW50ZXI7IiB4bWxucz0iaHR0cDovL3d3dy53My5vcmcvMTk5OS94aHRtbCI+PHNwYW4gc3R5bGU9IiIgY2xhc3M9Im5vZGVMYWJlbCBtYXJrZG93bi1ub2RlLWxhYmVsIj48cD5TZXJ2aWRvcjwvcD48L3NwYW4+PC9kaXY+PC9mb3JlaWduT2JqZWN0PjwvZz48L2c+PGcgdHJhbnNmb3JtPSJ0cmFuc2xhdGUoLTgyLjU4MTM3NTEyMjA3MDMxLCAtNDcuOTkzNDg4MzExNzY3NTgpIiBjbGFzcz0ibWVtYmVycy1ncm91cCB0ZXh0Ij48ZyB0cmFuc2Zvcm09InRyYW5zbGF0ZSgwLC0xMS45OTg2OTcyODA4ODM3ODkpIiBzdHlsZT0iIiBjbGFzcz0ibGFiZWwiPjxmb3JlaWduT2JqZWN0IGhlaWdodD0iMjMuOTk3Mzk0NTYxNzY3NTc4IiB3aWR0aD0iMTAwLjI3MzQ0NTEyOTM5NDUzIj48ZGl2IHN0eWxlPSJkaXNwbGF5OiB0YWJsZS1jZWxsOyB3aGl0ZS1zcGFjZTogbm93cmFwOyBsaW5lLWhlaWdodDogMS41OyBtYXgtd2lkdGg6IDE1NHB4OyB0ZXh0LWFsaWduOiBjZW50ZXI7IiB4bWxucz0iaHR0cDovL3d3dy53My5vcmcvMTk5OS94aHRtbCI+PHNwYW4gc3R5bGU9IiIgY2xhc3M9Im5vZGVMYWJlbCBtYXJrZG93bi1ub2RlLWxhYmVsIj48cD4tdXN1YXJpb3M6IExpc3Q8L3A+PC9zcGFuPjwvZGl2PjwvZm9yZWlnbk9iamVjdD48L2c+PGcgdHJhbnNmb3JtPSJ0cmFuc2xhdGUoMCwxMS45OTg2OTcyODA4ODM3ODkpIiBzdHlsZT0iIiBjbGFzcz0ibGFiZWwiPjxmb3JlaWduT2JqZWN0IGhlaWdodD0iMjMuOTk3Mzk0NTYxNzY3NTc4IiB3aWR0aD0iMTAzLjMzMzMyODI0NzA3MDMxIj48ZGl2IHN0eWxlPSJkaXNwbGF5OiB0YWJsZS1jZWxsOyB3aGl0ZS1zcGFjZTogbm93cmFwOyBsaW5lLWhlaWdodDogMS41OyBtYXgtd2lkdGg6IDE1NnB4OyB0ZXh0LWFsaWduOiBjZW50ZXI7IiB4bWxucz0iaHR0cDovL3d3dy53My5vcmcvMTk5OS94aHRtbCI+PHNwYW4gc3R5bGU9IiIgY2xhc3M9Im5vZGVMYWJlbCBtYXJrZG93bi1ub2RlLWxhYmVsIj48cD4tYWdlbmNpYXM6IExpc3Q8L3A+PC9zcGFuPjwvZGl2PjwvZm9yZWlnbk9iamVjdD48L2c+PC9nPjxnIHRyYW5zZm9ybT0idHJhbnNsYXRlKC04Mi41ODEzNzUxMjIwNzAzMSwgMjQuMDAxMzAwODExNzY3NTc4KSIgY2xhc3M9Im1ldGhvZHMtZ3JvdXAgdGV4dCI+PGcgdHJhbnNmb3JtPSJ0cmFuc2xhdGUoMCwtMTEuOTk4Njk3MjgwODgzNzg5KSIgc3R5bGU9IiIgY2xhc3M9ImxhYmVsIj48Zm9yZWlnbk9iamVjdCBoZWlnaHQ9IjIzLjk5NzM5NDU2MTc2NzU3OCIgd2lkdGg9IjEyMy44OTMyMjY2MjM1MzUxNiI+PGRpdiBzdHlsZT0iZGlzcGxheTogdGFibGUtY2VsbDsgd2hpdGUtc3BhY2U6IG5vd3JhcDsgbGluZS1oZWlnaHQ6IDEuNTsgbWF4LXdpZHRoOiAxODFweDsgdGV4dC1hbGlnbjogY2VudGVyOyIgeG1sbnM9Imh0dHA6Ly93d3cudzMub3JnLzE5OTkveGh0bWwiPjxzcGFuIHN0eWxlPSIiIGNsYXNzPSJub2RlTGFiZWwgbWFya2Rvd24tbm9kZS1sYWJlbCI+PHA+K2J1c2Nhck5vdGljaWFzKCk8L3A+PC9zcGFuPjwvZGl2PjwvZm9yZWlnbk9iamVjdD48L2c+PGcgdHJhbnNmb3JtPSJ0cmFuc2xhdGUoMCwxMS45OTg2OTcyODA4ODM3ODkpIiBzdHlsZT0iIiBjbGFzcz0ibGFiZWwiPjxmb3JlaWduT2JqZWN0IGhlaWdodD0iMjMuOTk3Mzk0NTYxNzY3NTc4IiB3aWR0aD0iMTIwLjY1MTAzOTEyMzUzNTE2Ij48ZGl2IHN0eWxlPSJkaXNwbGF5OiB0YWJsZS1jZWxsOyB3aGl0ZS1zcGFjZTogbm93cmFwOyBsaW5lLWhlaWdodDogMS41OyBtYXgtd2lkdGg6IDE3NHB4OyB0ZXh0LWFsaWduOiBjZW50ZXI7IiB4bWxucz0iaHR0cDovL3d3dy53My5vcmcvMTk5OS94aHRtbCI+PHNwYW4gc3R5bGU9IiIgY2xhc3M9Im5vZGVMYWJlbCBtYXJrZG93bi1ub2RlLWxhYmVsIj48cD4rcmVtaXRpck5vdGljaWEoKTwvcD48L3NwYW4+PC9kaXY+PC9mb3JlaWduT2JqZWN0PjwvZz48ZyB0cmFuc2Zvcm09InRyYW5zbGF0ZSgwLDM1Ljk5NjA5MTg0MjY1MTM3KSIgc3R5bGU9IiIgY2xhc3M9ImxhYmVsIj48Zm9yZWlnbk9iamVjdCBoZWlnaHQ9IjIzLjk5NzM5NDU2MTc2NzU3OCIgd2lkdGg9IjEzMy42MDY3NjU3NDcwNzAzIj48ZGl2IHN0eWxlPSJkaXNwbGF5OiB0YWJsZS1jZWxsOyB3aGl0ZS1zcGFjZTogbm93cmFwOyBsaW5lLWhlaWdodDogMS41OyBtYXgtd2lkdGg6IDE5MHB4OyB0ZXh0LWFsaWduOiBjZW50ZXI7IiB4bWxucz0iaHR0cDovL3d3dy53My5vcmcvMTk5OS94aHRtbCI+PHNwYW4gc3R5bGU9IiIgY2xhc3M9Im5vZGVMYWJlbCBtYXJrZG93bi1ub2RlLWxhYmVsIj48cD4rc3VzY3JpYmlyVXN1YXJpbygpPC9wPjwvc3Bhbj48L2Rpdj48L2ZvcmVpZ25PYmplY3Q+PC9nPjxnIHRyYW5zZm9ybT0idHJhbnNsYXRlKDAsNTkuOTkzNDg2NDA0NDE4OTQ1KSIgc3R5bGU9IiIgY2xhc3M9ImxhYmVsIj48Zm9yZWlnbk9iamVjdCBoZWlnaHQ9IjIzLjk5NzM5NDU2MTc2NzU3OCIgd2lkdGg9IjEzMi43MzQzNzUiPjxkaXYgc3R5bGU9ImRpc3BsYXk6IHRhYmxlLWNlbGw7IHdoaXRlLXNwYWNlOiBub3dyYXA7IGxpbmUtaGVpZ2h0OiAxLjU7IG1heC13aWR0aDogMTg4cHg7IHRleHQtYWxpZ246IGNlbnRlcjsiIHhtbG5zPSJodHRwOi8vd3d3LnczLm9yZy8xOTk5L3hodG1sIj48c3BhbiBzdHlsZT0iIiBjbGFzcz0ibm9kZUxhYmVsIG1hcmtkb3duLW5vZGUtbGFiZWwiPjxwPitlbGltaW5hclVzdWFyaW8oKTwvcD48L3NwYW4+PC9kaXY+PC9mb3JlaWduT2JqZWN0PjwvZz48L2c+PGcgc3R5bGU9IiIgY2xhc3M9ImRpdmlkZXIiPjxwYXRoIHN0eWxlPSIiIGZpbGw9Im5vbmUiIHN0cm9rZS13aWR0aD0iMS4zIiBzdHJva2U9IiM5OTkiIGQ9Ik0tOTQuNTgxMzc1MTIyMDcwMzEgLTcxLjk5MzQ4ODMxMTc2NzU4IEMtNDcuODA0NjE0MjAxMTcwMjQgLTcxLjk5MzQ4ODMxMTc2NzU4LCAtMS4wMjc4NTMyODAyNzAxNjQ4IC03MS45OTM0ODgzMTE3Njc1OCwgOTQuNTgxMzc1MTIyMDcwMzEgLTcxLjk5MzQ4ODMxMTc2NzU4IE0tOTQuNTgxMzc1MTIyMDcwMzEgLTcxLjk5MzQ4ODMxMTc2NzU4IEMtMzUuMzU5MDk2NjA0MTU0NjY1IC03MS45OTM0ODgzMTE3Njc1OCwgMjMuODYzMTgxOTEzNzYwOTgyIC03MS45OTM0ODgzMTE3Njc1OCwgOTQuNTgxMzc1MTIyMDcwMzEgLTcxLjk5MzQ4ODMxMTc2NzU4Ij48L3BhdGg+PC9nPjxnIHN0eWxlPSIiIGNsYXNzPSJkaXZpZGVyIj48cGF0aCBzdHlsZT0iIiBmaWxsPSJub25lIiBzdHJva2Utd2lkdGg9IjEuMyIgc3Ryb2tlPSIjOTk5IiBkPSJNLTk0LjU4MTM3NTEyMjA3MDMxIDAuMDAxMzAwODExNzY3NTc4MTI1IEMtNTUuNzk3NDIwNzg5MzUzNjQ0IDAuMDAxMzAwODExNzY3NTc4MTI1LCAtMTcuMDEzNDY2NDU2NjM2OTc2IDAuMDAxMzAwODExNzY3NTc4MTI1LCA5NC41ODEzNzUxMjIwNzAzMSAwLjAwMTMwMDgxMTc2NzU3ODEyNSBNLTk0LjU4MTM3NTEyMjA3MDMxIDAuMDAxMzAwODExNzY3NTc4MTI1IEMtMzAuODA1MDMwNjAwMDU5NjYgMC4wMDEzMDA4MTE3Njc1NzgxMjUsIDMyLjk3MTMxMzkyMTk1MDk5NCAwLjAwMTMwMDgxMTc2NzU3ODEyNSwgOTQuNTgxMzc1MTIyMDcwMzEgMC4wMDEzMDA4MTE3Njc1NzgxMjUiPjwvcGF0aD48L2c+PC9nPjxnIHRyYW5zZm9ybT0idHJhbnNsYXRlKDk5LjU1NDAzOTAwMTQ2NDg0LCA0MTcuOTcyNjQ4NjIwNjA1NDcpIiBpZD0iY2xhc3NJZC1BZ2VuY2lhLTY5IiBjbGFzcz0ibm9kZSBkZWZhdWx0Ij48ZyBjbGFzcz0iYmFzaWMgbGFiZWwtY29udGFpbmVyIj48cGF0aCBzdHlsZT0iIiBmaWxsPSIjZWVlIiBzdHJva2Utd2lkdGg9IjAiIHN0cm9rZT0ibm9uZSIgZD0iTS05MS41NTQwMzkwMDE0NjQ4NCAtOTUuOTkzNDkyMTI2NDY0ODQgTDkxLjU1NDAzOTAwMTQ2NDg0IC05NS45OTM0OTIxMjY0NjQ4NCBMOTEuNTU0MDM5MDAxNDY0ODQgOTUuOTkzNDkyMTI2NDY0ODQgTC05MS41NTQwMzkwMDE0NjQ4NCA5NS45OTM0OTIxMjY0NjQ4NCI+PC9wYXRoPjxwYXRoIHN0eWxlPSIiIGZpbGw9Im5vbmUiIHN0cm9rZS13aWR0aD0iMS4zIiBzdHJva2U9IiM5OTkiIGQ9Ik0tOTEuNTU0MDM5MDAxNDY0ODQgLTk1Ljk5MzQ5MjEyNjQ2NDg0IEMtMjYuNTQxNjA2OTAzNTUxMjgzIC05NS45OTM0OTIxMjY0NjQ4NCwgMzguNDcwODI1MTk0MzYyMjggLTk1Ljk5MzQ5MjEyNjQ2NDg0LCA5MS41NTQwMzkwMDE0NjQ4NCAtOTUuOTkzNDkyMTI2NDY0ODQgTS05MS41NTQwMzkwMDE0NjQ4NCAtOTUuOTkzNDkyMTI2NDY0ODQgQy0zNC4zNjQ2ODIzNTA4NjY2NSAtOTUuOTkzNDkyMTI2NDY0ODQsIDIyLjgyNDY3NDI5OTczMTU0IC05NS45OTM0OTIxMjY0NjQ4NCwgOTEuNTU0MDM5MDAxNDY0ODQgLTk1Ljk5MzQ5MjEyNjQ2NDg0IE05MS41NTQwMzkwMDE0NjQ4NCAtOTUuOTkzNDkyMTI2NDY0ODQgQzkxLjU1NDAzOTAwMTQ2NDg0IC00NS41MDUxMzA5Mjk1NjM4OCwgOTEuNTU0MDM5MDAxNDY0ODQgNC45ODMyMzAyNjczMzcwNzgsIDkxLjU1NDAzOTAwMTQ2NDg0IDk1Ljk5MzQ5MjEyNjQ2NDg0IE05MS41NTQwMzkwMDE0NjQ4NCAtOTUuOTkzNDkyMTI2NDY0ODQgQzkxLjU1NDAzOTAwMTQ2NDg0IC01MS4zMjIxODYzNjE1NTI3LCA5MS41NTQwMzkwMDE0NjQ4NCAtNi42NTA4ODA1OTY2NDA1NjIsIDkxLjU1NDAzOTAwMTQ2NDg0IDk1Ljk5MzQ5MjEyNjQ2NDg0IE05MS41NTQwMzkwMDE0NjQ4NCA5NS45OTM0OTIxMjY0NjQ4NCBDNDkuMjM4MDA5NDI5NTc3NTIgOTUuOTkzNDkyMTI2NDY0ODQsIDYuOTIxOTc5ODU3NjkwMTg5IDk1Ljk5MzQ5MjEyNjQ2NDg0LCAtOTEuNTU0MDM5MDAxNDY0ODQgOTUuOTkzNDkyMTI2NDY0ODQgTTkxLjU1NDAzOTAwMTQ2NDg0IDk1Ljk5MzQ5MjEyNjQ2NDg0IEM0My4xMzE5MzkwNjM5NTUxNSA5NS45OTM0OTIxMjY0NjQ4NCwgLTUuMjkwMTYwODczNTU0NTQxIDk1Ljk5MzQ5MjEyNjQ2NDg0LCAtOTEuNTU0MDM5MDAxNDY0ODQgOTUuOTkzNDkyMTI2NDY0ODQgTS05MS41NTQwMzkwMDE0NjQ4NCA5NS45OTM0OTIxMjY0NjQ4NCBDLTkxLjU1NDAzOTAwMTQ2NDg0IDUxLjg3OTQ3MDA2OTczMTksIC05MS41NTQwMzkwMDE0NjQ4NCA3Ljc2NTQ0ODAxMjk5ODk1OSwgLTkxLjU1NDAzOTAwMTQ2NDg0IC05NS45OTM0OTIxMjY0NjQ4NCBNLTkxLjU1NDAzOTAwMTQ2NDg0IDk1Ljk5MzQ5MjEyNjQ2NDg0IEMtOTEuNTU0MDM5MDAxNDY0ODQgNDcuODIyMTMwNTY3MTY5MjQ2LCAtOTEuNTU0MDM5MDAxNDY0ODQgLTAuMzQ5MjMwOTkyMTI2MzUxMiwgLTkxLjU1NDAzOTAwMTQ2NDg0IC05NS45OTM0OTIxMjY0NjQ4NCI+PC9wYXRoPjwvZz48ZyB0cmFuc2Zvcm09InRyYW5zbGF0ZSgwLCAtNzEuOTkzNDkyMTI2NDY0ODQpIiBjbGFzcz0iYW5ub3RhdGlvbi1ncm91cCB0ZXh0Ij48L2c+PGcgdHJhbnNmb3JtPSJ0cmFuc2xhdGUoLTI5LjE0NzEzNDc4MDg4Mzc5LCAtNzEuOTkzNDkyMTI2NDY0ODQpIiBjbGFzcz0ibGFiZWwtZ3JvdXAgdGV4dCI+PGcgdHJhbnNmb3JtPSJ0cmFuc2xhdGUoMCwtMTEuOTk4Njk3MjgwODgzNzg5KSIgc3R5bGU9ImZvbnQtd2VpZ2h0OiBib2xkZXIiIGNsYXNzPSJsYWJlbCI+PGZvcmVpZ25PYmplY3QgaGVpZ2h0PSIyMy45OTczOTQ1NjE3Njc1NzgiIHdpZHRoPSI1OC4yOTQyNjk1NjE3Njc1OCI+PGRpdiBzdHlsZT0iZGlzcGxheTogdGFibGUtY2VsbDsgd2hpdGUtc3BhY2U6IG5vd3JhcDsgbGluZS1oZWlnaHQ6IDEuNTsgbWF4LXdpZHRoOiAxMDdweDsgdGV4dC1hbGlnbjogY2VudGVyOyIgeG1sbnM9Imh0dHA6Ly93d3cudzMub3JnLzE5OTkveGh0bWwiPjxzcGFuIHN0eWxlPSIiIGNsYXNzPSJub2RlTGFiZWwgbWFya2Rvd24tbm9kZS1sYWJlbCI+PHA+QWdlbmNpYTwvcD48L3NwYW4+PC9kaXY+PC9mb3JlaWduT2JqZWN0PjwvZz48L2c+PGcgdHJhbnNmb3JtPSJ0cmFuc2xhdGUoLTc5LjU1NDAzOTAwMTQ2NDg0LCAtMjMuOTk2MDk3NTY0Njk3MjY2KSIgY2xhc3M9Im1lbWJlcnMtZ3JvdXAgdGV4dCI+PGcgdHJhbnNmb3JtPSJ0cmFuc2xhdGUoMCwtMTEuOTk4Njk3MjgwODgzNzg5KSIgc3R5bGU9IiIgY2xhc3M9ImxhYmVsIj48Zm9yZWlnbk9iamVjdCBoZWlnaHQ9IjIzLjk5NzM5NDU2MTc2NzU3OCIgd2lkdGg9Ijk3LjY1NjI1NzYyOTM5NDUzIj48ZGl2IHN0eWxlPSJkaXNwbGF5OiB0YWJsZS1jZWxsOyB3aGl0ZS1zcGFjZTogbm93cmFwOyBsaW5lLWhlaWdodDogMS41OyBtYXgtd2lkdGg6IDE0OXB4OyB0ZXh0LWFsaWduOiBjZW50ZXI7IiB4bWxucz0iaHR0cDovL3d3dy53My5vcmcvMTk5OS94aHRtbCI+PHNwYW4gc3R5bGU9IiIgY2xhc3M9Im5vZGVMYWJlbCBtYXJrZG93bi1ub2RlLWxhYmVsIj48cD4tbm90aWNpYXM6IExpc3Q8L3A+PC9zcGFuPjwvZGl2PjwvZm9yZWlnbk9iamVjdD48L2c+PC9nPjxnIHRyYW5zZm9ybT0idHJhbnNsYXRlKC03OS41NTQwMzkwMDE0NjQ4NCwgMjQuMDAxMjk2OTk3MDcwMzEyKSIgY2xhc3M9Im1ldGhvZHMtZ3JvdXAgdGV4dCI+PGcgdHJhbnNmb3JtPSJ0cmFuc2xhdGUoMCwtMTEuOTk4Njk3MjgwODgzNzg5KSIgc3R5bGU9IiIgY2xhc3M9ImxhYmVsIj48Zm9yZWlnbk9iamVjdCBoZWlnaHQ9IjIzLjk5NzM5NDU2MTc2NzU3OCIgd2lkdGg9IjEyNC43Nzg2NDA3NDcwNzAzMSI+PGRpdiBzdHlsZT0iZGlzcGxheTogdGFibGUtY2VsbDsgd2hpdGUtc3BhY2U6IG5vd3JhcDsgbGluZS1oZWlnaHQ6IDEuNTsgbWF4LXdpZHRoOiAxODJweDsgdGV4dC1hbGlnbjogY2VudGVyOyIgeG1sbnM9Imh0dHA6Ly93d3cudzMub3JnLzE5OTkveGh0bWwiPjxzcGFuIHN0eWxlPSIiIGNsYXNzPSJub2RlTGFiZWwgbWFya2Rvd24tbm9kZS1sYWJlbCI+PHA+K2FncmVnYXJOb3RpY2lhKCk8L3A+PC9zcGFuPjwvZGl2PjwvZm9yZWlnbk9iamVjdD48L2c+PGcgdHJhbnNmb3JtPSJ0cmFuc2xhdGUoMCwxMS45OTg2OTcyODA4ODM3ODkpIiBzdHlsZT0iIiBjbGFzcz0ibGFiZWwiPjxmb3JlaWduT2JqZWN0IGhlaWdodD0iMjMuOTk3Mzk0NTYxNzY3NTc4IiB3aWR0aD0iMTI5Ljk2MDkzNzUiPjxkaXYgc3R5bGU9ImRpc3BsYXk6IHRhYmxlLWNlbGw7IHdoaXRlLXNwYWNlOiBub3dyYXA7IGxpbmUtaGVpZ2h0OiAxLjU7IG1heC13aWR0aDogMTg0cHg7IHRleHQtYWxpZ246IGNlbnRlcjsiIHhtbG5zPSJodHRwOi8vd3d3LnczLm9yZy8xOTk5L3hodG1sIj48c3BhbiBzdHlsZT0iIiBjbGFzcz0ibm9kZUxhYmVsIG1hcmtkb3duLW5vZGUtbGFiZWwiPjxwPitlbGltaW5hck5vdGljaWEoKTwvcD48L3NwYW4+PC9kaXY+PC9mb3JlaWduT2JqZWN0PjwvZz48ZyB0cmFuc2Zvcm09InRyYW5zbGF0ZSgwLDM1Ljk5NjA5MTg0MjY1MTM3KSIgc3R5bGU9IiIgY2xhc3M9ImxhYmVsIj48Zm9yZWlnbk9iamVjdCBoZWlnaHQ9IjIzLjk5NzM5NDU2MTc2NzU3OCIgd2lkdGg9IjExNy40MjE4NzUiPjxkaXYgc3R5bGU9ImRpc3BsYXk6IHRhYmxlLWNlbGw7IHdoaXRlLXNwYWNlOiBub3dyYXA7IGxpbmUtaGVpZ2h0OiAxLjU7IG1heC13aWR0aDogMTc0cHg7IHRleHQtYWxpZ246IGNlbnRlcjsiIHhtbG5zPSJodHRwOi8vd3d3LnczLm9yZy8xOTk5L3hodG1sIj48c3BhbiBzdHlsZT0iIiBjbGFzcz0ibm9kZUxhYmVsIG1hcmtkb3duLW5vZGUtbGFiZWwiPjxwPitidXNjYXJOb3RpY2lhKCk8L3A+PC9zcGFuPjwvZGl2PjwvZm9yZWlnbk9iamVjdD48L2c+PC9nPjxnIHN0eWxlPSIiIGNsYXNzPSJkaXZpZGVyIj48cGF0aCBzdHlsZT0iIiBmaWxsPSJub25lIiBzdHJva2Utd2lkdGg9IjEuMyIgc3Ryb2tlPSIjOTk5IiBkPSJNLTkxLjU1NDAzOTAwMTQ2NDg0IC00Ny45OTYwOTc1NjQ2OTcyNjYgQy0zNS4yMTYyMjU5ODQ0OTQzMyAtNDcuOTk2MDk3NTY0Njk3MjY2LCAyMS4xMjE1ODcwMzI0NzYxODUgLTQ3Ljk5NjA5NzU2NDY5NzI2NiwgOTEuNTU0MDM5MDAxNDY0ODQgLTQ3Ljk5NjA5NzU2NDY5NzI2NiBNLTkxLjU1NDAzOTAwMTQ2NDg0IC00Ny45OTYwOTc1NjQ2OTcyNjYgQy0yNS43NDcyNDU2MzY2NDk5OTMgLTQ3Ljk5NjA5NzU2NDY5NzI2NiwgNDAuMDU5NTQ3NzI4MTY0ODYgLTQ3Ljk5NjA5NzU2NDY5NzI2NiwgOTEuNTU0MDM5MDAxNDY0ODQgLTQ3Ljk5NjA5NzU2NDY5NzI2NiI+PC9wYXRoPjwvZz48ZyBzdHlsZT0iIiBjbGFzcz0iZGl2aWRlciI+PHBhdGggc3R5bGU9IiIgZmlsbD0ibm9uZSIgc3Ryb2tlLXdpZHRoPSIxLjMiIHN0cm9rZT0iIzk5OSIgZD0iTS05MS41NTQwMzkwMDE0NjQ4NCAwLjAwMTI5Njk5NzA3MDMxMjUgQy0yNC4yODI4Njc4NzAzMTg3NjggMC4wMDEyOTY5OTcwNzAzMTI1LCA0Mi45ODgzMDMyNjA4MjczMSAwLjAwMTI5Njk5NzA3MDMxMjUsIDkxLjU1NDAzOTAwMTQ2NDg0IDAuMDAxMjk2OTk3MDcwMzEyNSBNLTkxLjU1NDAzOTAwMTQ2NDg0IDAuMDAxMjk2OTk3MDcwMzEyNSBDLTMzLjAxNTI4MTY0MzI5Njg2NiAwLjAwMTI5Njk5NzA3MDMxMjUsIDI1LjUyMzQ3NTcxNDg3MTExIDAuMDAxMjk2OTk3MDcwMzEyNSwgOTEuNTU0MDM5MDAxNDY0ODQgMC4wMDEyOTY5OTcwNzAzMTI1Ij48L3BhdGg+PC9nPjwvZz48ZyB0cmFuc2Zvcm09InRyYW5zbGF0ZSgyMzYuMzY2ODcwODgwMTI2OTUsIDc3OC4yODI1MzU1NTI5Nzg1KSIgaWQ9ImNsYXNzSWQtTm90aWNpYS03MCIgY2xhc3M9Im5vZGUgZGVmYXVsdCI+PGcgY2xhc3M9ImJhc2ljIGxhYmVsLWNvbnRhaW5lciI+PHBhdGggc3R5bGU9IiIgZmlsbD0iI2VlZSIgc3Ryb2tlLXdpZHRoPSIwIiBzdHJva2U9Im5vbmUiIGQ9Ik0tOTkuNDg2OTc2NjIzNTM1MTYgLTE2Ny45ODU2NzE5OTcwNzAzIEw5OS40ODY5NzY2MjM1MzUxNiAtMTY3Ljk4NTY3MTk5NzA3MDMgTDk5LjQ4Njk3NjYyMzUzNTE2IDE2Ny45ODU2NzE5OTcwNzAzIEwtOTkuNDg2OTc2NjIzNTM1MTYgMTY3Ljk4NTY3MTk5NzA3MDMiPjwvcGF0aD48cGF0aCBzdHlsZT0iIiBmaWxsPSJub25lIiBzdHJva2Utd2lkdGg9IjEuMyIgc3Ryb2tlPSIjOTk5IiBkPSJNLTk5LjQ4Njk3NjYyMzUzNTE2IC0xNjcuOTg1NjcxOTk3MDcwMyBDLTM5LjQzOTI4OTYzNjM2MDA1IC0xNjcuOTg1NjcxOTk3MDcwMywgMjAuNjA4Mzk3MzUwODE1MDU0IC0xNjcuOTg1NjcxOTk3MDcwMywgOTkuNDg2OTc2NjIzNTM1MTYgLTE2Ny45ODU2NzE5OTcwNzAzIE0tOTkuNDg2OTc2NjIzNTM1MTYgLTE2Ny45ODU2NzE5OTcwNzAzIEMtNDAuOTMyNTE5MDczMDg5OSAtMTY3Ljk4NTY3MTk5NzA3MDMsIDE3LjYyMTkzODQ3NzM1NTM1NyAtMTY3Ljk4NTY3MTk5NzA3MDMsIDk5LjQ4Njk3NjYyMzUzNTE2IC0xNjcuOTg1NjcxOTk3MDcwMyBNOTkuNDg2OTc2NjIzNTM1MTYgLTE2Ny45ODU2NzE5OTcwNzAzIEM5OS40ODY5NzY2MjM1MzUxNiAtNDYuODgwMzQ5ODk1ODUwNDE1LCA5OS40ODY5NzY2MjM1MzUxNiA3NC4yMjQ5NzIyMDUzNjk0OCwgOTkuNDg2OTc2NjIzNTM1MTYgMTY3Ljk4NTY3MTk5NzA3MDMgTTk5LjQ4Njk3NjYyMzUzNTE2IC0xNjcuOTg1NjcxOTk3MDcwMyBDOTkuNDg2OTc2NjIzNTM1MTYgLTk5LjA4MDQ3MzY4ODM3ODk2LCA5OS40ODY5NzY2MjM1MzUxNiAtMzAuMTc1Mjc1Mzc5Njg3NjA1LCA5OS40ODY5NzY2MjM1MzUxNiAxNjcuOTg1NjcxOTk3MDcwMyBNOTkuNDg2OTc2NjIzNTM1MTYgMTY3Ljk4NTY3MTk5NzA3MDMgQzQzLjY4MDY4OTk5MTQwMTQxIDE2Ny45ODU2NzE5OTcwNzAzLCAtMTIuMTI1NTk2NjQwNzMyMzQgMTY3Ljk4NTY3MTk5NzA3MDMsIC05OS40ODY5NzY2MjM1MzUxNiAxNjcuOTg1NjcxOTk3MDcwMyBNOTkuNDg2OTc2NjIzNTM1MTYgMTY3Ljk4NTY3MTk5NzA3MDMgQzU0LjkzNzg0MjY3NTg1NDM4NCAxNjcuOTg1NjcxOTk3MDcwMywgMTAuMzg4NzA4NzI4MTczNjExIDE2Ny45ODU2NzE5OTcwNzAzLCAtOTkuNDg2OTc2NjIzNTM1MTYgMTY3Ljk4NTY3MTk5NzA3MDMgTS05OS40ODY5NzY2MjM1MzUxNiAxNjcuOTg1NjcxOTk3MDcwMyBDLTk5LjQ4Njk3NjYyMzUzNTE2IDczLjMzMTQzMDE2MzEzNjc3LCAtOTkuNDg2OTc2NjIzNTM1MTYgLTIxLjMyMjgxMTY3MDc5Njc2NywgLTk5LjQ4Njk3NjYyMzUzNTE2IC0xNjcuOTg1NjcxOTk3MDcwMyBNLTk5LjQ4Njk3NjYyMzUzNTE2IDE2Ny45ODU2NzE5OTcwNzAzIEMtOTkuNDg2OTc2NjIzNTM1MTYgNTYuNjMwMjY5MDYwMTYyOTYsIC05OS40ODY5NzY2MjM1MzUxNiAtNTQuNzI1MTMzODc2NzQ0Mzk0LCAtOTkuNDg2OTc2NjIzNTM1MTYgLTE2Ny45ODU2NzE5OTcwNzAzIj48L3BhdGg+PC9nPjxnIHRyYW5zZm9ybT0idHJhbnNsYXRlKDAsIC0xNDMuOTg1NjcxOTk3MDcwMykiIGNsYXNzPSJhbm5vdGF0aW9uLWdyb3VwIHRleHQiPjwvZz48ZyB0cmFuc2Zvcm09InRyYW5zbGF0ZSgtMjYuMTcxODc2OTA3MzQ4NjMzLCAtMTQzLjk4NTY3MTk5NzA3MDMpIiBjbGFzcz0ibGFiZWwtZ3JvdXAgdGV4dCI+PGcgdHJhbnNmb3JtPSJ0cmFuc2xhdGUoMCwtMTEuOTk4Njk3MjgwODgzNzg5KSIgc3R5bGU9ImZvbnQtd2VpZ2h0OiBib2xkZXIiIGNsYXNzPSJsYWJlbCI+PGZvcmVpZ25PYmplY3QgaGVpZ2h0PSIyMy45OTczOTQ1NjE3Njc1NzgiIHdpZHRoPSI1Mi4zNDM3NTM4MTQ2OTcyNjYiPjxkaXYgc3R5bGU9ImRpc3BsYXk6IHRhYmxlLWNlbGw7IHdoaXRlLXNwYWNlOiBub3dyYXA7IGxpbmUtaGVpZ2h0OiAxLjU7IG1heC13aWR0aDogMTAwcHg7IHRleHQtYWxpZ246IGNlbnRlcjsiIHhtbG5zPSJodHRwOi8vd3d3LnczLm9yZy8xOTk5L3hodG1sIj48c3BhbiBzdHlsZT0iIiBjbGFzcz0ibm9kZUxhYmVsIG1hcmtkb3duLW5vZGUtbGFiZWwiPjxwPk5vdGljaWE8L3A+PC9zcGFuPjwvZGl2PjwvZm9yZWlnbk9iamVjdD48L2c+PC9nPjxnIHRyYW5zZm9ybT0idHJhbnNsYXRlKC04Ny40ODY5NzY2MjM1MzUxNiwgLTk1Ljk4ODI3NzQzNTMwMjczKSIgY2xhc3M9Im1lbWJlcnMtZ3JvdXAgdGV4dCI+PGcgdHJhbnNmb3JtPSJ0cmFuc2xhdGUoMCwtMTEuOTk4Njk3MjgwODgzNzg5KSIgc3R5bGU9IiIgY2xhc3M9ImxhYmVsIj48Zm9yZWlnbk9iamVjdCBoZWlnaHQ9IjIzLjk5NzM5NDU2MTc2NzU3OCIgd2lkdGg9Ijk3LjQ2MDk0NTEyOTM5NDUzIj48ZGl2IHN0eWxlPSJkaXNwbGF5OiB0YWJsZS1jZWxsOyB3aGl0ZS1zcGFjZTogbm93cmFwOyBsaW5lLWhlaWdodDogMS41OyBtYXgtd2lkdGg6IDE0OXB4OyB0ZXh0LWFsaWduOiBjZW50ZXI7IiB4bWxucz0iaHR0cDovL3d3dy53My5vcmcvMTk5OS94aHRtbCI+PHNwYW4gc3R5bGU9IiIgY2xhc3M9Im5vZGVMYWJlbCBtYXJrZG93bi1ub2RlLWxhYmVsIj48cD4tdGl0dWxvOiBTdHJpbmc8L3A+PC9zcGFuPjwvZGl2PjwvZm9yZWlnbk9iamVjdD48L2c+PGcgdHJhbnNmb3JtPSJ0cmFuc2xhdGUoMCwxMS45OTg2OTcyODA4ODM3ODkpIiBzdHlsZT0iIiBjbGFzcz0ibGFiZWwiPjxmb3JlaWduT2JqZWN0IGhlaWdodD0iMjMuOTk3Mzk0NTYxNzY3NTc4IiB3aWR0aD0iMTQ1Ljk2MzUzMTQ5NDE0MDYyIj48ZGl2IHN0eWxlPSJkaXNwbGF5OiB0YWJsZS1jZWxsOyB3aGl0ZS1zcGFjZTogbm93cmFwOyBsaW5lLWhlaWdodDogMS41OyBtYXgtd2lkdGg6IDE5NXB4OyB0ZXh0LWFsaWduOiBjZW50ZXI7IiB4bWxucz0iaHR0cDovL3d3dy53My5vcmcvMTk5OS94aHRtbCI+PHNwYW4gc3R5bGU9IiIgY2xhc3M9Im5vZGVMYWJlbCBtYXJrZG93bi1ub2RlLWxhYmVsIj48cD4tY2xhc2lmaWNhY2lvbmVzOiBMaXN0PC9wPjwvc3Bhbj48L2Rpdj48L2ZvcmVpZ25PYmplY3Q+PC9nPjxnIHRyYW5zZm9ybT0idHJhbnNsYXRlKDAsMzUuOTk2MDkxODQyNjUxMzcpIiBzdHlsZT0iIiBjbGFzcz0ibGFiZWwiPjxmb3JlaWduT2JqZWN0IGhlaWdodD0iMjMuOTk3Mzk0NTYxNzY3NTc4IiB3aWR0aD0iMTE2LjQ0NTMxMjUiPjxkaXYgc3R5bGU9ImRpc3BsYXk6IHRhYmxlLWNlbGw7IHdoaXRlLXNwYWNlOiBub3dyYXA7IGxpbmUtaGVpZ2h0OiAxLjU7IG1heC13aWR0aDogMTcycHg7IHRleHQtYWxpZ246IGNlbnRlcjsiIHhtbG5zPSJodHRwOi8vd3d3LnczLm9yZy8xOTk5L3hodG1sIj48c3BhbiBzdHlsZT0iIiBjbGFzcz0ibm9kZUxhYmVsIG1hcmtkb3duLW5vZGUtbGFiZWwiPjxwPi1jdWVycG86IEN1ZXJwbzwvcD48L3NwYW4+PC9kaXY+PC9mb3JlaWduT2JqZWN0PjwvZz48L2c+PGcgdHJhbnNmb3JtPSJ0cmFuc2xhdGUoLTg3LjQ4Njk3NjYyMzUzNTE2LCAwLjAwMzkxMDA2NDY5NzI2NTYyNSkiIGNsYXNzPSJtZXRob2RzLWdyb3VwIHRleHQiPjxnIHRyYW5zZm9ybT0idHJhbnNsYXRlKDAsLTExLjk5ODY5NzI4MDg4Mzc4OSkiIHN0eWxlPSIiIGNsYXNzPSJsYWJlbCI+PGZvcmVpZ25PYmplY3QgaGVpZ2h0PSIyMy45OTczOTQ1NjE3Njc1NzgiIHdpZHRoPSIxMTMuOTA2MjUiPjxkaXYgc3R5bGU9ImRpc3BsYXk6IHRhYmxlLWNlbGw7IHdoaXRlLXNwYWNlOiBub3dyYXA7IGxpbmUtaGVpZ2h0OiAxLjU7IG1heC13aWR0aDogMTY4cHg7IHRleHQtYWxpZ246IGNlbnRlcjsiIHhtbG5zPSJodHRwOi8vd3d3LnczLm9yZy8xOTk5L3hodG1sIj48c3BhbiBzdHlsZT0iIiBjbGFzcz0ibm9kZUxhYmVsIG1hcmtkb3duLW5vZGUtbGFiZWwiPjxwPitlZGl0YXJOb3RpY2lhKCk8L3A+PC9zcGFuPjwvZGl2PjwvZm9yZWlnbk9iamVjdD48L2c+PGcgdHJhbnNmb3JtPSJ0cmFuc2xhdGUoMCwxMS45OTg2OTcyODA4ODM3ODkpIiBzdHlsZT0iIiBjbGFzcz0ibGFiZWwiPjxmb3JlaWduT2JqZWN0IGhlaWdodD0iMjMuOTk3Mzk0NTYxNzY3NTc4IiB3aWR0aD0iODQuODMwNzI2NjIzNTM1MTYiPjxkaXYgc3R5bGU9ImRpc3BsYXk6IHRhYmxlLWNlbGw7IHdoaXRlLXNwYWNlOiBub3dyYXA7IGxpbmUtaGVpZ2h0OiAxLjU7IG1heC13aWR0aDogMTQxcHg7IHRleHQtYWxpZ246IGNlbnRlcjsiIHhtbG5zPSJodHRwOi8vd3d3LnczLm9yZy8xOTk5L3hodG1sIj48c3BhbiBzdHlsZT0iIiBjbGFzcz0ibm9kZUxhYmVsIG1hcmtkb3duLW5vZGUtbGFiZWwiPjxwPitnZXRUaXR1bG8oKTwvcD48L3NwYW4+PC9kaXY+PC9mb3JlaWduT2JqZWN0PjwvZz48ZyB0cmFuc2Zvcm09InRyYW5zbGF0ZSgwLDM1Ljk5NjA5MTg0MjY1MTM3KSIgc3R5bGU9IiIgY2xhc3M9ImxhYmVsIj48Zm9yZWlnbk9iamVjdCBoZWlnaHQ9IjIzLjk5NzM5NDU2MTc2NzU3OCIgd2lkdGg9IjE0OC44MDIwNzgyNDcwNzAzIj48ZGl2IHN0eWxlPSJkaXNwbGF5OiB0YWJsZS1jZWxsOyB3aGl0ZS1zcGFjZTogbm93cmFwOyBsaW5lLWhlaWdodDogMS41OyBtYXgtd2lkdGg6IDIwM3B4OyB0ZXh0LWFsaWduOiBjZW50ZXI7IiB4bWxucz0iaHR0cDovL3d3dy53My5vcmcvMTk5OS94aHRtbCI+PHNwYW4gc3R5bGU9IiIgY2xhc3M9Im5vZGVMYWJlbCBtYXJrZG93bi1ub2RlLWxhYmVsIj48cD4rZ2V0Q2xhc2lmaWNhY2lvbmVzKCk8L3A+PC9zcGFuPjwvZGl2PjwvZm9yZWlnbk9iamVjdD48L2c+PGcgdHJhbnNmb3JtPSJ0cmFuc2xhdGUoMCw1OS45OTM0ODY0MDQ0MTg5NDUpIiBzdHlsZT0iIiBjbGFzcz0ibGFiZWwiPjxmb3JlaWduT2JqZWN0IGhlaWdodD0iMjMuOTk3Mzk0NTYxNzY3NTc4IiB3aWR0aD0iOTQuMDEwNDE0MTIzNTM1MTYiPjxkaXYgc3R5bGU9ImRpc3BsYXk6IHRhYmxlLWNlbGw7IHdoaXRlLXNwYWNlOiBub3dyYXA7IGxpbmUtaGVpZ2h0OiAxLjU7IG1heC13aWR0aDogMTUycHg7IHRleHQtYWxpZ246IGNlbnRlcjsiIHhtbG5zPSJodHRwOi8vd3d3LnczLm9yZy8xOTk5L3hodG1sIj48c3BhbiBzdHlsZT0iIiBjbGFzcz0ibm9kZUxhYmVsIG1hcmtkb3duLW5vZGUtbGFiZWwiPjxwPitnZXRDdWVycG8oKTwvcD48L3NwYW4+PC9kaXY+PC9mb3JlaWduT2JqZWN0PjwvZz48ZyB0cmFuc2Zvcm09InRyYW5zbGF0ZSgwLDgzLjk5MDg4MDk2NjE4NjUyKSIgc3R5bGU9IiIgY2xhc3M9ImxhYmVsIj48Zm9yZWlnbk9iamVjdCBoZWlnaHQ9IjIzLjk5NzM5NDU2MTc2NzU3OCIgd2lkdGg9IjgzLjI2ODIyNjYyMzUzNTE2Ij48ZGl2IHN0eWxlPSJkaXNwbGF5OiB0YWJsZS1jZWxsOyB3aGl0ZS1zcGFjZTogbm93cmFwOyBsaW5lLWhlaWdodDogMS41OyBtYXgtd2lkdGg6IDEzOHB4OyB0ZXh0LWFsaWduOiBjZW50ZXI7IiB4bWxucz0iaHR0cDovL3d3dy53My5vcmcvMTk5OS94aHRtbCI+PHNwYW4gc3R5bGU9IiIgY2xhc3M9Im5vZGVMYWJlbCBtYXJrZG93bi1ub2RlLWxhYmVsIj48cD4rc2V0VGl0dWxvKCk8L3A+PC9zcGFuPjwvZGl2PjwvZm9yZWlnbk9iamVjdD48L2c+PGcgdHJhbnNmb3JtPSJ0cmFuc2xhdGUoMCwxMDcuOTg4Mjc1NTI3OTU0MSkiIHN0eWxlPSIiIGNsYXNzPSJsYWJlbCI+PGZvcmVpZ25PYmplY3QgaGVpZ2h0PSIyMy45OTczOTQ1NjE3Njc1NzgiIHdpZHRoPSIxNDcuMjUyNTkzOTk0MTQwNjIiPjxkaXYgc3R5bGU9ImRpc3BsYXk6IHRhYmxlLWNlbGw7IHdoaXRlLXNwYWNlOiBub3dyYXA7IGxpbmUtaGVpZ2h0OiAxLjU7IG1heC13aWR0aDogMjAwcHg7IHRleHQtYWxpZ246IGNlbnRlcjsiIHhtbG5zPSJodHRwOi8vd3d3LnczLm9yZy8xOTk5L3hodG1sIj48c3BhbiBzdHlsZT0iIiBjbGFzcz0ibm9kZUxhYmVsIG1hcmtkb3duLW5vZGUtbGFiZWwiPjxwPitzZXRDbGFzaWZpY2FjaW9uZXMoKTwvcD48L3NwYW4+PC9kaXY+PC9mb3JlaWduT2JqZWN0PjwvZz48ZyB0cmFuc2Zvcm09InRyYW5zbGF0ZSgwLDEzMS45ODU2NzAwODk3MjE2OCkiIHN0eWxlPSIiIGNsYXNzPSJsYWJlbCI+PGZvcmVpZ25PYmplY3QgaGVpZ2h0PSIyMy45OTczOTQ1NjE3Njc1NzgiIHdpZHRoPSI5Mi40NDc5MTQxMjM1MzUxNiI+PGRpdiBzdHlsZT0iZGlzcGxheTogdGFibGUtY2VsbDsgd2hpdGUtc3BhY2U6IG5vd3JhcDsgbGluZS1oZWlnaHQ6IDEuNTsgbWF4LXdpZHRoOiAxNTBweDsgdGV4dC1hbGlnbjogY2VudGVyOyIgeG1sbnM9Imh0dHA6Ly93d3cudzMub3JnLzE5OTkveGh0bWwiPjxzcGFuIHN0eWxlPSIiIGNsYXNzPSJub2RlTGFiZWwgbWFya2Rvd24tbm9kZS1sYWJlbCI+PHA+K3NldEN1ZXJwbygpPC9wPjwvc3Bhbj48L2Rpdj48L2ZvcmVpZ25PYmplY3Q+PC9nPjwvZz48ZyBzdHlsZT0iIiBjbGFzcz0iZGl2aWRlciI+PHBhdGggc3R5bGU9IiIgZmlsbD0ibm9uZSIgc3Ryb2tlLXdpZHRoPSIxLjMiIHN0cm9rZT0iIzk5OSIgZD0iTS05OS40ODY5NzY2MjM1MzUxNiAtMTE5Ljk4ODI3NzQzNTMwMjczIEMtMjYuMzQ2NDc1NjY0MzQyODIgLTExOS45ODgyNzc0MzUzMDI3MywgNDYuNzk0MDI1Mjk0ODQ5NTIgLTExOS45ODgyNzc0MzUzMDI3MywgOTkuNDg2OTc2NjIzNTM1MTYgLTExOS45ODgyNzc0MzUzMDI3MyBNLTk5LjQ4Njk3NjYyMzUzNTE2IC0xMTkuOTg4Mjc3NDM1MzAyNzMgQy00Ny43OTUzMTExMDU3MzcxMzQgLTExOS45ODgyNzc0MzUzMDI3MywgMy44OTYzNTQ0MTIwNjA4ODczIC0xMTkuOTg4Mjc3NDM1MzAyNzMsIDk5LjQ4Njk3NjYyMzUzNTE2IC0xMTkuOTg4Mjc3NDM1MzAyNzMiPjwvcGF0aD48L2c+PGcgc3R5bGU9IiIgY2xhc3M9ImRpdmlkZXIiPjxwYXRoIHN0eWxlPSIiIGZpbGw9Im5vbmUiIHN0cm9rZS13aWR0aD0iMS4zIiBzdHJva2U9IiM5OTkiIGQ9Ik0tOTkuNDg2OTc2NjIzNTM1MTYgLTIzLjk5NjA4OTkzNTMwMjczNCBDLTIxLjc4NjU3MTYwNjIzOTUyIC0yMy45OTYwODk5MzUzMDI3MzQsIDU1LjkxMzgzMzQxMTA1NjEyIC0yMy45OTYwODk5MzUzMDI3MzQsIDk5LjQ4Njk3NjYyMzUzNTE2IC0yMy45OTYwODk5MzUzMDI3MzQgTS05OS40ODY5NzY2MjM1MzUxNiAtMjMuOTk2MDg5OTM1MzAyNzM0IEMtMjQuNzM4MTE0MDI4NzczOTY0IC0yMy45OTYwODk5MzUzMDI3MzQsIDUwLjAxMDc0ODU2NTk4NzIzIC0yMy45OTYwODk5MzUzMDI3MzQsIDk5LjQ4Njk3NjYyMzUzNTE2IC0yMy45OTYwODk5MzUzMDI3MzQiPjwvcGF0aD48L2c+PC9nPjxnIHRyYW5zZm9ybT0idHJhbnNsYXRlKDQwNi4yNjcyNjE1MDUxMjY5NSwgMTMwMS4yNTI1NzQ5MjA2NTQzKSIgaWQ9ImNsYXNzSWQtQ29udGVuaWRvLTcxIiBjbGFzcz0ibm9kZSBkZWZhdWx0Ij48ZyBjbGFzcz0iYmFzaWMgbGFiZWwtY29udGFpbmVyIj48cGF0aCBzdHlsZT0iIiBmaWxsPSIjZWVlIiBzdHJva2Utd2lkdGg9IjAiIHN0cm9rZT0ibm9uZSIgZD0iTS0xOTUuMDQwMzU5NDk3MDcwMyAtODYuOTk0Nzg5MTIzNTM1MTYgTDE5NS4wNDAzNTk0OTcwNzAzIC04Ni45OTQ3ODkxMjM1MzUxNiBMMTk1LjA0MDM1OTQ5NzA3MDMgODYuOTk0Nzg5MTIzNTM1MTYgTC0xOTUuMDQwMzU5NDk3MDcwMyA4Ni45OTQ3ODkxMjM1MzUxNiI+PC9wYXRoPjxwYXRoIHN0eWxlPSIiIGZpbGw9Im5vbmUiIHN0cm9rZS13aWR0aD0iMS4zIiBzdHJva2U9IiM5OTkiIGQ9Ik0tMTk1LjA0MDM1OTQ5NzA3MDMgLTg2Ljk5NDc4OTEyMzUzNTE2IEMtMTA2Ljk0MzU4NjA1NTc4MDYxIC04Ni45OTQ3ODkxMjM1MzUxNiwgLTE4Ljg0NjgxMjYxNDQ5MDkxNSAtODYuOTk0Nzg5MTIzNTM1MTYsIDE5NS4wNDAzNTk0OTcwNzAzIC04Ni45OTQ3ODkxMjM1MzUxNiBNLTE5NS4wNDAzNTk0OTcwNzAzIC04Ni45OTQ3ODkxMjM1MzUxNiBDLTUwLjI0ODg2MzI5NDg0MDE5IC04Ni45OTQ3ODkxMjM1MzUxNiwgOTQuNTQyNjMyOTA3Mzg5OTMgLTg2Ljk5NDc4OTEyMzUzNTE2LCAxOTUuMDQwMzU5NDk3MDcwMyAtODYuOTk0Nzg5MTIzNTM1MTYgTTE5NS4wNDAzNTk0OTcwNzAzIC04Ni45OTQ3ODkxMjM1MzUxNiBDMTk1LjA0MDM1OTQ5NzA3MDMgLTM4Ljg2ODM3MDMwNzEyMzMzNSwgMTk1LjA0MDM1OTQ5NzA3MDMgOS4yNTgwNDg1MDkyODg0ODYsIDE5NS4wNDAzNTk0OTcwNzAzIDg2Ljk5NDc4OTEyMzUzNTE2IE0xOTUuMDQwMzU5NDk3MDcwMyAtODYuOTk0Nzg5MTIzNTM1MTYgQzE5NS4wNDAzNTk0OTcwNzAzIC00My45NDg0MDg4MDg5Mjg0NSwgMTk1LjA0MDM1OTQ5NzA3MDMgLTAuOTAyMDI4NDk0MzIxNzQwNSwgMTk1LjA0MDM1OTQ5NzA3MDMgODYuOTk0Nzg5MTIzNTM1MTYgTTE5NS4wNDAzNTk0OTcwNzAzIDg2Ljk5NDc4OTEyMzUzNTE2IEM0NS4wMjM0MTY5NDU5MjI2OSA4Ni45OTQ3ODkxMjM1MzUxNiwgLTEwNC45OTM1MjU2MDUyMjQ5MyA4Ni45OTQ3ODkxMjM1MzUxNiwgLTE5NS4wNDAzNTk0OTcwNzAzIDg2Ljk5NDc4OTEyMzUzNTE2IE0xOTUuMDQwMzU5NDk3MDcwMyA4Ni45OTQ3ODkxMjM1MzUxNiBDNDguODA4NjE1Nzk4MTM5ODQgODYuOTk0Nzg5MTIzNTM1MTYsIC05Ny40MjMxMjc5MDA3OTA2MyA4Ni45OTQ3ODkxMjM1MzUxNiwgLTE5NS4wNDAzNTk0OTcwNzAzIDg2Ljk5NDc4OTEyMzUzNTE2IE0tMTk1LjA0MDM1OTQ5NzA3MDMgODYuOTk0Nzg5MTIzNTM1MTYgQy0xOTUuMDQwMzU5NDk3MDcwMyAzNC4yNDk5MjQ0MTkwMTMyMjYsIC0xOTUuMDQwMzU5NDk3MDcwMyAtMTguNDk0OTQwMjg1NTA4NzA0LCAtMTk1LjA0MDM1OTQ5NzA3MDMgLTg2Ljk5NDc4OTEyMzUzNTE2IE0tMTk1LjA0MDM1OTQ5NzA3MDMgODYuOTk0Nzg5MTIzNTM1MTYgQy0xOTUuMDQwMzU5NDk3MDcwMyAzMi43NTg3NTEyNTI1MDc2MTUsIC0xOTUuMDQwMzU5NDk3MDcwMyAtMjEuNDc3Mjg2NjE4NTE5OTI2LCAtMTk1LjA0MDM1OTQ5NzA3MDMgLTg2Ljk5NDc4OTEyMzUzNTE2Ij48L3BhdGg+PC9nPjxnIHRyYW5zZm9ybT0idHJhbnNsYXRlKC00MS4xNzE4Nzg4MTQ2OTcyNjYsIC02Mi45OTQ3ODkxMjM1MzUxNTYpIiBjbGFzcz0iYW5ub3RhdGlvbi1ncm91cCB0ZXh0Ij48ZyB0cmFuc2Zvcm09InRyYW5zbGF0ZSgwLC0xMS45OTg2OTcyODA4ODM3ODkpIiBzdHlsZT0iIiBjbGFzcz0ibGFiZWwiPjxmb3JlaWduT2JqZWN0IGhlaWdodD0iMjMuOTk3Mzk0NTYxNzY3NTc4IiB3aWR0aD0iODIuMzQzNzU3NjI5Mzk0NTMiPjxkaXYgc3R5bGU9ImRpc3BsYXk6IHRhYmxlLWNlbGw7IHdoaXRlLXNwYWNlOiBub3dyYXA7IGxpbmUtaGVpZ2h0OiAxLjU7IG1heC13aWR0aDogMTI4cHg7IHRleHQtYWxpZ246IGNlbnRlcjsiIHhtbG5zPSJodHRwOi8vd3d3LnczLm9yZy8xOTk5L3hodG1sIj48c3BhbiBzdHlsZT0iIiBjbGFzcz0ibm9kZUxhYmVsIG1hcmtkb3duLW5vZGUtbGFiZWwiPjxwPsKraW50ZXJmYWNlwrs8L3A+PC9zcGFuPjwvZGl2PjwvZm9yZWlnbk9iamVjdD48L2c+PC9nPjxnIHRyYW5zZm9ybT0idHJhbnNsYXRlKC0zOC4xOTY2MTMzMTE3Njc1OCwgLTM4Ljk5NzM5NDU2MTc2NzU4KSIgY2xhc3M9ImxhYmVsLWdyb3VwIHRleHQiPjxnIHRyYW5zZm9ybT0idHJhbnNsYXRlKDAsLTExLjk5ODY5NzI4MDg4Mzc4OSkiIHN0eWxlPSJmb250LXdlaWdodDogYm9sZGVyIiBjbGFzcz0ibGFiZWwiPjxmb3JlaWduT2JqZWN0IGhlaWdodD0iMjMuOTk3Mzk0NTYxNzY3NTc4IiB3aWR0aD0iNzYuMzkzMjI2NjIzNTM1MTYiPjxkaXYgc3R5bGU9ImRpc3BsYXk6IHRhYmxlLWNlbGw7IHdoaXRlLXNwYWNlOiBub3dyYXA7IGxpbmUtaGVpZ2h0OiAxLjU7IG1heC13aWR0aDogMTI0cHg7IHRleHQtYWxpZ246IGNlbnRlcjsiIHhtbG5zPSJodHRwOi8vd3d3LnczLm9yZy8xOTk5L3hodG1sIj48c3BhbiBzdHlsZT0iIiBjbGFzcz0ibm9kZUxhYmVsIG1hcmtkb3duLW5vZGUtbGFiZWwiPjxwPkNvbnRlbmlkbzwvcD48L3NwYW4+PC9kaXY+PC9mb3JlaWduT2JqZWN0PjwvZz48L2c+PGcgdHJhbnNmb3JtPSJ0cmFuc2xhdGUoLTE4My4wNDAzNTk0OTcwNzAzLCA5KSIgY2xhc3M9Im1lbWJlcnMtZ3JvdXAgdGV4dCI+PC9nPjxnIHRyYW5zZm9ybT0idHJhbnNsYXRlKC0xODMuMDQwMzU5NDk3MDcwMywgMzkpIiBjbGFzcz0ibWV0aG9kcy1ncm91cCB0ZXh0Ij48ZyB0cmFuc2Zvcm09InRyYW5zbGF0ZSgwLC0xMS45OTg2OTcyODA4ODM3ODkpIiBzdHlsZT0iIiBjbGFzcz0ibGFiZWwiPjxmb3JlaWduT2JqZWN0IGhlaWdodD0iMjMuOTk3Mzk0NTYxNzY3NTc4IiB3aWR0aD0iMTcxLjk0MDA5Mzk5NDE0MDYyIj48ZGl2IHN0eWxlPSJkaXNwbGF5OiB0YWJsZS1jZWxsOyB3aGl0ZS1zcGFjZTogbm93cmFwOyBsaW5lLWhlaWdodDogMS41OyBtYXgtd2lkdGg6IDIyMHB4OyB0ZXh0LWFsaWduOiBjZW50ZXI7IiB4bWxucz0iaHR0cDovL3d3dy53My5vcmcvMTk5OS94aHRtbCI+PHNwYW4gc3R5bGU9IiIgY2xhc3M9Im5vZGVMYWJlbCBtYXJrZG93bi1ub2RlLWxhYmVsIj48cD4rY29udGFyUGFsYWJyYXMoKSA6IDogaW50PC9wPjwvc3Bhbj48L2Rpdj48L2ZvcmVpZ25PYmplY3Q+PC9nPjxnIHRyYW5zZm9ybT0idHJhbnNsYXRlKDAsMTEuOTk4Njk3MjgwODgzNzg5KSIgc3R5bGU9IiIgY2xhc3M9ImxhYmVsIj48Zm9yZWlnbk9iamVjdCBoZWlnaHQ9IjIzLjk5NzM5NDU2MTc2NzU3OCIgd2lkdGg9IjMyNC45MDg4NDM5OTQxNDA2Ij48ZGl2IHN0eWxlPSJkaXNwbGF5OiB0YWJsZS1jZWxsOyB3aGl0ZS1zcGFjZTogbm93cmFwOyBsaW5lLWhlaWdodDogMS41OyBtYXgtd2lkdGg6IDM3MHB4OyB0ZXh0LWFsaWduOiBjZW50ZXI7IiB4bWxucz0iaHR0cDovL3d3dy53My5vcmcvMTk5OS94aHRtbCI+PHNwYW4gc3R5bGU9IiIgY2xhc3M9Im5vZGVMYWJlbCBtYXJrZG93bi1ub2RlLWxhYmVsIj48cD4rY29udGllbmVQYWxhYnJhKHBhbGFicmE6IFN0cmluZykgOiA6IGJvb2xlYW48L3A+PC9zcGFuPjwvZGl2PjwvZm9yZWlnbk9iamVjdD48L2c+PC9nPjxnIHN0eWxlPSIiIGNsYXNzPSJkaXZpZGVyIj48cGF0aCBzdHlsZT0iIiBmaWxsPSJub25lIiBzdHJva2Utd2lkdGg9IjEuMyIgc3Ryb2tlPSIjOTk5IiBkPSJNLTE5NS4wNDAzNTk0OTcwNzAzIC0xNSBDLTQyLjg4NTQ4NDQ4NDM3NTIxIC0xNSwgMTA5LjI2OTM5MDUyODMxOTg5IC0xNSwgMTk1LjA0MDM1OTQ5NzA3MDMgLTE1IE0tMTk1LjA0MDM1OTQ5NzA3MDMgLTE1IEMtNzUuODUwNDM4Nzg5OTI0NTQgLTE1LCA0My4zMzk0ODE5MTcyMjEyMzUgLTE1LCAxOTUuMDQwMzU5NDk3MDcwMyAtMTUiPjwvcGF0aD48L2c+PGcgc3R5bGU9IiIgY2xhc3M9ImRpdmlkZXIiPjxwYXRoIHN0eWxlPSIiIGZpbGw9Im5vbmUiIHN0cm9rZS13aWR0aD0iMS4zIiBzdHJva2U9IiM5OTkiIGQ9Ik0tMTk1LjA0MDM1OTQ5NzA3MDMgOSBDLTc5LjE3MDk4NDQxNDg1MzQ0IDksIDM2LjY5ODM5MDY2NzM2MzQ0IDksIDE5NS4wNDAzNTk0OTcwNzAzIDkgTS0xOTUuMDQwMzU5NDk3MDcwMyA5IEMtMTAxLjkzNTYxMTU2NjU2MjEyIDksIC04LjgzMDg2MzYzNjA1MzkyIDksIDE5NS4wNDAzNTk0OTcwNzAzIDkiPjwvcGF0aD48L2c+PC9nPjxnIHRyYW5zZm9ybT0idHJhbnNsYXRlKDU3Ni4xNjc2NTIxMzAxMjcsIDEwODAuMjYyOTk2NjczNTg0KSIgaWQ9ImNsYXNzSWQtVGV4dG8tNzIiIGNsYXNzPSJub2RlIGRlZmF1bHQiPjxnIGNsYXNzPSJiYXNpYyBsYWJlbC1jb250YWluZXIiPjxwYXRoIHN0eWxlPSIiIGZpbGw9IiNlZWUiIHN0cm9rZS13aWR0aD0iMCIgc3Ryb2tlPSJub25lIiBkPSJNLTEwMS45MzE2NDA2MjUgLTYyLjk5NzM5NDU2MTc2NzU4IEwxMDEuOTMxNjQwNjI1IC02Mi45OTczOTQ1NjE3Njc1OCBMMTAxLjkzMTY0MDYyNSA2Mi45OTczOTQ1NjE3Njc1OCBMLTEwMS45MzE2NDA2MjUgNjIuOTk3Mzk0NTYxNzY3NTgiPjwvcGF0aD48cGF0aCBzdHlsZT0iIiBmaWxsPSJub25lIiBzdHJva2Utd2lkdGg9IjEuMyIgc3Ryb2tlPSIjOTk5IiBkPSJNLTEwMS45MzE2NDA2MjUgLTYyLjk5NzM5NDU2MTc2NzU4IEMtNDUuMzczMzk1MTk5OTg1ODIgLTYyLjk5NzM5NDU2MTc2NzU4LCAxMS4xODQ4NTAyMjUwMjgzNTYgLTYyLjk5NzM5NDU2MTc2NzU4LCAxMDEuOTMxNjQwNjI1IC02Mi45OTczOTQ1NjE3Njc1OCBNLTEwMS45MzE2NDA2MjUgLTYyLjk5NzM5NDU2MTc2NzU4IEMtNTYuOTg4MTUwOTA0NDg0Mzg1IC02Mi45OTczOTQ1NjE3Njc1OCwgLTEyLjA0NDY2MTE4Mzk2ODc3IC02Mi45OTczOTQ1NjE3Njc1OCwgMTAxLjkzMTY0MDYyNSAtNjIuOTk3Mzk0NTYxNzY3NTggTTEwMS45MzE2NDA2MjUgLTYyLjk5NzM5NDU2MTc2NzU4IEMxMDEuOTMxNjQwNjI1IC0xNS4yNzc3NzMyNTUzNjY2MzMsIDEwMS45MzE2NDA2MjUgMzIuNDQxODQ4MDUxMDM0MzEsIDEwMS45MzE2NDA2MjUgNjIuOTk3Mzk0NTYxNzY3NTggTTEwMS45MzE2NDA2MjUgLTYyLjk5NzM5NDU2MTc2NzU4IEMxMDEuOTMxNjQwNjI1IC0zMS4zNDI2NTA4NDY2NjYxNCwgMTAxLjkzMTY0MDYyNSAwLjMxMjA5Mjg2ODQzNTMwMDQsIDEwMS45MzE2NDA2MjUgNjIuOTk3Mzk0NTYxNzY3NTggTTEwMS45MzE2NDA2MjUgNjIuOTk3Mzk0NTYxNzY3NTggQzI0LjQ5OTY4Mzg1MzAxMTk3MyA2Mi45OTczOTQ1NjE3Njc1OCwgLTUyLjkzMjI3MjkxODk3NjA1NCA2Mi45OTczOTQ1NjE3Njc1OCwgLTEwMS45MzE2NDA2MjUgNjIuOTk3Mzk0NTYxNzY3NTggTTEwMS45MzE2NDA2MjUgNjIuOTk3Mzk0NTYxNzY3NTggQzM5LjYwMzgxMzk2NzA2NDM3IDYyLjk5NzM5NDU2MTc2NzU4LCAtMjIuNzI0MDEyNjkwODcxMjYzIDYyLjk5NzM5NDU2MTc2NzU4LCAtMTAxLjkzMTY0MDYyNSA2Mi45OTczOTQ1NjE3Njc1OCBNLTEwMS45MzE2NDA2MjUgNjIuOTk3Mzk0NTYxNzY3NTggQy0xMDEuOTMxNjQwNjI1IDEzLjUzNjc1MTU0NzEyMDI1NCwgLTEwMS45MzE2NDA2MjUgLTM1LjkyMzg5MTQ2NzUyNzA3LCAtMTAxLjkzMTY0MDYyNSAtNjIuOTk3Mzk0NTYxNzY3NTggTS0xMDEuOTMxNjQwNjI1IDYyLjk5NzM5NDU2MTc2NzU4IEMtMTAxLjkzMTY0MDYyNSAzMy4wMjM2NTgyOTQ5OTE3MiwgLTEwMS45MzE2NDA2MjUgMy4wNDk5MjIwMjgyMTU4Njc0LCAtMTAxLjkzMTY0MDYyNSAtNjIuOTk3Mzk0NTYxNzY3NTgiPjwvcGF0aD48L2c+PGcgdHJhbnNmb3JtPSJ0cmFuc2xhdGUoMCwgLTM4Ljk5NzM5NDU2MTc2NzU4KSIgY2xhc3M9ImFubm90YXRpb24tZ3JvdXAgdGV4dCI+PC9nPjxnIHRyYW5zZm9ybT0idHJhbnNsYXRlKC0yMC43MjI2NTgxNTczNDg2MzMsIC0zOC45OTczOTQ1NjE3Njc1OCkiIGNsYXNzPSJsYWJlbC1ncm91cCB0ZXh0Ij48ZyB0cmFuc2Zvcm09InRyYW5zbGF0ZSgwLC0xMS45OTg2OTcyODA4ODM3ODkpIiBzdHlsZT0iZm9udC13ZWlnaHQ6IGJvbGRlciIgY2xhc3M9ImxhYmVsIj48Zm9yZWlnbk9iamVjdCBoZWlnaHQ9IjIzLjk5NzM5NDU2MTc2NzU3OCIgd2lkdGg9IjQxLjQ0NTMxNjMxNDY5NzI2NiI+PGRpdiBzdHlsZT0iZGlzcGxheTogdGFibGUtY2VsbDsgd2hpdGUtc3BhY2U6IG5vd3JhcDsgbGluZS1oZWlnaHQ6IDEuNTsgbWF4LXdpZHRoOiA4N3B4OyB0ZXh0LWFsaWduOiBjZW50ZXI7IiB4bWxucz0iaHR0cDovL3d3dy53My5vcmcvMTk5OS94aHRtbCI+PHNwYW4gc3R5bGU9IiIgY2xhc3M9Im5vZGVMYWJlbCBtYXJrZG93bi1ub2RlLWxhYmVsIj48cD5UZXh0bzwvcD48L3NwYW4+PC9kaXY+PC9mb3JlaWduT2JqZWN0PjwvZz48L2c+PGcgdHJhbnNmb3JtPSJ0cmFuc2xhdGUoLTg5LjkzMTY0MDYyNSwgOSkiIGNsYXNzPSJtZW1iZXJzLWdyb3VwIHRleHQiPjwvZz48ZyB0cmFuc2Zvcm09InRyYW5zbGF0ZSgtODkuOTMxNjQwNjI1LCAzOSkiIGNsYXNzPSJtZXRob2RzLWdyb3VwIHRleHQiPjxnIHRyYW5zZm9ybT0idHJhbnNsYXRlKDAsLTExLjk5ODY5NzI4MDg4Mzc4OSkiIHN0eWxlPSIiIGNsYXNzPSJsYWJlbCI+PGZvcmVpZ25PYmplY3QgaGVpZ2h0PSIyMy45OTczOTQ1NjE3Njc1NzgiIHdpZHRoPSIxNTkuMTQwNjI1Ij48ZGl2IHN0eWxlPSJkaXNwbGF5OiB0YWJsZS1jZWxsOyB3aGl0ZS1zcGFjZTogbm93cmFwOyBsaW5lLWhlaWdodDogMS41OyBtYXgtd2lkdGg6IDIxM3B4OyB0ZXh0LWFsaWduOiBjZW50ZXI7IiB4bWxucz0iaHR0cDovL3d3dy53My5vcmcvMTk5OS94aHRtbCI+PHNwYW4gc3R5bGU9IiIgY2xhc3M9Im5vZGVMYWJlbCBtYXJrZG93bi1ub2RlLWxhYmVsIj48cD4rY29udGFyQ2FudFBhbGFicmFzKCk8L3A+PC9zcGFuPjwvZGl2PjwvZm9yZWlnbk9iamVjdD48L2c+PC9nPjxnIHN0eWxlPSIiIGNsYXNzPSJkaXZpZGVyIj48cGF0aCBzdHlsZT0iIiBmaWxsPSJub25lIiBzdHJva2Utd2lkdGg9IjEuMyIgc3Ryb2tlPSIjOTk5IiBkPSJNLTEwMS45MzE2NDA2MjUgLTE1IEMtNTEuMTY2NTgxNjc3NjAyMDkgLTE1LCAtMC40MDE1MjI3MzAyMDQxNzc5NSAtMTUsIDEwMS45MzE2NDA2MjUgLTE1IE0tMTAxLjkzMTY0MDYyNSAtMTUgQy0zNC41MzM5MDQ3NTMyNzc5NSAtMTUsIDMyLjg2MzgzMTExODQ0NDEgLTE1LCAxMDEuOTMxNjQwNjI1IC0xNSI+PC9wYXRoPjwvZz48ZyBzdHlsZT0iIiBjbGFzcz0iZGl2aWRlciI+PHBhdGggc3R5bGU9IiIgZmlsbD0ibm9uZSIgc3Ryb2tlLXdpZHRoPSIxLjMiIHN0cm9rZT0iIzk5OSIgZD0iTS0xMDEuOTMxNjQwNjI1IDkgQy0yOC42NTk1MzE3ODM0MDY0NSA5LCA0NC42MTI1NzcwNTgxODcxIDksIDEwMS45MzE2NDA2MjUgOSBNLTEwMS45MzE2NDA2MjUgOSBDLTQ1LjE4NTA0MzU2MDM1NzY4NCA5LCAxMS41NjE1NTM1MDQyODQ2MzIgOSwgMTAxLjkzMTY0MDYyNSA5Ij48L3BhdGg+PC9nPjwvZz48ZyB0cmFuc2Zvcm09InRyYW5zbGF0ZSgyMzYuMzY2ODcwODgwMTI2OTUsIDEwODAuMjYyOTk2NjczNTg0KSIgaWQ9ImNsYXNzSWQtQ3VlcnBvLTczIiBjbGFzcz0ibm9kZSBkZWZhdWx0Ij48ZyBjbGFzcz0iYmFzaWMgbGFiZWwtY29udGFpbmVyIj48cGF0aCBzdHlsZT0iIiBmaWxsPSIjZWVlIiBzdHJva2Utd2lkdGg9IjAiIHN0cm9rZT0ibm9uZSIgZD0iTS0xODcuODY5MTQwNjI1IC04My45OTQ3ODkxMjM1MzUxNiBMMTg3Ljg2OTE0MDYyNSAtODMuOTk0Nzg5MTIzNTM1MTYgTDE4Ny44NjkxNDA2MjUgODMuOTk0Nzg5MTIzNTM1MTYgTC0xODcuODY5MTQwNjI1IDgzLjk5NDc4OTEyMzUzNTE2Ij48L3BhdGg+PHBhdGggc3R5bGU9IiIgZmlsbD0ibm9uZSIgc3Ryb2tlLXdpZHRoPSIxLjMiIHN0cm9rZT0iIzk5OSIgZD0iTS0xODcuODY5MTQwNjI1IC04My45OTQ3ODkxMjM1MzUxNiBDLTg5LjM4NzMzNjcxNjI1Nzg2IC04My45OTQ3ODkxMjM1MzUxNiwgOS4wOTQ0NjcxOTI0ODQyNzQgLTgzLjk5NDc4OTEyMzUzNTE2LCAxODcuODY5MTQwNjI1IC04My45OTQ3ODkxMjM1MzUxNiBNLTE4Ny44NjkxNDA2MjUgLTgzLjk5NDc4OTEyMzUzNTE2IEMtODguMjg3MTc3NDQ1ODc1MDIgLTgzLjk5NDc4OTEyMzUzNTE2LCAxMS4yOTQ3ODU3MzMyNDk5NjcgLTgzLjk5NDc4OTEyMzUzNTE2LCAxODcuODY5MTQwNjI1IC04My45OTQ3ODkxMjM1MzUxNiBNMTg3Ljg2OTE0MDYyNSAtODMuOTk0Nzg5MTIzNTM1MTYgQzE4Ny44NjkxNDA2MjUgLTIyLjcyNzA0NjQ0NjMwMTg1LCAxODcuODY5MTQwNjI1IDM4LjU0MDY5NjIzMDkzMTQ2LCAxODcuODY5MTQwNjI1IDgzLjk5NDc4OTEyMzUzNTE2IE0xODcuODY5MTQwNjI1IC04My45OTQ3ODkxMjM1MzUxNiBDMTg3Ljg2OTE0MDYyNSAtMTguNjIzNTM5NDY0NDgwMzMsIDE4Ny44NjkxNDA2MjUgNDYuNzQ3NzEwMTk0NTc0NDk1LCAxODcuODY5MTQwNjI1IDgzLjk5NDc4OTEyMzUzNTE2IE0xODcuODY5MTQwNjI1IDgzLjk5NDc4OTEyMzUzNTE2IEM5NC4wNTY0MTgzMjIwNjc2NCA4My45OTQ3ODkxMjM1MzUxNiwgMC4yNDM2OTYwMTkxMzUyODUyNyA4My45OTQ3ODkxMjM1MzUxNiwgLTE4Ny44NjkxNDA2MjUgODMuOTk0Nzg5MTIzNTM1MTYgTTE4Ny44NjkxNDA2MjUgODMuOTk0Nzg5MTIzNTM1MTYgQzEwOS40MDUwOTAzMTAxODI2OSA4My45OTQ3ODkxMjM1MzUxNiwgMzAuOTQxMDM5OTk1MzY1MzcyIDgzLjk5NDc4OTEyMzUzNTE2LCAtMTg3Ljg2OTE0MDYyNSA4My45OTQ3ODkxMjM1MzUxNiBNLTE4Ny44NjkxNDA2MjUgODMuOTk0Nzg5MTIzNTM1MTYgQy0xODcuODY5MTQwNjI1IDQ2LjczNjU3NTUwOTAxNjQyNiwgLTE4Ny44NjkxNDA2MjUgOS40NzgzNjE4OTQ0OTc2OTUsIC0xODcuODY5MTQwNjI1IC04My45OTQ3ODkxMjM1MzUxNiBNLTE4Ny44NjkxNDA2MjUgODMuOTk0Nzg5MTIzNTM1MTYgQy0xODcuODY5MTQwNjI1IDM4LjQ1MDgzMTM4NjcwOTg5LCAtMTg3Ljg2OTE0MDYyNSAtNy4wOTMxMjYzNTAxMTUzNjksIC0xODcuODY5MTQwNjI1IC04My45OTQ3ODkxMjM1MzUxNiI+PC9wYXRoPjwvZz48ZyB0cmFuc2Zvcm09InRyYW5zbGF0ZSgwLCAtNTkuOTk0Nzg5MTIzNTM1MTU2KSIgY2xhc3M9ImFubm90YXRpb24tZ3JvdXAgdGV4dCI+PC9nPjxnIHRyYW5zZm9ybT0idHJhbnNsYXRlKC0yNi44Mjk0MjU4MTE3Njc1NzgsIC01OS45OTQ3ODkxMjM1MzUxNTYpIiBjbGFzcz0ibGFiZWwtZ3JvdXAgdGV4dCI+PGcgdHJhbnNmb3JtPSJ0cmFuc2xhdGUoMCwtMTEuOTk4Njk3MjgwODgzNzg5KSIgc3R5bGU9ImZvbnQtd2VpZ2h0OiBib2xkZXIiIGNsYXNzPSJsYWJlbCI+PGZvcmVpZ25PYmplY3QgaGVpZ2h0PSIyMy45OTczOTQ1NjE3Njc1NzgiIHdpZHRoPSI1My42NTg4NTE2MjM1MzUxNTYiPjxkaXYgc3R5bGU9ImRpc3BsYXk6IHRhYmxlLWNlbGw7IHdoaXRlLXNwYWNlOiBub3dyYXA7IGxpbmUtaGVpZ2h0OiAxLjU7IG1heC13aWR0aDogMTAycHg7IHRleHQtYWxpZ246IGNlbnRlcjsiIHhtbG5zPSJodHRwOi8vd3d3LnczLm9yZy8xOTk5L3hodG1sIj48c3BhbiBzdHlsZT0iIiBjbGFzcz0ibm9kZUxhYmVsIG1hcmtkb3duLW5vZGUtbGFiZWwiPjxwPkN1ZXJwbzwvcD48L3NwYW4+PC9kaXY+PC9mb3JlaWduT2JqZWN0PjwvZz48L2c+PGcgdHJhbnNmb3JtPSJ0cmFuc2xhdGUoLTE3NS44NjkxNDA2MjUsIC0xMS45OTczOTQ1NjE3Njc1NzgpIiBjbGFzcz0ibWVtYmVycy1ncm91cCB0ZXh0Ij48ZyB0cmFuc2Zvcm09InRyYW5zbGF0ZSgwLC0xMS45OTg2OTcyODA4ODM3ODkpIiBzdHlsZT0iIiBjbGFzcz0ibGFiZWwiPjxmb3JlaWduT2JqZWN0IGhlaWdodD0iMjMuOTk3Mzk0NTYxNzY3NTc4IiB3aWR0aD0iMTM2Ljk0MDA5Mzk5NDE0MDYyIj48ZGl2IHN0eWxlPSJkaXNwbGF5OiB0YWJsZS1jZWxsOyB3aGl0ZS1zcGFjZTogbm93cmFwOyBsaW5lLWhlaWdodDogMS41OyBtYXgtd2lkdGg6IDE4OXB4OyB0ZXh0LWFsaWduOiBjZW50ZXI7IiB4bWxucz0iaHR0cDovL3d3dy53My5vcmcvMTk5OS94aHRtbCI+PHNwYW4gc3R5bGU9IiIgY2xhc3M9Im5vZGVMYWJlbCBtYXJrZG93bi1ub2RlLWxhYmVsIj48cD4tbGlzdENvbnRlbmlkbzogTGlzdDwvcD48L3NwYW4+PC9kaXY+PC9mb3JlaWduT2JqZWN0PjwvZz48L2c+PGcgdHJhbnNmb3JtPSJ0cmFuc2xhdGUoLTE3NS44NjkxNDA2MjUsIDM2KSIgY2xhc3M9Im1ldGhvZHMtZ3JvdXAgdGV4dCI+PGcgdHJhbnNmb3JtPSJ0cmFuc2xhdGUoMCwtMTEuOTk4Njk3MjgwODgzNzg5KSIgc3R5bGU9IiIgY2xhc3M9ImxhYmVsIj48Zm9yZWlnbk9iamVjdCBoZWlnaHQ9IjIzLjk5NzM5NDU2MTc2NzU3OCIgd2lkdGg9IjE3MS45NDAwOTM5OTQxNDA2MiI+PGRpdiBzdHlsZT0iZGlzcGxheTogdGFibGUtY2VsbDsgd2hpdGUtc3BhY2U6IG5vd3JhcDsgbGluZS1oZWlnaHQ6IDEuNTsgbWF4LXdpZHRoOiAyMjBweDsgdGV4dC1hbGlnbjogY2VudGVyOyIgeG1sbnM9Imh0dHA6Ly93d3cudzMub3JnLzE5OTkveGh0bWwiPjxzcGFuIHN0eWxlPSIiIGNsYXNzPSJub2RlTGFiZWwgbWFya2Rvd24tbm9kZS1sYWJlbCI+PHA+K2NvbnRhclBhbGFicmFzKCkgOiA6IGludDwvcD48L3NwYW4+PC9kaXY+PC9mb3JlaWduT2JqZWN0PjwvZz48ZyB0cmFuc2Zvcm09InRyYW5zbGF0ZSgwLDExLjk5ODY5NzI4MDg4Mzc4OSkiIHN0eWxlPSIiIGNsYXNzPSJsYWJlbCI+PGZvcmVpZ25PYmplY3QgaGVpZ2h0PSIyMy45OTczOTQ1NjE3Njc1NzgiIHdpZHRoPSIzMjQuOTA4ODQzOTk0MTQwNiI+PGRpdiBzdHlsZT0iZGlzcGxheTogdGFibGUtY2VsbDsgd2hpdGUtc3BhY2U6IG5vd3JhcDsgbGluZS1oZWlnaHQ6IDEuNTsgbWF4LXdpZHRoOiAzNzBweDsgdGV4dC1hbGlnbjogY2VudGVyOyIgeG1sbnM9Imh0dHA6Ly93d3cudzMub3JnLzE5OTkveGh0bWwiPjxzcGFuIHN0eWxlPSIiIGNsYXNzPSJub2RlTGFiZWwgbWFya2Rvd24tbm9kZS1sYWJlbCI+PHA+K2NvbnRpZW5lUGFsYWJyYShwYWxhYnJhOiBTdHJpbmcpIDogOiBib29sZWFuPC9wPjwvc3Bhbj48L2Rpdj48L2ZvcmVpZ25PYmplY3Q+PC9nPjwvZz48ZyBzdHlsZT0iIiBjbGFzcz0iZGl2aWRlciI+PHBhdGggc3R5bGU9IiIgZmlsbD0ibm9uZSIgc3Ryb2tlLXdpZHRoPSIxLjMiIHN0cm9rZT0iIzk5OSIgZD0iTS0xODcuODY5MTQwNjI1IC0zNS45OTczOTQ1NjE3Njc1OCBDLTgxLjM4NzUwNTE5MTY1OTE3IC0zNS45OTczOTQ1NjE3Njc1OCwgMjUuMDk0MTMwMjQxNjgxNjU0IC0zNS45OTczOTQ1NjE3Njc1OCwgMTg3Ljg2OTE0MDYyNSAtMzUuOTk3Mzk0NTYxNzY3NTggTS0xODcuODY5MTQwNjI1IC0zNS45OTczOTQ1NjE3Njc1OCBDLTg3LjI4NjUyMjYyMzEzNDIgLTM1Ljk5NzM5NDU2MTc2NzU4LCAxMy4yOTYwOTUzNzg3MzE1OTMgLTM1Ljk5NzM5NDU2MTc2NzU4LCAxODcuODY5MTQwNjI1IC0zNS45OTczOTQ1NjE3Njc1OCI+PC9wYXRoPjwvZz48ZyBzdHlsZT0iIiBjbGFzcz0iZGl2aWRlciI+PHBhdGggc3R5bGU9IiIgZmlsbD0ibm9uZSIgc3Ryb2tlLXdpZHRoPSIxLjMiIHN0cm9rZT0iIzk5OSIgZD0iTS0xODcuODY5MTQwNjI1IDEyIEMtMTA3LjkwMDUyNjQyNDMyNTQgMTIsIC0yNy45MzE5MTIyMjM2NTA4MTIgMTIsIDE4Ny44NjkxNDA2MjUgMTIgTS0xODcuODY5MTQwNjI1IDEyIEMtNDguOTM5NTc5NzY5NTA1IDEyLCA4OS45ODk5ODEwODU5OSAxMiwgMTg3Ljg2OTE0MDYyNSAxMiI+PC9wYXRoPjwvZz48L2c+PGcgdHJhbnNmb3JtPSJ0cmFuc2xhdGUoMzczLjE3OTcwMjc1ODc4OTA2LCA0MTcuOTcyNjQ4NjIwNjA1NDcpIiBpZD0iY2xhc3NJZC1Vc3VhcmlvLTc0IiBjbGFzcz0ibm9kZSBkZWZhdWx0Ij48ZyBjbGFzcz0iYmFzaWMgbGFiZWwtY29udGFpbmVyIj48cGF0aCBzdHlsZT0iIiBmaWxsPSIjZWVlIiBzdHJva2Utd2lkdGg9IjAiIHN0cm9rZT0ibm9uZSIgZD0iTS0xMzIuMDcxNjI0NzU1ODU5MzggLTExOS45OTA4ODI4NzM1MzUxNiBMMTMyLjA3MTYyNDc1NTg1OTM4IC0xMTkuOTkwODgyODczNTM1MTYgTDEzMi4wNzE2MjQ3NTU4NTkzOCAxMTkuOTkwODgyODczNTM1MTYgTC0xMzIuMDcxNjI0NzU1ODU5MzggMTE5Ljk5MDg4Mjg3MzUzNTE2Ij48L3BhdGg+PHBhdGggc3R5bGU9IiIgZmlsbD0ibm9uZSIgc3Ryb2tlLXdpZHRoPSIxLjMiIHN0cm9rZT0iIzk5OSIgZD0iTS0xMzIuMDcxNjI0NzU1ODU5MzggLTExOS45OTA4ODI4NzM1MzUxNiBDLTc4LjYyNTA0ODU2MTgzODA3IC0xMTkuOTkwODgyODczNTM1MTYsIC0yNS4xNzg0NzIzNjc4MTY3NjcgLTExOS45OTA4ODI4NzM1MzUxNiwgMTMyLjA3MTYyNDc1NTg1OTM4IC0xMTkuOTkwODgyODczNTM1MTYgTS0xMzIuMDcxNjI0NzU1ODU5MzggLTExOS45OTA4ODI4NzM1MzUxNiBDLTQ2Ljc2NzI0NTE5Nzc3Njg5IC0xMTkuOTkwODgyODczNTM1MTYsIDM4LjUzNzEzNDM2MDMwNTYgLTExOS45OTA4ODI4NzM1MzUxNiwgMTMyLjA3MTYyNDc1NTg1OTM4IC0xMTkuOTkwODgyODczNTM1MTYgTTEzMi4wNzE2MjQ3NTU4NTkzOCAtMTE5Ljk5MDg4Mjg3MzUzNTE2IEMxMzIuMDcxNjI0NzU1ODU5MzggLTI3Ljg5OTYzNjMyNTc1NzgyNSwgMTMyLjA3MTYyNDc1NTg1OTM4IDY0LjE5MTYxMDIyMjAxOTUsIDEzMi4wNzE2MjQ3NTU4NTkzOCAxMTkuOTkwODgyODczNTM1MTYgTTEzMi4wNzE2MjQ3NTU4NTkzOCAtMTE5Ljk5MDg4Mjg3MzUzNTE2IEMxMzIuMDcxNjI0NzU1ODU5MzggLTQ5LjQ4Mjg1MTkzMTM2NDEyNCwgMTMyLjA3MTYyNDc1NTg1OTM4IDIxLjAyNTE3OTAxMDgwNjkxLCAxMzIuMDcxNjI0NzU1ODU5MzggMTE5Ljk5MDg4Mjg3MzUzNTE2IE0xMzIuMDcxNjI0NzU1ODU5MzggMTE5Ljk5MDg4Mjg3MzUzNTE2IEM2Ny40MjkxMTM4Mjk4OTk1IDExOS45OTA4ODI4NzM1MzUxNiwgMi43ODY2MDI5MDM5Mzk2MzggMTE5Ljk5MDg4Mjg3MzUzNTE2LCAtMTMyLjA3MTYyNDc1NTg1OTM4IDExOS45OTA4ODI4NzM1MzUxNiBNMTMyLjA3MTYyNDc1NTg1OTM4IDExOS45OTA4ODI4NzM1MzUxNiBDNjEuNDg0NTAwNTgxNTI5NDMgMTE5Ljk5MDg4Mjg3MzUzNTE2LCAtOS4xMDI2MjM1OTI4MDA1MTIgMTE5Ljk5MDg4Mjg3MzUzNTE2LCAtMTMyLjA3MTYyNDc1NTg1OTM4IDExOS45OTA4ODI4NzM1MzUxNiBNLTEzMi4wNzE2MjQ3NTU4NTkzOCAxMTkuOTkwODgyODczNTM1MTYgQy0xMzIuMDcxNjI0NzU1ODU5MzggNTkuNTU3NzA0MDY5MTk5MywgLTEzMi4wNzE2MjQ3NTU4NTkzOCAtMC44NzU0NzQ3MzUxMzY1NDk1LCAtMTMyLjA3MTYyNDc1NTg1OTM4IC0xMTkuOTkwODgyODczNTM1MTYgTS0xMzIuMDcxNjI0NzU1ODU5MzggMTE5Ljk5MDg4Mjg3MzUzNTE2IEMtMTMyLjA3MTYyNDc1NTg1OTM4IDQwLjY5MTM3NTI1MzQ5NjgsIC0xMzIuMDcxNjI0NzU1ODU5MzggLTM4LjYwODEzMjM2NjU0MTU1NCwgLTEzMi4wNzE2MjQ3NTU4NTkzOCAtMTE5Ljk5MDg4Mjg3MzUzNTE2Ij48L3BhdGg+PC9nPjxnIHRyYW5zZm9ybT0idHJhbnNsYXRlKDAsIC05NS45OTA4ODI4NzM1MzUxNikiIGNsYXNzPSJhbm5vdGF0aW9uLWdyb3VwIHRleHQiPjwvZz48ZyB0cmFuc2Zvcm09InRyYW5zbGF0ZSgtMjguMTkwMTAzNTMwODgzNzksIC05NS45OTA4ODI4NzM1MzUxNikiIGNsYXNzPSJsYWJlbC1ncm91cCB0ZXh0Ij48ZyB0cmFuc2Zvcm09InRyYW5zbGF0ZSgwLC0xMS45OTg2OTcyODA4ODM3ODkpIiBzdHlsZT0iZm9udC13ZWlnaHQ6IGJvbGRlciIgY2xhc3M9ImxhYmVsIj48Zm9yZWlnbk9iamVjdCBoZWlnaHQ9IjIzLjk5NzM5NDU2MTc2NzU3OCIgd2lkdGg9IjU2LjM4MDIwNzA2MTc2NzU4Ij48ZGl2IHN0eWxlPSJkaXNwbGF5OiB0YWJsZS1jZWxsOyB3aGl0ZS1zcGFjZTogbm93cmFwOyBsaW5lLWhlaWdodDogMS41OyBtYXgtd2lkdGg6IDEwNHB4OyB0ZXh0LWFsaWduOiBjZW50ZXI7IiB4bWxucz0iaHR0cDovL3d3dy53My5vcmcvMTk5OS94aHRtbCI+PHNwYW4gc3R5bGU9IiIgY2xhc3M9Im5vZGVMYWJlbCBtYXJrZG93bi1ub2RlLWxhYmVsIj48cD5Vc3VhcmlvPC9wPjwvc3Bhbj48L2Rpdj48L2ZvcmVpZ25PYmplY3Q+PC9nPjwvZz48ZyB0cmFuc2Zvcm09InRyYW5zbGF0ZSgtMTIwLjA3MTYyNDc1NTg1OTM4LCAtNDcuOTkzNDg4MzExNzY3NTgpIiBjbGFzcz0ibWVtYmVycy1ncm91cCB0ZXh0Ij48ZyB0cmFuc2Zvcm09InRyYW5zbGF0ZSgwLC0xMS45OTg2OTcyODA4ODM3ODkpIiBzdHlsZT0iIiBjbGFzcz0ibGFiZWwiPjxmb3JlaWduT2JqZWN0IGhlaWdodD0iMjMuOTk3Mzk0NTYxNzY3NTc4IiB3aWR0aD0iMTEyLjY0MzIyNjYyMzUzNTE2Ij48ZGl2IHN0eWxlPSJkaXNwbGF5OiB0YWJsZS1jZWxsOyB3aGl0ZS1zcGFjZTogbm93cmFwOyBsaW5lLWhlaWdodDogMS41OyBtYXgtd2lkdGg6IDE2OHB4OyB0ZXh0LWFsaWduOiBjZW50ZXI7IiB4bWxucz0iaHR0cDovL3d3dy53My5vcmcvMTk5OS94aHRtbCI+PHNwYW4gc3R5bGU9IiIgY2xhc3M9Im5vZGVMYWJlbCBtYXJrZG93bi1ub2RlLWxhYmVsIj48cD4tbm9tYnJlOiBTdHJpbmc8L3A+PC9zcGFuPjwvZGl2PjwvZm9yZWlnbk9iamVjdD48L2c+PGcgdHJhbnNmb3JtPSJ0cmFuc2xhdGUoMCwxMS45OTg2OTcyODA4ODM3ODkpIiBzdHlsZT0iIiBjbGFzcz0ibGFiZWwiPjxmb3JlaWduT2JqZWN0IGhlaWdodD0iMjMuOTk3Mzk0NTYxNzY3NTc4IiB3aWR0aD0iMTMxLjYxNDU3ODI0NzA3MDMiPjxkaXYgc3R5bGU9ImRpc3BsYXk6IHRhYmxlLWNlbGw7IHdoaXRlLXNwYWNlOiBub3dyYXA7IGxpbmUtaGVpZ2h0OiAxLjU7IG1heC13aWR0aDogMTgxcHg7IHRleHQtYWxpZ246IGNlbnRlcjsiIHhtbG5zPSJodHRwOi8vd3d3LnczLm9yZy8xOTk5L3hodG1sIj48c3BhbiBzdHlsZT0iIiBjbGFzcz0ibm9kZUxhYmVsIG1hcmtkb3duLW5vZGUtbGFiZWwiPjxwPi1wcmVmZXJlbmNpYXM6IExpc3Q8L3A+PC9zcGFuPjwvZGl2PjwvZm9yZWlnbk9iamVjdD48L2c+PGcgdHJhbnNmb3JtPSJ0cmFuc2xhdGUoMCwzNS45OTYwOTE4NDI2NTEzNykiIHN0eWxlPSIiIGNsYXNzPSJsYWJlbCI+PGZvcmVpZ25PYmplY3QgaGVpZ2h0PSIyMy45OTczOTQ1NjE3Njc1NzgiIHdpZHRoPSIxOTkuNTcwMzI3NzU4Nzg5MDYiPjxkaXYgc3R5bGU9ImRpc3BsYXk6IHRhYmxlLWNlbGw7IHdoaXRlLXNwYWNlOiBub3dyYXA7IGxpbmUtaGVpZ2h0OiAxLjU7IG1heC13aWR0aDogMjQ5cHg7IHRleHQtYWxpZ246IGNlbnRlcjsiIHhtbG5zPSJodHRwOi8vd3d3LnczLm9yZy8xOTk5L3hodG1sIj48c3BhbiBzdHlsZT0iIiBjbGFzcz0ibm9kZUxhYmVsIG1hcmtkb3duLW5vZGUtbGFiZWwiPjxwPi1saXN0YU5vdGljaWFzUmVtaXRpZGFzOiBMaXN0PC9wPjwvc3Bhbj48L2Rpdj48L2ZvcmVpZ25PYmplY3Q+PC9nPjwvZz48ZyB0cmFuc2Zvcm09InRyYW5zbGF0ZSgtMTIwLjA3MTYyNDc1NTg1OTM4LCA0Ny45OTg2OTkxODgyMzI0MikiIGNsYXNzPSJtZXRob2RzLWdyb3VwIHRleHQiPjxnIHRyYW5zZm9ybT0idHJhbnNsYXRlKDAsLTExLjk5ODY5NzI4MDg4Mzc4OSkiIHN0eWxlPSIiIGNsYXNzPSJsYWJlbCI+PGZvcmVpZ25PYmplY3QgaGVpZ2h0PSIyMy45OTczOTQ1NjE3Njc1NzgiIHdpZHRoPSIyMTEuOTUzMTQwMjU4Nzg5MDYiPjxkaXYgc3R5bGU9ImRpc3BsYXk6IHRhYmxlLWNlbGw7IHdoaXRlLXNwYWNlOiBub3dyYXA7IGxpbmUtaGVpZ2h0OiAxLjU7IG1heC13aWR0aDogMjYwcHg7IHRleHQtYWxpZ246IGNlbnRlcjsiIHhtbG5zPSJodHRwOi8vd3d3LnczLm9yZy8xOTk5L3hodG1sIj48c3BhbiBzdHlsZT0iIiBjbGFzcz0ibm9kZUxhYmVsIG1hcmtkb3duLW5vZGUtbGFiZWwiPjxwPithZ3JlZ2FyUHJlZmVyZW5jaWEoZjogRmlsdHJvKTwvcD48L3NwYW4+PC9kaXY+PC9mb3JlaWduT2JqZWN0PjwvZz48ZyB0cmFuc2Zvcm09InRyYW5zbGF0ZSgwLDExLjk5ODY5NzI4MDg4Mzc4OSkiIHN0eWxlPSIiIGNsYXNzPSJsYWJlbCI+PGZvcmVpZ25PYmplY3QgaGVpZ2h0PSIyMy45OTczOTQ1NjE3Njc1NzgiIHdpZHRoPSIxODcuODkwNjQwMjU4Nzg5MDYiPjxkaXYgc3R5bGU9ImRpc3BsYXk6IHRhYmxlLWNlbGw7IHdoaXRlLXNwYWNlOiBub3dyYXA7IGxpbmUtaGVpZ2h0OiAxLjU7IG1heC13aWR0aDogMjM5cHg7IHRleHQtYWxpZ246IGNlbnRlcjsiIHhtbG5zPSJodHRwOi8vd3d3LnczLm9yZy8xOTk5L3hodG1sIj48c3BhbiBzdHlsZT0iIiBjbGFzcz0ibm9kZUxhYmVsIG1hcmtkb3duLW5vZGUtbGFiZWwiPjxwPityZWNpYmlyTm90aWNpYShuOiBOb3RpY2lhKTwvcD48L3NwYW4+PC9kaXY+PC9mb3JlaWduT2JqZWN0PjwvZz48ZyB0cmFuc2Zvcm09InRyYW5zbGF0ZSgwLDM1Ljk5NjA5MTg0MjY1MTM3KSIgc3R5bGU9IiIgY2xhc3M9ImxhYmVsIj48Zm9yZWlnbk9iamVjdCBoZWlnaHQ9IjIzLjk5NzM5NDU2MTc2NzU3OCIgd2lkdGg9IjE4My43NTAwMTUyNTg3ODkwNiI+PGRpdiBzdHlsZT0iZGlzcGxheTogdGFibGUtY2VsbDsgd2hpdGUtc3BhY2U6IG5vd3JhcDsgbGluZS1oZWlnaHQ6IDEuNTsgbWF4LXdpZHRoOiAyMzBweDsgdGV4dC1hbGlnbjogY2VudGVyOyIgeG1sbnM9Imh0dHA6Ly93d3cudzMub3JnLzE5OTkveGh0bWwiPjxzcGFuIHN0eWxlPSIiIGNsYXNzPSJub2RlTGFiZWwgbWFya2Rvd24tbm9kZS1sYWJlbCI+PHA+K2dldFByZWZlcmVuY2lhcygpIDogOiBMaXN0PC9wPjwvc3Bhbj48L2Rpdj48L2ZvcmVpZ25PYmplY3Q+PC9nPjwvZz48ZyBzdHlsZT0iIiBjbGFzcz0iZGl2aWRlciI+PHBhdGggc3R5bGU9IiIgZmlsbD0ibm9uZSIgc3Ryb2tlLXdpZHRoPSIxLjMiIHN0cm9rZT0iIzk5OSIgZD0iTS0xMzIuMDcxNjI0NzU1ODU5MzggLTcxLjk5MzQ4ODMxMTc2NzU4IEMtMzMuNTg0NzcxMTM3MzI3NTkgLTcxLjk5MzQ4ODMxMTc2NzU4LCA2NC45MDIwODI0ODEyMDQxOSAtNzEuOTkzNDg4MzExNzY3NTgsIDEzMi4wNzE2MjQ3NTU4NTkzOCAtNzEuOTkzNDg4MzExNzY3NTggTS0xMzIuMDcxNjI0NzU1ODU5MzggLTcxLjk5MzQ4ODMxMTc2NzU4IEMtMzguNDcyODY0NTE0MzQ4NTMgLTcxLjk5MzQ4ODMxMTc2NzU4LCA1NS4xMjU4OTU3MjcxNjIzMTYgLTcxLjk5MzQ4ODMxMTc2NzU4LCAxMzIuMDcxNjI0NzU1ODU5MzggLTcxLjk5MzQ4ODMxMTc2NzU4Ij48L3BhdGg+PC9nPjxnIHN0eWxlPSIiIGNsYXNzPSJkaXZpZGVyIj48cGF0aCBzdHlsZT0iIiBmaWxsPSJub25lIiBzdHJva2Utd2lkdGg9IjEuMyIgc3Ryb2tlPSIjOTk5IiBkPSJNLTEzMi4wNzE2MjQ3NTU4NTkzOCAyMy45OTg2OTkxODgyMzI0MjIgQy00MS4wMDAwODA3MzI2NTI2MiAyMy45OTg2OTkxODgyMzI0MjIsIDUwLjA3MTQ2MzI5MDU1NDEzNSAyMy45OTg2OTkxODgyMzI0MjIsIDEzMi4wNzE2MjQ3NTU4NTkzOCAyMy45OTg2OTkxODgyMzI0MjIgTS0xMzIuMDcxNjI0NzU1ODU5MzggMjMuOTk4Njk5MTg4MjMyNDIyIEMtNjUuMDE2MDU0MzM3MDE5MTYgMjMuOTk4Njk5MTg4MjMyNDIyLCAyLjAzOTUxNjA4MTgyMTA2MjcgMjMuOTk4Njk5MTg4MjMyNDIyLCAxMzIuMDcxNjI0NzU1ODU5MzggMjMuOTk4Njk5MTg4MjMyNDIyIj48L3BhdGg+PC9nPjwvZz48ZyB0cmFuc2Zvcm09InRyYW5zbGF0ZSg5MDYuNzE2NDc2NDQwNDI5NywgNDE3Ljk3MjY0ODYyMDYwNTQ3KSIgaWQ9ImNsYXNzSWQtRmlsdHJvLTc1IiBjbGFzcz0ibm9kZSBkZWZhdWx0Ij48ZyBjbGFzcz0iYmFzaWMgbGFiZWwtY29udGFpbmVyIj48cGF0aCBzdHlsZT0iIiBmaWxsPSIjZWVlIiBzdHJva2Utd2lkdGg9IjAiIHN0cm9rZT0ibm9uZSIgZD0iTS0xNTguNzE4NzUgLTc0Ljk5NjA4OTkzNTMwMjczIEwxNTguNzE4NzUgLTc0Ljk5NjA4OTkzNTMwMjczIEwxNTguNzE4NzUgNzQuOTk2MDg5OTM1MzAyNzMgTC0xNTguNzE4NzUgNzQuOTk2MDg5OTM1MzAyNzMiPjwvcGF0aD48cGF0aCBzdHlsZT0iIiBmaWxsPSJub25lIiBzdHJva2Utd2lkdGg9IjEuMyIgc3Ryb2tlPSIjOTk5IiBkPSJNLTE1OC43MTg3NSAtNzQuOTk2MDg5OTM1MzAyNzMgQy05Mi4wMTA3NDYxMDQwOTEzNSAtNzQuOTk2MDg5OTM1MzAyNzMsIC0yNS4zMDI3NDIyMDgxODI3MDcgLTc0Ljk5NjA4OTkzNTMwMjczLCAxNTguNzE4NzUgLTc0Ljk5NjA4OTkzNTMwMjczIE0tMTU4LjcxODc1IC03NC45OTYwODk5MzUzMDI3MyBDLTUyLjg4Njg2MTY0MzE1NDUwNCAtNzQuOTk2MDg5OTM1MzAyNzMsIDUyLjk0NTAyNjcxMzY5MDk5IC03NC45OTYwODk5MzUzMDI3MywgMTU4LjcxODc1IC03NC45OTYwODk5MzUzMDI3MyBNMTU4LjcxODc1IC03NC45OTYwODk5MzUzMDI3MyBDMTU4LjcxODc1IC0zMS4yMDM5NDAxNjg2Mjc4OCwgMTU4LjcxODc1IDEyLjU4ODIwOTU5ODA0Njk3MywgMTU4LjcxODc1IDc0Ljk5NjA4OTkzNTMwMjczIE0xNTguNzE4NzUgLTc0Ljk5NjA4OTkzNTMwMjczIEMxNTguNzE4NzUgLTIzLjk1NTc4NzkyMDM1MjU0LCAxNTguNzE4NzUgMjcuMDg0NTE0MDk0NTk3NjUsIDE1OC43MTg3NSA3NC45OTYwODk5MzUzMDI3MyBNMTU4LjcxODc1IDc0Ljk5NjA4OTkzNTMwMjczIEM4Mi42MDkyNjU0MjkxNzY1MiA3NC45OTYwODk5MzUzMDI3MywgNi40OTk3ODA4NTgzNTMwMzQgNzQuOTk2MDg5OTM1MzAyNzMsIC0xNTguNzE4NzUgNzQuOTk2MDg5OTM1MzAyNzMgTTE1OC43MTg3NSA3NC45OTYwODk5MzUzMDI3MyBDNTguNzA1ODI3Mzc0OTYxNTE1IDc0Ljk5NjA4OTkzNTMwMjczLCAtNDEuMzA3MDk1MjUwMDc2OTcgNzQuOTk2MDg5OTM1MzAyNzMsIC0xNTguNzE4NzUgNzQuOTk2MDg5OTM1MzAyNzMgTS0xNTguNzE4NzUgNzQuOTk2MDg5OTM1MzAyNzMgQy0xNTguNzE4NzUgMTUuNzQ4MTg4NDc1NDQxNTgsIC0xNTguNzE4NzUgLTQzLjQ5OTcxMjk4NDQxOTU3NCwgLTE1OC43MTg3NSAtNzQuOTk2MDg5OTM1MzAyNzMgTS0xNTguNzE4NzUgNzQuOTk2MDg5OTM1MzAyNzMgQy0xNTguNzE4NzUgMzAuOTU5NzIwOTc5MDQ3NzUyLCAtMTU4LjcxODc1IC0xMy4wNzY2NDc5NzcyMDcyMywgLTE1OC43MTg3NSAtNzQuOTk2MDg5OTM1MzAyNzMiPjwvcGF0aD48L2c+PGcgdHJhbnNmb3JtPSJ0cmFuc2xhdGUoLTQxLjE3MTg3ODgxNDY5NzI2NiwgLTUwLjk5NjA4OTkzNTMwMjczNCkiIGNsYXNzPSJhbm5vdGF0aW9uLWdyb3VwIHRleHQiPjxnIHRyYW5zZm9ybT0idHJhbnNsYXRlKDAsLTExLjk5ODY5NzI4MDg4Mzc4OSkiIHN0eWxlPSIiIGNsYXNzPSJsYWJlbCI+PGZvcmVpZ25PYmplY3QgaGVpZ2h0PSIyMy45OTczOTQ1NjE3Njc1NzgiIHdpZHRoPSI4Mi4zNDM3NTc2MjkzOTQ1MyI+PGRpdiBzdHlsZT0iZGlzcGxheTogdGFibGUtY2VsbDsgd2hpdGUtc3BhY2U6IG5vd3JhcDsgbGluZS1oZWlnaHQ6IDEuNTsgbWF4LXdpZHRoOiAxMjhweDsgdGV4dC1hbGlnbjogY2VudGVyOyIgeG1sbnM9Imh0dHA6Ly93d3cudzMub3JnLzE5OTkveGh0bWwiPjxzcGFuIHN0eWxlPSIiIGNsYXNzPSJub2RlTGFiZWwgbWFya2Rvd24tbm9kZS1sYWJlbCI+PHA+wqtpbnRlcmZhY2XCuzwvcD48L3NwYW4+PC9kaXY+PC9mb3JlaWduT2JqZWN0PjwvZz48L2c+PGcgdHJhbnNmb3JtPSJ0cmFuc2xhdGUoLTIwLjUzMzg1MzUzMDg4Mzc5LCAtMjYuOTk4Njk1MzczNTM1MTU2KSIgY2xhc3M9ImxhYmVsLWdyb3VwIHRleHQiPjxnIHRyYW5zZm9ybT0idHJhbnNsYXRlKDAsLTExLjk5ODY5NzI4MDg4Mzc4OSkiIHN0eWxlPSJmb250LXdlaWdodDogYm9sZGVyIiBjbGFzcz0ibGFiZWwiPjxmb3JlaWduT2JqZWN0IGhlaWdodD0iMjMuOTk3Mzk0NTYxNzY3NTc4IiB3aWR0aD0iNDEuMDY3NzA3MDYxNzY3NTgiPjxkaXYgc3R5bGU9ImRpc3BsYXk6IHRhYmxlLWNlbGw7IHdoaXRlLXNwYWNlOiBub3dyYXA7IGxpbmUtaGVpZ2h0OiAxLjU7IG1heC13aWR0aDogODZweDsgdGV4dC1hbGlnbjogY2VudGVyOyIgeG1sbnM9Imh0dHA6Ly93d3cudzMub3JnLzE5OTkveGh0bWwiPjxzcGFuIHN0eWxlPSIiIGNsYXNzPSJub2RlTGFiZWwgbWFya2Rvd24tbm9kZS1sYWJlbCI+PHA+RmlsdHJvPC9wPjwvc3Bhbj48L2Rpdj48L2ZvcmVpZ25PYmplY3Q+PC9nPjwvZz48ZyB0cmFuc2Zvcm09InRyYW5zbGF0ZSgtMTQ2LjcxODc1LCAyMC45OTg2OTkxODgyMzI0MjIpIiBjbGFzcz0ibWVtYmVycy1ncm91cCB0ZXh0Ij48L2c+PGcgdHJhbnNmb3JtPSJ0cmFuc2xhdGUoLTE0Ni43MTg3NSwgNTAuOTk4Njk5MTg4MjMyNDIpIiBjbGFzcz0ibWV0aG9kcy1ncm91cCB0ZXh0Ij48ZyB0cmFuc2Zvcm09InRyYW5zbGF0ZSgwLC0xMS45OTg2OTcyODA4ODM3ODkpIiBzdHlsZT0iIiBjbGFzcz0ibGFiZWwiPjxmb3JlaWduT2JqZWN0IGhlaWdodD0iMjMuOTk3Mzk0NTYxNzY3NTc4IiB3aWR0aD0iMjUyLjI2NTYyNSI+PGRpdiBzdHlsZT0iZGlzcGxheTogdGFibGUtY2VsbDsgd2hpdGUtc3BhY2U6IG5vd3JhcDsgbGluZS1oZWlnaHQ6IDEuNTsgbWF4LXdpZHRoOiAzMDJweDsgdGV4dC1hbGlnbjogY2VudGVyOyIgeG1sbnM9Imh0dHA6Ly93d3cudzMub3JnLzE5OTkveGh0bWwiPjxzcGFuIHN0eWxlPSIiIGNsYXNzPSJub2RlTGFiZWwgbWFya2Rvd24tbm9kZS1sYWJlbCI+PHA+K2N1bXBsZUNvbihuOiBOb3RpY2lhKSA6IDogYm9vbGVhbjwvcD48L3NwYW4+PC9kaXY+PC9mb3JlaWduT2JqZWN0PjwvZz48L2c+PGcgc3R5bGU9IiIgY2xhc3M9ImRpdmlkZXIiPjxwYXRoIHN0eWxlPSIiIGZpbGw9Im5vbmUiIHN0cm9rZS13aWR0aD0iMS4zIiBzdHJva2U9IiM5OTkiIGQ9Ik0tMTU4LjcxODc1IC0zLjAwMTMwMDgxMTc2NzU3OCBDLTg1LjE0MjcyMDg5ODgxNDQzIC0zLjAwMTMwMDgxMTc2NzU3OCwgLTExLjU2NjY5MTc5NzYyODg2MyAtMy4wMDEzMDA4MTE3Njc1NzgsIDE1OC43MTg3NSAtMy4wMDEzMDA4MTE3Njc1NzggTS0xNTguNzE4NzUgLTMuMDAxMzAwODExNzY3NTc4IEMtNDEuMTcxNDI4OTA2Mzc1NCAtMy4wMDEzMDA4MTE3Njc1NzgsIDc2LjM3NTg5MjE4NzI0OTIgLTMuMDAxMzAwODExNzY3NTc4LCAxNTguNzE4NzUgLTMuMDAxMzAwODExNzY3NTc4Ij48L3BhdGg+PC9nPjxnIHN0eWxlPSIiIGNsYXNzPSJkaXZpZGVyIj48cGF0aCBzdHlsZT0iIiBmaWxsPSJub25lIiBzdHJva2Utd2lkdGg9IjEuMyIgc3Ryb2tlPSIjOTk5IiBkPSJNLTE1OC43MTg3NSAyMC45OTg2OTkxODgyMzI0MjIgQy02MS41MjU4MjI3MjAwMTMxMjQgMjAuOTk4Njk5MTg4MjMyNDIyLCAzNS42NjcxMDQ1NTk5NzM3NSAyMC45OTg2OTkxODgyMzI0MjIsIDE1OC43MTg3NSAyMC45OTg2OTkxODgyMzI0MjIgTS0xNTguNzE4NzUgMjAuOTk4Njk5MTg4MjMyNDIyIEMtNDQuNDY0NzY1NzIyODY0NzEgMjAuOTk4Njk5MTg4MjMyNDIyLCA2OS43ODkyMTg1NTQyNzA1OCAyMC45OTg2OTkxODgyMzI0MjIsIDE1OC43MTg3NSAyMC45OTg2OTkxODgyMzI0MjIiPjwvcGF0aD48L2c+PC9nPjxnIHRyYW5zZm9ybT0idHJhbnNsYXRlKDQ4OC43NTU1NDY1Njk4MjQyLCAxMjcuOTkwODgyODczNTM1MTYpIiBpZD0iY2xhc3NJZC1GaWx0cm9Qb3JUaXR1bG8tNzYiIGNsYXNzPSJub2RlIGRlZmF1bHQiPjxnIGNsYXNzPSJiYXNpYyBsYWJlbC1jb250YWluZXIiPjxwYXRoIHN0eWxlPSIiIGZpbGw9IiNlZWUiIHN0cm9rZS13aWR0aD0iMCIgc3Ryb2tlPSJub25lIiBkPSJNLTY2LjU3MDMxMjUgLTQxLjk5ODY5NzI4MDg4Mzc5IEw2Ni41NzAzMTI1IC00MS45OTg2OTcyODA4ODM3OSBMNjYuNTcwMzEyNSA0MS45OTg2OTcyODA4ODM3OSBMLTY2LjU3MDMxMjUgNDEuOTk4Njk3MjgwODgzNzkiPjwvcGF0aD48cGF0aCBzdHlsZT0iIiBmaWxsPSJub25lIiBzdHJva2Utd2lkdGg9IjEuMyIgc3Ryb2tlPSIjOTk5IiBkPSJNLTY2LjU3MDMxMjUgLTQxLjk5ODY5NzI4MDg4Mzc5IEMtMzkuMTgzMjQ4ODE5OTA0NTkgLTQxLjk5ODY5NzI4MDg4Mzc5LCAtMTEuNzk2MTg1MTM5ODA5MTgyIC00MS45OTg2OTcyODA4ODM3OSwgNjYuNTcwMzEyNSAtNDEuOTk4Njk3MjgwODgzNzkgTS02Ni41NzAzMTI1IC00MS45OTg2OTcyODA4ODM3OSBDLTE5LjgwMTI0ODY1MjA1Mzk0MyAtNDEuOTk4Njk3MjgwODgzNzksIDI2Ljk2NzgxNTE5NTg5MjExNSAtNDEuOTk4Njk3MjgwODgzNzksIDY2LjU3MDMxMjUgLTQxLjk5ODY5NzI4MDg4Mzc5IE02Ni41NzAzMTI1IC00MS45OTg2OTcyODA4ODM3OSBDNjYuNTcwMzEyNSAtOS43NzUwMzAwMjE1OTA2MDIsIDY2LjU3MDMxMjUgMjIuNDQ4NjM3MjM3NzAyNTg0LCA2Ni41NzAzMTI1IDQxLjk5ODY5NzI4MDg4Mzc5IE02Ni41NzAzMTI1IC00MS45OTg2OTcyODA4ODM3OSBDNjYuNTcwMzEyNSAtMTYuMjU3MDI2NjQ5MzA3NTI3LCA2Ni41NzAzMTI1IDkuNDg0NjQzOTgyMjY4NzM2LCA2Ni41NzAzMTI1IDQxLjk5ODY5NzI4MDg4Mzc5IE02Ni41NzAzMTI1IDQxLjk5ODY5NzI4MDg4Mzc5IEMxOS42MjU2Njg0MjQ3NzcxMzIgNDEuOTk4Njk3MjgwODgzNzksIC0yNy4zMTg5NzU2NTA0NDU3MzYgNDEuOTk4Njk3MjgwODgzNzksIC02Ni41NzAzMTI1IDQxLjk5ODY5NzI4MDg4Mzc5IE02Ni41NzAzMTI1IDQxLjk5ODY5NzI4MDg4Mzc5IEMyNi43OTQwOTc5ODQwMDc0OTMgNDEuOTk4Njk3MjgwODgzNzksIC0xMi45ODIxMTY1MzE5ODUwMTQgNDEuOTk4Njk3MjgwODgzNzksIC02Ni41NzAzMTI1IDQxLjk5ODY5NzI4MDg4Mzc5IE0tNjYuNTcwMzEyNSA0MS45OTg2OTcyODA4ODM3OSBDLTY2LjU3MDMxMjUgMTYuNTk2MzM5NDcyMTM1NzY0LCAtNjYuNTcwMzEyNSAtOC44MDYwMTgzMzY2MTIyNjIsIC02Ni41NzAzMTI1IC00MS45OTg2OTcyODA4ODM3OSBNLTY2LjU3MDMxMjUgNDEuOTk4Njk3MjgwODgzNzkgQy02Ni41NzAzMTI1IDkuOTM4NzY0NzU3MDQ4ODAxLCAtNjYuNTcwMzEyNSAtMjIuMTIxMTY3NzY2Nzg2MTg2LCAtNjYuNTcwMzEyNSAtNDEuOTk4Njk3MjgwODgzNzkiPjwvcGF0aD48L2c+PGcgdHJhbnNmb3JtPSJ0cmFuc2xhdGUoMCwgLTE3Ljk5ODY5NzI4MDg4Mzc5KSIgY2xhc3M9ImFubm90YXRpb24tZ3JvdXAgdGV4dCI+PC9nPjxnIHRyYW5zZm9ybT0idHJhbnNsYXRlKC01NC41NzAzMTI1LCAtMTcuOTk4Njk3MjgwODgzNzkpIiBjbGFzcz0ibGFiZWwtZ3JvdXAgdGV4dCI+PGcgdHJhbnNmb3JtPSJ0cmFuc2xhdGUoMCwtMTEuOTk4Njk3MjgwODgzNzg5KSIgc3R5bGU9ImZvbnQtd2VpZ2h0OiBib2xkZXIiIGNsYXNzPSJsYWJlbCI+PGZvcmVpZ25PYmplY3QgaGVpZ2h0PSIyMy45OTczOTQ1NjE3Njc1NzgiIHdpZHRoPSIxMDkuMTQwNjI1Ij48ZGl2IHN0eWxlPSJkaXNwbGF5OiB0YWJsZS1jZWxsOyB3aGl0ZS1zcGFjZTogbm93cmFwOyBsaW5lLWhlaWdodDogMS41OyBtYXgtd2lkdGg6IDE0OXB4OyB0ZXh0LWFsaWduOiBjZW50ZXI7IiB4bWxucz0iaHR0cDovL3d3dy53My5vcmcvMTk5OS94aHRtbCI+PHNwYW4gc3R5bGU9IiIgY2xhc3M9Im5vZGVMYWJlbCBtYXJrZG93bi1ub2RlLWxhYmVsIj48cD5GaWx0cm9Qb3JUaXR1bG88L3A+PC9zcGFuPjwvZGl2PjwvZm9yZWlnbk9iamVjdD48L2c+PC9nPjxnIHRyYW5zZm9ybT0idHJhbnNsYXRlKC01NC41NzAzMTI1LCAyOS45OTg2OTcyODA4ODM3OSkiIGNsYXNzPSJtZW1iZXJzLWdyb3VwIHRleHQiPjwvZz48ZyB0cmFuc2Zvcm09InRyYW5zbGF0ZSgtNTQuNTcwMzEyNSwgNTkuOTk4Njk3MjgwODgzNzkpIiBjbGFzcz0ibWV0aG9kcy1ncm91cCB0ZXh0Ij48L2c+PGcgc3R5bGU9IiIgY2xhc3M9ImRpdmlkZXIiPjxwYXRoIHN0eWxlPSIiIGZpbGw9Im5vbmUiIHN0cm9rZS13aWR0aD0iMS4zIiBzdHJva2U9IiM5OTkiIGQ9Ik0tNjYuNTcwMzEyNSA1Ljk5ODY5NzI4MDg4Mzc4OSBDLTIzLjQ0MjU5NzIxNzMzNDc4IDUuOTk4Njk3MjgwODgzNzg5LCAxOS42ODUxMTgwNjUzMzA0NDMgNS45OTg2OTcyODA4ODM3ODksIDY2LjU3MDMxMjUgNS45OTg2OTcyODA4ODM3ODkgTS02Ni41NzAzMTI1IDUuOTk4Njk3MjgwODgzNzg5IEMtMjEuNTYxODc0NDI5NjY1NzE0IDUuOTk4Njk3MjgwODgzNzg5LCAyMy40NDY1NjM2NDA2Njg1NzIgNS45OTg2OTcyODA4ODM3ODksIDY2LjU3MDMxMjUgNS45OTg2OTcyODA4ODM3ODkiPjwvcGF0aD48L2c+PGcgc3R5bGU9IiIgY2xhc3M9ImRpdmlkZXIiPjxwYXRoIHN0eWxlPSIiIGZpbGw9Im5vbmUiIHN0cm9rZS13aWR0aD0iMS4zIiBzdHJva2U9IiM5OTkiIGQ9Ik0tNjYuNTcwMzEyNSAyMy45OTg2OTcyODA4ODM3OSBDLTE0LjQwNjg3MDYwNTUzMjc3NCAyMy45OTg2OTcyODA4ODM3OSwgMzcuNzU2NTcxMjg4OTM0NDUgMjMuOTk4Njk3MjgwODgzNzksIDY2LjU3MDMxMjUgMjMuOTk4Njk3MjgwODgzNzkgTS02Ni41NzAzMTI1IDIzLjk5ODY5NzI4MDg4Mzc5IEMtMzEuMjk1NDMzMDgyNDU3ODM0IDIzLjk5ODY5NzI4MDg4Mzc5LCAzLjk3OTQ0NjMzNTA4NDMzMyAyMy45OTg2OTcyODA4ODM3OSwgNjYuNTcwMzEyNSAyMy45OTg2OTcyODA4ODM3OSI+PC9wYXRoPjwvZz48L2c+PGcgdHJhbnNmb3JtPSJ0cmFuc2xhdGUoNjc3LjQxMDQ5MTk0MzM1OTQsIDEyNy45OTA4ODI4NzM1MzUxNikiIGlkPSJjbGFzc0lkLUZpbHRyb1BvclBhbGFicmEtNzciIGNsYXNzPSJub2RlIGRlZmF1bHQiPjxnIGNsYXNzPSJiYXNpYyBsYWJlbC1jb250YWluZXIiPjxwYXRoIHN0eWxlPSIiIGZpbGw9IiNlZWUiIHN0cm9rZS13aWR0aD0iMCIgc3Ryb2tlPSJub25lIiBkPSJNLTcyLjA4NDYzMjg3MzUzNTE2IC00MS45OTg2OTcyODA4ODM3OSBMNzIuMDg0NjMyODczNTM1MTYgLTQxLjk5ODY5NzI4MDg4Mzc5IEw3Mi4wODQ2MzI4NzM1MzUxNiA0MS45OTg2OTcyODA4ODM3OSBMLTcyLjA4NDYzMjg3MzUzNTE2IDQxLjk5ODY5NzI4MDg4Mzc5Ij48L3BhdGg+PHBhdGggc3R5bGU9IiIgZmlsbD0ibm9uZSIgc3Ryb2tlLXdpZHRoPSIxLjMiIHN0cm9rZT0iIzk5OSIgZD0iTS03Mi4wODQ2MzI4NzM1MzUxNiAtNDEuOTk4Njk3MjgwODgzNzkgQy0zNy40Mjg2MzQ3OTY0MjYwNCAtNDEuOTk4Njk3MjgwODgzNzksIC0yLjc3MjYzNjcxOTMxNjkyMSAtNDEuOTk4Njk3MjgwODgzNzksIDcyLjA4NDYzMjg3MzUzNTE2IC00MS45OTg2OTcyODA4ODM3OSBNLTcyLjA4NDYzMjg3MzUzNTE2IC00MS45OTg2OTcyODA4ODM3OSBDLTM4LjQ4Njk3NjgzNTYwNzYzNSAtNDEuOTk4Njk3MjgwODgzNzksIC00Ljg4OTMyMDc5NzY4MDExNCAtNDEuOTk4Njk3MjgwODgzNzksIDcyLjA4NDYzMjg3MzUzNTE2IC00MS45OTg2OTcyODA4ODM3OSBNNzIuMDg0NjMyODczNTM1MTYgLTQxLjk5ODY5NzI4MDg4Mzc5IEM3Mi4wODQ2MzI4NzM1MzUxNiAtMTguOTE1OTM2NzQ3NDgxNTA2LCA3Mi4wODQ2MzI4NzM1MzUxNiA0LjE2NjgyMzc4NTkyMDc3NiwgNzIuMDg0NjMyODczNTM1MTYgNDEuOTk4Njk3MjgwODgzNzkgTTcyLjA4NDYzMjg3MzUzNTE2IC00MS45OTg2OTcyODA4ODM3OSBDNzIuMDg0NjMyODczNTM1MTYgLTEwLjUzODE1NDE3MDQ3NDczLCA3Mi4wODQ2MzI4NzM1MzUxNiAyMC45MjIzODg5Mzk5MzQzMywgNzIuMDg0NjMyODczNTM1MTYgNDEuOTk4Njk3MjgwODgzNzkgTTcyLjA4NDYzMjg3MzUzNTE2IDQxLjk5ODY5NzI4MDg4Mzc5IEMyNi43NTkzNDkwNDY4MTE5NCA0MS45OTg2OTcyODA4ODM3OSwgLTE4LjU2NTkzNDc3OTkxMTI3NCA0MS45OTg2OTcyODA4ODM3OSwgLTcyLjA4NDYzMjg3MzUzNTE2IDQxLjk5ODY5NzI4MDg4Mzc5IE03Mi4wODQ2MzI4NzM1MzUxNiA0MS45OTg2OTcyODA4ODM3OSBDMTkuNjU0MDQ0ODU2NzQxMDk1IDQxLjk5ODY5NzI4MDg4Mzc5LCAtMzIuNzc2NTQzMTYwMDUyOTcgNDEuOTk4Njk3MjgwODgzNzksIC03Mi4wODQ2MzI4NzM1MzUxNiA0MS45OTg2OTcyODA4ODM3OSBNLTcyLjA4NDYzMjg3MzUzNTE2IDQxLjk5ODY5NzI4MDg4Mzc5IEMtNzIuMDg0NjMyODczNTM1MTYgOC43MDczNDQ3Mjc3NzMxOTcsIC03Mi4wODQ2MzI4NzM1MzUxNiAtMjQuNTg0MDA3ODI1MzM3Mzk1LCAtNzIuMDg0NjMyODczNTM1MTYgLTQxLjk5ODY5NzI4MDg4Mzc5IE0tNzIuMDg0NjMyODczNTM1MTYgNDEuOTk4Njk3MjgwODgzNzkgQy03Mi4wODQ2MzI4NzM1MzUxNiAyMS4zMjI4NzMwOTQ4MDIxODcsIC03Mi4wODQ2MzI4NzM1MzUxNiAwLjY0NzA0ODkwODcyMDU4NDgsIC03Mi4wODQ2MzI4NzM1MzUxNiAtNDEuOTk4Njk3MjgwODgzNzkiPjwvcGF0aD48L2c+PGcgdHJhbnNmb3JtPSJ0cmFuc2xhdGUoMCwgLTE3Ljk5ODY5NzI4MDg4Mzc5KSIgY2xhc3M9ImFubm90YXRpb24tZ3JvdXAgdGV4dCI+PC9nPjxnIHRyYW5zZm9ybT0idHJhbnNsYXRlKC02MC4wODQ2MzI4NzM1MzUxNTYsIC0xNy45OTg2OTcyODA4ODM3OSkiIGNsYXNzPSJsYWJlbC1ncm91cCB0ZXh0Ij48ZyB0cmFuc2Zvcm09InRyYW5zbGF0ZSgwLC0xMS45OTg2OTcyODA4ODM3ODkpIiBzdHlsZT0iZm9udC13ZWlnaHQ6IGJvbGRlciIgY2xhc3M9ImxhYmVsIj48Zm9yZWlnbk9iamVjdCBoZWlnaHQ9IjIzLjk5NzM5NDU2MTc2NzU3OCIgd2lkdGg9IjEyMC4xNjkyNjU3NDcwNzAzMSI+PGRpdiBzdHlsZT0iZGlzcGxheTogdGFibGUtY2VsbDsgd2hpdGUtc3BhY2U6IG5vd3JhcDsgbGluZS1oZWlnaHQ6IDEuNTsgbWF4LXdpZHRoOiAxNjFweDsgdGV4dC1hbGlnbjogY2VudGVyOyIgeG1sbnM9Imh0dHA6Ly93d3cudzMub3JnLzE5OTkveGh0bWwiPjxzcGFuIHN0eWxlPSIiIGNsYXNzPSJub2RlTGFiZWwgbWFya2Rvd24tbm9kZS1sYWJlbCI+PHA+RmlsdHJvUG9yUGFsYWJyYTwvcD48L3NwYW4+PC9kaXY+PC9mb3JlaWduT2JqZWN0PjwvZz48L2c+PGcgdHJhbnNmb3JtPSJ0cmFuc2xhdGUoLTYwLjA4NDYzMjg3MzUzNTE1NiwgMjkuOTk4Njk3MjgwODgzNzkpIiBjbGFzcz0ibWVtYmVycy1ncm91cCB0ZXh0Ij48L2c+PGcgdHJhbnNmb3JtPSJ0cmFuc2xhdGUoLTYwLjA4NDYzMjg3MzUzNTE1NiwgNTkuOTk4Njk3MjgwODgzNzkpIiBjbGFzcz0ibWV0aG9kcy1ncm91cCB0ZXh0Ij48L2c+PGcgc3R5bGU9IiIgY2xhc3M9ImRpdmlkZXIiPjxwYXRoIHN0eWxlPSIiIGZpbGw9Im5vbmUiIHN0cm9rZS13aWR0aD0iMS4zIiBzdHJva2U9IiM5OTkiIGQ9Ik0tNzIuMDg0NjMyODczNTM1MTYgNS45OTg2OTcyODA4ODM3ODkgQy0zNS40MjA3NzQ0NTk0ODUyNyA1Ljk5ODY5NzI4MDg4Mzc4OSwgMS4yNDMwODM5NTQ1NjQ2MTA4IDUuOTk4Njk3MjgwODgzNzg5LCA3Mi4wODQ2MzI4NzM1MzUxNiA1Ljk5ODY5NzI4MDg4Mzc4OSBNLTcyLjA4NDYzMjg3MzUzNTE2IDUuOTk4Njk3MjgwODgzNzg5IEMtMzcuODUyODk1NDA5NTk3MTkgNS45OTg2OTcyODA4ODM3ODksIC0zLjYyMTE1Nzk0NTY1OTIyMDQgNS45OTg2OTcyODA4ODM3ODksIDcyLjA4NDYzMjg3MzUzNTE2IDUuOTk4Njk3MjgwODgzNzg5Ij48L3BhdGg+PC9nPjxnIHN0eWxlPSIiIGNsYXNzPSJkaXZpZGVyIj48cGF0aCBzdHlsZT0iIiBmaWxsPSJub25lIiBzdHJva2Utd2lkdGg9IjEuMyIgc3Ryb2tlPSIjOTk5IiBkPSJNLTcyLjA4NDYzMjg3MzUzNTE2IDIzLjk5ODY5NzI4MDg4Mzc5IEMtMzYuNTI1MzU4NDQ4OTM4MDg2IDIzLjk5ODY5NzI4MDg4Mzc5LCAtMC45NjYwODQwMjQzNDEwMTQ5IDIzLjk5ODY5NzI4MDg4Mzc5LCA3Mi4wODQ2MzI4NzM1MzUxNiAyMy45OTg2OTcyODA4ODM3OSBNLTcyLjA4NDYzMjg3MzUzNTE2IDIzLjk5ODY5NzI4MDg4Mzc5IEMtMjQuMDk2Mzk5MDM2ODI4NDIzIDIzLjk5ODY5NzI4MDg4Mzc5LCAyMy44OTE4MzQ3OTk4NzgzMSAyMy45OTg2OTcyODA4ODM3OSwgNzIuMDg0NjMyODczNTM1MTYgMjMuOTk4Njk3MjgwODgzNzkiPjwvcGF0aD48L2c+PC9nPjxnIHRyYW5zZm9ybT0idHJhbnNsYXRlKDkwNi43MTY0NzY0NDA0Mjk3LCAxMjcuOTkwODgyODczNTM1MTYpIiBpZD0iY2xhc3NJZC1GaWx0cm9Qb3JDYW50UGFsYWJyYXNNYXgtNzgiIGNsYXNzPSJub2RlIGRlZmF1bHQiPjxnIGNsYXNzPSJiYXNpYyBsYWJlbC1jb250YWluZXIiPjxwYXRoIHN0eWxlPSIiIGZpbGw9IiNlZWUiIHN0cm9rZS13aWR0aD0iMCIgc3Ryb2tlPSJub25lIiBkPSJNLTEwNy4yMjEzNTE2MjM1MzUxNiAtNDEuOTk4Njk3MjgwODgzNzkgTDEwNy4yMjEzNTE2MjM1MzUxNiAtNDEuOTk4Njk3MjgwODgzNzkgTDEwNy4yMjEzNTE2MjM1MzUxNiA0MS45OTg2OTcyODA4ODM3OSBMLTEwNy4yMjEzNTE2MjM1MzUxNiA0MS45OTg2OTcyODA4ODM3OSI+PC9wYXRoPjxwYXRoIHN0eWxlPSIiIGZpbGw9Im5vbmUiIHN0cm9rZS13aWR0aD0iMS4zIiBzdHJva2U9IiM5OTkiIGQ9Ik0tMTA3LjIyMTM1MTYyMzUzNTE2IC00MS45OTg2OTcyODA4ODM3OSBDLTU5LjMxNDAxMTI5NDgzNDUgLTQxLjk5ODY5NzI4MDg4Mzc5LCAtMTEuNDA2NjcwOTY2MTMzODQ1IC00MS45OTg2OTcyODA4ODM3OSwgMTA3LjIyMTM1MTYyMzUzNTE2IC00MS45OTg2OTcyODA4ODM3OSBNLTEwNy4yMjEzNTE2MjM1MzUxNiAtNDEuOTk4Njk3MjgwODgzNzkgQy00NC45MzQ0Mzc3NjE2ODc4MjUgLTQxLjk5ODY5NzI4MDg4Mzc5LCAxNy4zNTI0NzYxMDAxNTk1MDcgLTQxLjk5ODY5NzI4MDg4Mzc5LCAxMDcuMjIxMzUxNjIzNTM1MTYgLTQxLjk5ODY5NzI4MDg4Mzc5IE0xMDcuMjIxMzUxNjIzNTM1MTYgLTQxLjk5ODY5NzI4MDg4Mzc5IEMxMDcuMjIxMzUxNjIzNTM1MTYgLTIyLjgwNDYxODU5NjkzMzE5NiwgMTA3LjIyMTM1MTYyMzUzNTE2IC0zLjYxMDUzOTkxMjk4MjYwMjYsIDEwNy4yMjEzNTE2MjM1MzUxNiA0MS45OTg2OTcyODA4ODM3OSBNMTA3LjIyMTM1MTYyMzUzNTE2IC00MS45OTg2OTcyODA4ODM3OSBDMTA3LjIyMTM1MTYyMzUzNTE2IC0xMy4xNDAxMTk2Njc5MTIyMTMsIDEwNy4yMjEzNTE2MjM1MzUxNiAxNS43MTg0NTc5NDUwNTkzNjMsIDEwNy4yMjEzNTE2MjM1MzUxNiA0MS45OTg2OTcyODA4ODM3OSBNMTA3LjIyMTM1MTYyMzUzNTE2IDQxLjk5ODY5NzI4MDg4Mzc5IEM0Ni44MzQ2MzQxNzE3NDk3MDUgNDEuOTk4Njk3MjgwODgzNzksIC0xMy41NTIwODMyODAwMzU3NDUgNDEuOTk4Njk3MjgwODgzNzksIC0xMDcuMjIxMzUxNjIzNTM1MTYgNDEuOTk4Njk3MjgwODgzNzkgTTEwNy4yMjEzNTE2MjM1MzUxNiA0MS45OTg2OTcyODA4ODM3OSBDNjIuNDg1NzY3ODMzOTgxMjEgNDEuOTk4Njk3MjgwODgzNzksIDE3Ljc1MDE4NDA0NDQyNzI1NyA0MS45OTg2OTcyODA4ODM3OSwgLTEwNy4yMjEzNTE2MjM1MzUxNiA0MS45OTg2OTcyODA4ODM3OSBNLTEwNy4yMjEzNTE2MjM1MzUxNiA0MS45OTg2OTcyODA4ODM3OSBDLTEwNy4yMjEzNTE2MjM1MzUxNiAxMS40NjM5MDM0OTk2NDMzMDEsIC0xMDcuMjIxMzUxNjIzNTM1MTYgLTE5LjA3MDg5MDI4MTU5NzE4NywgLTEwNy4yMjEzNTE2MjM1MzUxNiAtNDEuOTk4Njk3MjgwODgzNzkgTS0xMDcuMjIxMzUxNjIzNTM1MTYgNDEuOTk4Njk3MjgwODgzNzkgQy0xMDcuMjIxMzUxNjIzNTM1MTYgMTAuMjE4MTQ5NDkxMDk5NDI1LCAtMTA3LjIyMTM1MTYyMzUzNTE2IC0yMS41NjIzOTgyOTg2ODQ5NCwgLTEwNy4yMjEzNTE2MjM1MzUxNiAtNDEuOTk4Njk3MjgwODgzNzkiPjwvcGF0aD48L2c+PGcgdHJhbnNmb3JtPSJ0cmFuc2xhdGUoMCwgLTE3Ljk5ODY5NzI4MDg4Mzc5KSIgY2xhc3M9ImFubm90YXRpb24tZ3JvdXAgdGV4dCI+PC9nPjxnIHRyYW5zZm9ybT0idHJhbnNsYXRlKC05NS4yMjEzNTE2MjM1MzUxNiwgLTE3Ljk5ODY5NzI4MDg4Mzc5KSIgY2xhc3M9ImxhYmVsLWdyb3VwIHRleHQiPjxnIHRyYW5zZm9ybT0idHJhbnNsYXRlKDAsLTExLjk5ODY5NzI4MDg4Mzc4OSkiIHN0eWxlPSJmb250LXdlaWdodDogYm9sZGVyIiBjbGFzcz0ibGFiZWwiPjxmb3JlaWduT2JqZWN0IGhlaWdodD0iMjMuOTk3Mzk0NTYxNzY3NTc4IiB3aWR0aD0iMTkwLjQ0MjcwMzI0NzA3MDMiPjxkaXYgc3R5bGU9ImRpc3BsYXk6IHRhYmxlLWNlbGw7IHdoaXRlLXNwYWNlOiBub3dyYXA7IGxpbmUtaGVpZ2h0OiAxLjU7IG1heC13aWR0aDogMjMwcHg7IHRleHQtYWxpZ246IGNlbnRlcjsiIHhtbG5zPSJodHRwOi8vd3d3LnczLm9yZy8xOTk5L3hodG1sIj48c3BhbiBzdHlsZT0iIiBjbGFzcz0ibm9kZUxhYmVsIG1hcmtkb3duLW5vZGUtbGFiZWwiPjxwPkZpbHRyb1BvckNhbnRQYWxhYnJhc01heDwvcD48L3NwYW4+PC9kaXY+PC9mb3JlaWduT2JqZWN0PjwvZz48L2c+PGcgdHJhbnNmb3JtPSJ0cmFuc2xhdGUoLTk1LjIyMTM1MTYyMzUzNTE2LCAyOS45OTg2OTcyODA4ODM3OSkiIGNsYXNzPSJtZW1iZXJzLWdyb3VwIHRleHQiPjwvZz48ZyB0cmFuc2Zvcm09InRyYW5zbGF0ZSgtOTUuMjIxMzUxNjIzNTM1MTYsIDU5Ljk5ODY5NzI4MDg4Mzc5KSIgY2xhc3M9Im1ldGhvZHMtZ3JvdXAgdGV4dCI+PC9nPjxnIHN0eWxlPSIiIGNsYXNzPSJkaXZpZGVyIj48cGF0aCBzdHlsZT0iIiBmaWxsPSJub25lIiBzdHJva2Utd2lkdGg9IjEuMyIgc3Ryb2tlPSIjOTk5IiBkPSJNLTEwNy4yMjEzNTE2MjM1MzUxNiA1Ljk5ODY5NzI4MDg4Mzc4OSBDLTMyLjQ5NjIwOTk1Mzc0NDU1NCA1Ljk5ODY5NzI4MDg4Mzc4OSwgNDIuMjI4OTMxNzE2MDQ2MDUgNS45OTg2OTcyODA4ODM3ODksIDEwNy4yMjEzNTE2MjM1MzUxNiA1Ljk5ODY5NzI4MDg4Mzc4OSBNLTEwNy4yMjEzNTE2MjM1MzUxNiA1Ljk5ODY5NzI4MDg4Mzc4OSBDLTIzLjM0OTQxNzU5NDU0MTExIDUuOTk4Njk3MjgwODgzNzg5LCA2MC41MjI1MTY0MzQ0NTI5NCA1Ljk5ODY5NzI4MDg4Mzc4OSwgMTA3LjIyMTM1MTYyMzUzNTE2IDUuOTk4Njk3MjgwODgzNzg5Ij48L3BhdGg+PC9nPjxnIHN0eWxlPSIiIGNsYXNzPSJkaXZpZGVyIj48cGF0aCBzdHlsZT0iIiBmaWxsPSJub25lIiBzdHJva2Utd2lkdGg9IjEuMyIgc3Ryb2tlPSIjOTk5IiBkPSJNLTEwNy4yMjEzNTE2MjM1MzUxNiAyMy45OTg2OTcyODA4ODM3OSBDLTI3LjM0Nzc5NTM2MTY1MjgyOCAyMy45OTg2OTcyODA4ODM3OSwgNTIuNTI1NzYwOTAwMjI5NSAyMy45OTg2OTcyODA4ODM3OSwgMTA3LjIyMTM1MTYyMzUzNTE2IDIzLjk5ODY5NzI4MDg4Mzc5IE0tMTA3LjIyMTM1MTYyMzUzNTE2IDIzLjk5ODY5NzI4MDg4Mzc5IEMtNDUuOTcwMDAxNTgxNjE2NjkgMjMuOTk4Njk3MjgwODgzNzksIDE1LjI4MTM0ODQ2MDMwMTc3MSAyMy45OTg2OTcyODA4ODM3OSwgMTA3LjIyMTM1MTYyMzUzNTE2IDIzLjk5ODY5NzI4MDg4Mzc5Ij48L3BhdGg+PC9nPjwvZz48ZyB0cmFuc2Zvcm09InRyYW5zbGF0ZSgxMTMyLjAwNTUzMTMxMTAzNTIsIDEyNy45OTA4ODI4NzM1MzUxNikiIGlkPSJjbGFzc0lkLUZpbHRyb0NhdGVnb3JpYS03OSIgY2xhc3M9Im5vZGUgZGVmYXVsdCI+PGcgY2xhc3M9ImJhc2ljIGxhYmVsLWNvbnRhaW5lciI+PHBhdGggc3R5bGU9IiIgZmlsbD0iI2VlZSIgc3Ryb2tlLXdpZHRoPSIwIiBzdHJva2U9Im5vbmUiIGQ9Ik0tNjguMDY3NzA3MDYxNzY3NTggLTQxLjk5ODY5NzI4MDg4Mzc5IEw2OC4wNjc3MDcwNjE3Njc1OCAtNDEuOTk4Njk3MjgwODgzNzkgTDY4LjA2NzcwNzA2MTc2NzU4IDQxLjk5ODY5NzI4MDg4Mzc5IEwtNjguMDY3NzA3MDYxNzY3NTggNDEuOTk4Njk3MjgwODgzNzkiPjwvcGF0aD48cGF0aCBzdHlsZT0iIiBmaWxsPSJub25lIiBzdHJva2Utd2lkdGg9IjEuMyIgc3Ryb2tlPSIjOTk5IiBkPSJNLTY4LjA2NzcwNzA2MTc2NzU4IC00MS45OTg2OTcyODA4ODM3OSBDLTE4LjE2MjQzOTIxMjM0MzgyNyAtNDEuOTk4Njk3MjgwODgzNzksIDMxLjc0MjgyODYzNzA3OTkyNCAtNDEuOTk4Njk3MjgwODgzNzksIDY4LjA2NzcwNzA2MTc2NzU4IC00MS45OTg2OTcyODA4ODM3OSBNLTY4LjA2NzcwNzA2MTc2NzU4IC00MS45OTg2OTcyODA4ODM3OSBDLTI0LjgzMjUzMzg2ODAxNzAwMiAtNDEuOTk4Njk3MjgwODgzNzksIDE4LjQwMjYzOTMyNTczMzU3NCAtNDEuOTk4Njk3MjgwODgzNzksIDY4LjA2NzcwNzA2MTc2NzU4IC00MS45OTg2OTcyODA4ODM3OSBNNjguMDY3NzA3MDYxNzY3NTggLTQxLjk5ODY5NzI4MDg4Mzc5IEM2OC4wNjc3MDcwNjE3Njc1OCAtMTAuNjExMjI2OTk4ODg3NjQxLCA2OC4wNjc3MDcwNjE3Njc1OCAyMC43NzYyNDMyODMxMDg1MDYsIDY4LjA2NzcwNzA2MTc2NzU4IDQxLjk5ODY5NzI4MDg4Mzc5IE02OC4wNjc3MDcwNjE3Njc1OCAtNDEuOTk4Njk3MjgwODgzNzkgQzY4LjA2NzcwNzA2MTc2NzU4IC0yMC45NDM1NTg4NTIwMzUyODQsIDY4LjA2NzcwNzA2MTc2NzU4IDAuMTExNTc5NTc2ODEzMjIwMTcsIDY4LjA2NzcwNzA2MTc2NzU4IDQxLjk5ODY5NzI4MDg4Mzc5IE02OC4wNjc3MDcwNjE3Njc1OCA0MS45OTg2OTcyODA4ODM3OSBDMzQuMzc5MDI1NDg5NDI1MjQgNDEuOTk4Njk3MjgwODgzNzksIDAuNjkwMzQzOTE3MDgyODk4OSA0MS45OTg2OTcyODA4ODM3OSwgLTY4LjA2NzcwNzA2MTc2NzU4IDQxLjk5ODY5NzI4MDg4Mzc5IE02OC4wNjc3MDcwNjE3Njc1OCA0MS45OTg2OTcyODA4ODM3OSBDMjguMTgxOTM5MjA5NTE0MDkgNDEuOTk4Njk3MjgwODgzNzksIC0xMS43MDM4Mjg2NDI3MzkzOTYgNDEuOTk4Njk3MjgwODgzNzksIC02OC4wNjc3MDcwNjE3Njc1OCA0MS45OTg2OTcyODA4ODM3OSBNLTY4LjA2NzcwNzA2MTc2NzU4IDQxLjk5ODY5NzI4MDg4Mzc5IEMtNjguMDY3NzA3MDYxNzY3NTggMjQuMTYxMDY0MzA1NDc2Mjg3LCAtNjguMDY3NzA3MDYxNzY3NTggNi4zMjM0MzEzMzAwNjg3ODYsIC02OC4wNjc3MDcwNjE3Njc1OCAtNDEuOTk4Njk3MjgwODgzNzkgTS02OC4wNjc3MDcwNjE3Njc1OCA0MS45OTg2OTcyODA4ODM3OSBDLTY4LjA2NzcwNzA2MTc2NzU4IDkuMzQ1MTE3MDQyNzIyNDA3LCAtNjguMDY3NzA3MDYxNzY3NTggLTIzLjMwODQ2MzE5NTQzODk3NSwgLTY4LjA2NzcwNzA2MTc2NzU4IC00MS45OTg2OTcyODA4ODM3OSI+PC9wYXRoPjwvZz48ZyB0cmFuc2Zvcm09InRyYW5zbGF0ZSgwLCAtMTcuOTk4Njk3MjgwODgzNzkpIiBjbGFzcz0iYW5ub3RhdGlvbi1ncm91cCB0ZXh0Ij48L2c+PGcgdHJhbnNmb3JtPSJ0cmFuc2xhdGUoLTU2LjA2NzcwNzA2MTc2NzU4LCAtMTcuOTk4Njk3MjgwODgzNzkpIiBjbGFzcz0ibGFiZWwtZ3JvdXAgdGV4dCI+PGcgdHJhbnNmb3JtPSJ0cmFuc2xhdGUoMCwtMTEuOTk4Njk3MjgwODgzNzg5KSIgc3R5bGU9ImZvbnQtd2VpZ2h0OiBib2xkZXIiIGNsYXNzPSJsYWJlbCI+PGZvcmVpZ25PYmplY3QgaGVpZ2h0PSIyMy45OTczOTQ1NjE3Njc1NzgiIHdpZHRoPSIxMTIuMTM1NDE0MTIzNTM1MTYiPjxkaXYgc3R5bGU9ImRpc3BsYXk6IHRhYmxlLWNlbGw7IHdoaXRlLXNwYWNlOiBub3dyYXA7IGxpbmUtaGVpZ2h0OiAxLjU7IG1heC13aWR0aDogMTU0cHg7IHRleHQtYWxpZ246IGNlbnRlcjsiIHhtbG5zPSJodHRwOi8vd3d3LnczLm9yZy8xOTk5L3hodG1sIj48c3BhbiBzdHlsZT0iIiBjbGFzcz0ibm9kZUxhYmVsIG1hcmtkb3duLW5vZGUtbGFiZWwiPjxwPkZpbHRyb0NhdGVnb3JpYTwvcD48L3NwYW4+PC9kaXY+PC9mb3JlaWduT2JqZWN0PjwvZz48L2c+PGcgdHJhbnNmb3JtPSJ0cmFuc2xhdGUoLTU2LjA2NzcwNzA2MTc2NzU4LCAyOS45OTg2OTcyODA4ODM3OSkiIGNsYXNzPSJtZW1iZXJzLWdyb3VwIHRleHQiPjwvZz48ZyB0cmFuc2Zvcm09InRyYW5zbGF0ZSgtNTYuMDY3NzA3MDYxNzY3NTgsIDU5Ljk5ODY5NzI4MDg4Mzc5KSIgY2xhc3M9Im1ldGhvZHMtZ3JvdXAgdGV4dCI+PC9nPjxnIHN0eWxlPSIiIGNsYXNzPSJkaXZpZGVyIj48cGF0aCBzdHlsZT0iIiBmaWxsPSJub25lIiBzdHJva2Utd2lkdGg9IjEuMyIgc3Ryb2tlPSIjOTk5IiBkPSJNLTY4LjA2NzcwMzI0NzA3MDMxIDUuOTk4Njk3MjgwODgzNzg5IEMtMjUuNzE5NDI2Njg3NDkyNDMgNS45OTg2OTcyODA4ODM3ODksIDE2LjYyODg0OTg3MjA4NTQ1MyA1Ljk5ODY5NzI4MDg4Mzc4OSwgNjguMDY3NzAzMjQ3MDcwMzEgNS45OTg2OTcyODA4ODM3ODkgTS02OC4wNjc3MDMyNDcwNzAzMSA1Ljk5ODY5NzI4MDg4Mzc4OSBDLTM1LjYxNTI5NjYyNzcyNjkyIDUuOTk4Njk3MjgwODgzNzg5LCAtMy4xNjI4OTAwMDgzODM1Mjc2IDUuOTk4Njk3MjgwODgzNzg5LCA2OC4wNjc3MDMyNDcwNzAzMSA1Ljk5ODY5NzI4MDg4Mzc4OSI+PC9wYXRoPjwvZz48ZyBzdHlsZT0iIiBjbGFzcz0iZGl2aWRlciI+PHBhdGggc3R5bGU9IiIgZmlsbD0ibm9uZSIgc3Ryb2tlLXdpZHRoPSIxLjMiIHN0cm9rZT0iIzk5OSIgZD0iTS02OC4wNjc3MDMyNDcwNzAzMSAyMy45OTg2OTcyODA4ODM3OSBDLTMwLjQ4NjAwMDUwMTE5OTU2MyAyMy45OTg2OTcyODA4ODM3OSwgNy4wOTU3MDIyNDQ2NzExODc1IDIzLjk5ODY5NzI4MDg4Mzc5LCA2OC4wNjc3MDMyNDcwNzAzMSAyMy45OTg2OTcyODA4ODM3OSBNLTY4LjA2NzcwMzI0NzA3MDMxIDIzLjk5ODY5NzI4MDg4Mzc5IEMtMjAuMTI0NTg1NzMyNzc5ODU2IDIzLjk5ODY5NzI4MDg4Mzc5LCAyNy44MTg1MzE3ODE1MTA2IDIzLjk5ODY5NzI4MDg4Mzc5LCA2OC4wNjc3MDMyNDcwNzAzMSAyMy45OTg2OTcyODA4ODM3OSI+PC9wYXRoPjwvZz48L2c+PGcgdHJhbnNmb3JtPSJ0cmFuc2xhdGUoMTQwNy40MTE3ODEzMTEwMzUyLCAxMjcuOTkwODgyODczNTM1MTYpIiBpZD0iY2xhc3NJZC1GaWx0cm9zQW5kLTgwIiBjbGFzcz0ibm9kZSBkZWZhdWx0Ij48ZyBjbGFzcz0iYmFzaWMgbGFiZWwtY29udGFpbmVyIj48cGF0aCBzdHlsZT0iIiBmaWxsPSIjZWVlIiBzdHJva2Utd2lkdGg9IjAiIHN0cm9rZT0ibm9uZSIgZD0iTS0xNTcuMzM4NTQ2NzUyOTI5NyAtODMuOTk0Nzg5MTIzNTM1MTYgTDE1Ny4zMzg1NDY3NTI5Mjk3IC04My45OTQ3ODkxMjM1MzUxNiBMMTU3LjMzODU0Njc1MjkyOTcgODMuOTk0Nzg5MTIzNTM1MTYgTC0xNTcuMzM4NTQ2NzUyOTI5NyA4My45OTQ3ODkxMjM1MzUxNiI+PC9wYXRoPjxwYXRoIHN0eWxlPSIiIGZpbGw9Im5vbmUiIHN0cm9rZS13aWR0aD0iMS4zIiBzdHJva2U9IiM5OTkiIGQ9Ik0tMTU3LjMzODU0Njc1MjkyOTcgLTgzLjk5NDc4OTEyMzUzNTE2IEMtNTUuMzQyODA4MTc3NDU1OTM2IC04My45OTQ3ODkxMjM1MzUxNiwgNDYuNjUyOTMwMzk4MDE3ODE2IC04My45OTQ3ODkxMjM1MzUxNiwgMTU3LjMzODU0Njc1MjkyOTcgLTgzLjk5NDc4OTEyMzUzNTE2IE0tMTU3LjMzODU0Njc1MjkyOTcgLTgzLjk5NDc4OTEyMzUzNTE2IEMtNjEuNzQ3MDg0MjgwNzcyMiAtODMuOTk0Nzg5MTIzNTM1MTYsIDMzLjg0NDM3ODE5MTM4NTI5IC04My45OTQ3ODkxMjM1MzUxNiwgMTU3LjMzODU0Njc1MjkyOTcgLTgzLjk5NDc4OTEyMzUzNTE2IE0xNTcuMzM4NTQ2NzUyOTI5NyAtODMuOTk0Nzg5MTIzNTM1MTYgQzE1Ny4zMzg1NDY3NTI5Mjk3IC0zMC40MDg1MjU2NzE4ODM5ODYsIDE1Ny4zMzg1NDY3NTI5Mjk3IDIzLjE3NzczNzc3OTc2NzE4NSwgMTU3LjMzODU0Njc1MjkyOTcgODMuOTk0Nzg5MTIzNTM1MTYgTTE1Ny4zMzg1NDY3NTI5Mjk3IC04My45OTQ3ODkxMjM1MzUxNiBDMTU3LjMzODU0Njc1MjkyOTcgLTIxLjI3OTUwMzg5OTA3MDA5MywgMTU3LjMzODU0Njc1MjkyOTcgNDEuNDM1NzgxMzI1Mzk0OTcsIDE1Ny4zMzg1NDY3NTI5Mjk3IDgzLjk5NDc4OTEyMzUzNTE2IE0xNTcuMzM4NTQ2NzUyOTI5NyA4My45OTQ3ODkxMjM1MzUxNiBDNTMuMDQxODgyMTQ3NzA3NCA4My45OTQ3ODkxMjM1MzUxNiwgLTUxLjI1NDc4MjQ1NzUxNDg5IDgzLjk5NDc4OTEyMzUzNTE2LCAtMTU3LjMzODU0Njc1MjkyOTcgODMuOTk0Nzg5MTIzNTM1MTYgTTE1Ny4zMzg1NDY3NTI5Mjk3IDgzLjk5NDc4OTEyMzUzNTE2IEM0OC43MzYzMTE2MTY1NDM1MyA4My45OTQ3ODkxMjM1MzUxNiwgLTU5Ljg2NTkyMzUxOTg0MjYyNSA4My45OTQ3ODkxMjM1MzUxNiwgLTE1Ny4zMzg1NDY3NTI5Mjk3IDgzLjk5NDc4OTEyMzUzNTE2IE0tMTU3LjMzODU0Njc1MjkyOTcgODMuOTk0Nzg5MTIzNTM1MTYgQy0xNTcuMzM4NTQ2NzUyOTI5NyA0Ni42NzM2MTI4Njc5OTQ1NywgLTE1Ny4zMzg1NDY3NTI5Mjk3IDkuMzUyNDM2NjEyNDUzOTg1LCAtMTU3LjMzODU0Njc1MjkyOTcgLTgzLjk5NDc4OTEyMzUzNTE2IE0tMTU3LjMzODU0Njc1MjkyOTcgODMuOTk0Nzg5MTIzNTM1MTYgQy0xNTcuMzM4NTQ2NzUyOTI5NyAyNy43NjUzNzAyMDcwNTk2NDcsIC0xNTcuMzM4NTQ2NzUyOTI5NyAtMjguNDY0MDQ4NzA5NDE1ODYzLCAtMTU3LjMzODU0Njc1MjkyOTcgLTgzLjk5NDc4OTEyMzUzNTE2Ij48L3BhdGg+PC9nPjxnIHRyYW5zZm9ybT0idHJhbnNsYXRlKDAsIC01OS45OTQ3ODkxMjM1MzUxNTYpIiBjbGFzcz0iYW5ub3RhdGlvbi1ncm91cCB0ZXh0Ij48L2c+PGcgdHJhbnNmb3JtPSJ0cmFuc2xhdGUoLTM4LjQxMTQ1NzA2MTc2NzU4LCAtNTkuOTk0Nzg5MTIzNTM1MTU2KSIgY2xhc3M9ImxhYmVsLWdyb3VwIHRleHQiPjxnIHRyYW5zZm9ybT0idHJhbnNsYXRlKDAsLTExLjk5ODY5NzI4MDg4Mzc4OSkiIHN0eWxlPSJmb250LXdlaWdodDogYm9sZGVyIiBjbGFzcz0ibGFiZWwiPjxmb3JlaWduT2JqZWN0IGhlaWdodD0iMjMuOTk3Mzk0NTYxNzY3NTc4IiB3aWR0aD0iNzYuODIyOTE0MTIzNTM1MTYiPjxkaXYgc3R5bGU9ImRpc3BsYXk6IHRhYmxlLWNlbGw7IHdoaXRlLXNwYWNlOiBub3dyYXA7IGxpbmUtaGVpZ2h0OiAxLjU7IG1heC13aWR0aDogMTIycHg7IHRleHQtYWxpZ246IGNlbnRlcjsiIHhtbG5zPSJodHRwOi8vd3d3LnczLm9yZy8xOTk5L3hodG1sIj48c3BhbiBzdHlsZT0iIiBjbGFzcz0ibm9kZUxhYmVsIG1hcmtkb3duLW5vZGUtbGFiZWwiPjxwPkZpbHRyb3NBbmQ8L3A+PC9zcGFuPjwvZGl2PjwvZm9yZWlnbk9iamVjdD48L2c+PC9nPjxnIHRyYW5zZm9ybT0idHJhbnNsYXRlKC0xNDUuMzM4NTQ2NzUyOTI5NywgLTExLjk5NzM5NDU2MTc2NzU3OCkiIGNsYXNzPSJtZW1iZXJzLWdyb3VwIHRleHQiPjxnIHRyYW5zZm9ybT0idHJhbnNsYXRlKDAsLTExLjk5ODY5NzI4MDg4Mzc4OSkiIHN0eWxlPSIiIGNsYXNzPSJsYWJlbCI+PGZvcmVpZ25PYmplY3QgaGVpZ2h0PSIyMy45OTczOTQ1NjE3Njc1NzgiIHdpZHRoPSI2OS43MTM1MzkxMjM1MzUxNiI+PGRpdiBzdHlsZT0iZGlzcGxheTogdGFibGUtY2VsbDsgd2hpdGUtc3BhY2U6IG5vd3JhcDsgbGluZS1oZWlnaHQ6IDEuNTsgbWF4LXdpZHRoOiAxMjFweDsgdGV4dC1hbGlnbjogY2VudGVyOyIgeG1sbnM9Imh0dHA6Ly93d3cudzMub3JnLzE5OTkveGh0bWwiPjxzcGFuIHN0eWxlPSIiIGNsYXNzPSJub2RlTGFiZWwgbWFya2Rvd24tbm9kZS1sYWJlbCI+PHA+LWYxOiBGaWx0cm88L3A+PC9zcGFuPjwvZGl2PjwvZm9yZWlnbk9iamVjdD48L2c+PGcgdHJhbnNmb3JtPSJ0cmFuc2xhdGUoMCwxMS45OTg2OTcyODA4ODM3ODkpIiBzdHlsZT0iIiBjbGFzcz0ibGFiZWwiPjxmb3JlaWduT2JqZWN0IGhlaWdodD0iMjMuOTk3Mzk0NTYxNzY3NTc4IiB3aWR0aD0iNjkuNzEzNTM5MTIzNTM1MTYiPjxkaXYgc3R5bGU9ImRpc3BsYXk6IHRhYmxlLWNlbGw7IHdoaXRlLXNwYWNlOiBub3dyYXA7IGxpbmUtaGVpZ2h0OiAxLjU7IG1heC13aWR0aDogMTIxcHg7IHRleHQtYWxpZ246IGNlbnRlcjsiIHhtbG5zPSJodHRwOi8vd3d3LnczLm9yZy8xOTk5L3hodG1sIj48c3BhbiBzdHlsZT0iIiBjbGFzcz0ibm9kZUxhYmVsIG1hcmtkb3duLW5vZGUtbGFiZWwiPjxwPi1mMjogRmlsdHJvPC9wPjwvc3Bhbj48L2Rpdj48L2ZvcmVpZ25PYmplY3Q+PC9nPjwvZz48ZyB0cmFuc2Zvcm09InRyYW5zbGF0ZSgtMTQ1LjMzODU0Njc1MjkyOTcsIDU5Ljk5NzM5NDU2MTc2NzU4KSIgY2xhc3M9Im1ldGhvZHMtZ3JvdXAgdGV4dCI+PGcgdHJhbnNmb3JtPSJ0cmFuc2xhdGUoMCwtMTEuOTk4Njk3MjgwODgzNzg5KSIgc3R5bGU9IiIgY2xhc3M9ImxhYmVsIj48Zm9yZWlnbk9iamVjdCBoZWlnaHQ9IjIzLjk5NzM5NDU2MTc2NzU3OCIgd2lkdGg9IjI1Mi4yNjU2MjUiPjxkaXYgc3R5bGU9ImRpc3BsYXk6IHRhYmxlLWNlbGw7IHdoaXRlLXNwYWNlOiBub3dyYXA7IGxpbmUtaGVpZ2h0OiAxLjU7IG1heC13aWR0aDogMzAycHg7IHRleHQtYWxpZ246IGNlbnRlcjsiIHhtbG5zPSJodHRwOi8vd3d3LnczLm9yZy8xOTk5L3hodG1sIj48c3BhbiBzdHlsZT0iIiBjbGFzcz0ibm9kZUxhYmVsIG1hcmtkb3duLW5vZGUtbGFiZWwiPjxwPitjdW1wbGVDb24objogTm90aWNpYSkgOiA6IGJvb2xlYW48L3A+PC9zcGFuPjwvZGl2PjwvZm9yZWlnbk9iamVjdD48L2c+PC9nPjxnIHN0eWxlPSIiIGNsYXNzPSJkaXZpZGVyIj48cGF0aCBzdHlsZT0iIiBmaWxsPSJub25lIiBzdHJva2Utd2lkdGg9IjEuMyIgc3Ryb2tlPSIjOTk5IiBkPSJNLTE1Ny4zMzg1NDY3NTI5Mjk3IC0zNS45OTczOTQ1NjE3Njc1OCBDLTc5LjQ0OTY2NzYxNDY2MDYgLTM1Ljk5NzM5NDU2MTc2NzU4LCAtMS41NjA3ODg0NzYzOTE1MDggLTM1Ljk5NzM5NDU2MTc2NzU4LCAxNTcuMzM4NTQ2NzUyOTI5NyAtMzUuOTk3Mzk0NTYxNzY3NTggTS0xNTcuMzM4NTQ2NzUyOTI5NyAtMzUuOTk3Mzk0NTYxNzY3NTggQy0zNi4wOTU2NDIzNDQ5NzI3NiAtMzUuOTk3Mzk0NTYxNzY3NTgsIDg1LjE0NzI2MjA2Mjk4NDE3IC0zNS45OTczOTQ1NjE3Njc1OCwgMTU3LjMzODU0Njc1MjkyOTcgLTM1Ljk5NzM5NDU2MTc2NzU4Ij48L3BhdGg+PC9nPjxnIHN0eWxlPSIiIGNsYXNzPSJkaXZpZGVyIj48cGF0aCBzdHlsZT0iIiBmaWxsPSJub25lIiBzdHJva2Utd2lkdGg9IjEuMyIgc3Ryb2tlPSIjOTk5IiBkPSJNLTE1Ny4zMzg1NDY3NTI5Mjk3IDM1Ljk5NzM5NDU2MTc2NzU4IEMtMzMuMzk3NjYxMzgwNzIzODkgMzUuOTk3Mzk0NTYxNzY3NTgsIDkwLjU0MzIyMzk5MTQ4MTkxIDM1Ljk5NzM5NDU2MTc2NzU4LCAxNTcuMzM4NTQ2NzUyOTI5NyAzNS45OTczOTQ1NjE3Njc1OCBNLTE1Ny4zMzg1NDY3NTI5Mjk3IDM1Ljk5NzM5NDU2MTc2NzU4IEMtNzMuMzUzNTE3OTYzNzkxNzcgMzUuOTk3Mzk0NTYxNzY3NTgsIDEwLjYzMTUxMDgyNTM0NjE0IDM1Ljk5NzM5NDU2MTc2NzU4LCAxNTcuMzM4NTQ2NzUyOTI5NyAzNS45OTczOTQ1NjE3Njc1OCI+PC9wYXRoPjwvZz48L2c+PC9nPjwvZz48L2c+PC9zdmc+;movable=1;resizable=1;rotatable=1;deletable=1;editable=1;locked=0;connectable=1;shadow=0;imageBackground=none;flipH=0;fixDash=0;allowArrows=1;linecap=square;perimeter=none;" parent="1" vertex="1">
                        <mxGeometry x="910" y="1190" width="1617.514404296875" height="1396.2474365234375" as="geometry"/>
                    </mxCell>
                </UserObject>
            </root>
        </mxGraphModel>
    </diagram>
</mxfile>